<svg width="593" height="401" viewBox="0 0 593 401" fill="none" xmlns="http://www.w3.org/2000/svg">
<g opacity="0.5">
<path d="M177.162 28.4276C176.948 26.6687 176.516 24.9461 175.876 23.303C175.795 22.9923 175.652 22.7027 175.457 22.4526C175.262 22.2025 175.019 21.9975 174.744 21.8505C174.376 21.7509 173.99 21.7464 173.62 21.8374L167.85 22.7567C167.367 22.7796 166.905 22.9667 166.534 23.2893C165.782 24.1122 166.522 25.4373 166.499 26.5725C166.473 27.8491 165.384 28.8854 164.203 29.2282C162.997 29.4819 161.753 29.4658 160.554 29.1811L152.486 27.8756C154.862 27.0858 156.977 25.6162 158.589 23.6347C159.651 22.3251 160.216 19.8801 158.681 19.2599C158.225 19.1297 157.75 19.0899 157.28 19.1428C153.625 19.1724 150.748 15.9946 147.326 14.6562C145.136 13.855 142.759 13.7953 140.534 14.4859C138.31 15.1764 136.352 16.5817 134.94 18.5008L139.238 18.7166C139.642 18.6934 140.043 18.8047 140.383 19.0345C141.325 19.8403 140.154 21.388 140.286 22.6498C140.459 24.2891 142.549 24.6391 144.125 24.8049C145.701 24.9706 147.7 26.3037 146.942 27.7517C139.022 30.5923 130.962 22.1991 122.645 23.2323C120.539 23.4938 118.552 24.3549 116.496 24.8964C103.941 28.2041 90.9606 19.3787 78.1345 21.2478C75.2831 21.7539 72.4807 22.5235 69.7604 23.5474C68.0147 24.1442 66.1939 24.7892 64.9255 26.1733C63.6572 27.5574 63.1744 29.9245 64.376 31.3718C61.0641 31.6558 57.7301 31.3258 54.5289 30.3972C55.3945 30.8982 56.1147 31.6327 56.6138 32.5234C57.1128 33.4142 57.3724 34.4285 57.3652 35.4597C52.194 36.3377 47.1598 37.936 42.3979 40.2116C43.2867 41.7505 44.3247 43.1904 45.4958 44.5086L38.9492 48.8878C41.161 49.4681 42.3045 52.6083 41.0183 54.5696C43.3116 53.5073 44.7329 50.7592 47.1852 50.202C48.7918 49.837 50.4266 50.5214 51.9507 51.1642C53.4748 51.8071 55.1499 52.4304 56.7277 51.948C58.3055 51.4655 59.4692 49.3353 58.4666 47.9781C65.2104 45.9293 72.18 44.7955 79.2026 44.6048C79.7444 44.534 80.2938 44.6426 80.773 44.9151C81.6872 45.5755 81.4467 47.0019 81.3975 48.1593C81.3482 49.3167 82.2145 50.8378 83.208 50.3161C82.0392 51.3714 83.0383 53.3581 84.1597 54.4678C85.281 55.5775 86.6325 57.1088 85.946 58.5523C85.7669 58.9291 85.463 59.2305 85.2906 59.6107C84.7817 60.7328 85.5897 62.0411 86.5426 62.7863C87.4956 63.5315 88.663 64.0523 89.3249 65.0842C89.9869 66.1161 89.6863 67.9224 88.5026 68.0665L85.1379 63.6184C83.9884 64.8595 83.2003 66.4146 82.8651 68.1031C86.433 71.1401 86.9696 77.3216 83.9826 80.9755C82.4562 82.8428 80.2855 83.9774 78.3909 85.4339C76.4964 86.8904 74.7433 88.9643 74.748 91.4164C74.7563 95.6528 74.4238 99.5886 75.9484 103.516C78.7598 110.759 82.0056 117.81 85.6667 124.628C86.6281 126.418 87.8706 128.381 89.8183 128.689C87.3569 122.45 85.1411 116.113 83.171 109.68C84.4542 109.685 85.937 109.791 86.6893 110.873C87.3121 111.77 87.1783 112.988 87.3719 114.076C87.6181 115.13 88.0286 116.135 88.587 117.051L100.341 138.852C101.315 140.659 102.433 142.599 104.295 143.331C105.486 143.799 106.863 143.711 107.959 144.384C108.818 144.912 109.397 145.85 110.273 146.347C112.749 147.753 116.192 145.056 118.506 146.735C119.167 147.215 119.588 147.978 120.198 148.528C122.335 150.455 125.841 149.166 128.308 150.603C129.898 151.53 130.722 153.383 131.57 155.062C133.694 159.268 137.131 163.388 141.684 163.723C143.114 163.829 144.575 163.546 145.973 163.877C147.371 164.209 148.747 165.479 148.522 166.953C148.138 169.481 149.337 172.249 149.015 174.786C148.428 179.407 142.133 181.438 141.592 186.065C141.473 187.078 141.659 188.124 141.427 189.116C141.143 190.331 140.266 191.321 139.955 192.529C139.365 194.819 140.94 197.097 142.671 198.638C144.401 200.178 146.465 201.506 147.412 203.662C148.412 205.941 147.92 208.599 148.246 211.081C148.956 216.501 153.452 220.519 158.078 223.11C159.488 223.899 161.002 224.664 161.914 226.033C163.105 227.82 162.987 230.176 163.384 232.312C164.358 237.542 168.587 241.851 168.707 247.177C168.792 250.963 166.771 254.397 165.564 257.969C164.432 261.391 164.022 265.027 164.363 268.629C164.704 272.231 165.786 275.714 167.538 278.841C168.441 280.429 169.521 281.926 170.16 283.647C171.3 286.719 170.93 290.211 171.981 293.317C173.371 297.423 177.189 300.814 176.824 305.152C178.557 308.9 182.385 310.742 186.235 311.858L193.134 313.857C194.455 314.24 195.835 314.626 197.18 314.349C198.525 314.072 199.809 312.909 199.774 311.481C196.391 310.687 192.9 309.842 190.111 307.695C187.322 305.549 185.411 301.726 186.47 298.287C186.96 296.693 188.004 294.851 187.012 293.533C186.443 292.779 185.404 292.582 184.763 291.894C183.764 290.82 184.107 289.016 184.826 287.722C185.545 286.427 186.583 285.27 186.873 283.805C187.02 282.986 186.922 282.14 186.593 281.38C186.264 280.62 185.72 279.983 185.034 279.554C186.313 279.051 187.477 278.274 188.449 277.273C189.347 276.205 189.761 274.559 189.055 273.345C191.153 273.622 193.629 273.758 195.006 272.087C196.106 270.753 196.031 268.758 195.596 267.059C195.162 265.36 194.427 263.709 194.404 261.951C199.243 262.19 204.093 262.019 208.906 261.439C208.21 258.999 206.628 256.937 204.497 255.69C206.676 255.306 208.662 252.589 209.351 250.402C210.039 248.215 209.864 245.832 209.438 243.573C209.275 242.992 209.252 242.377 209.373 241.785C209.618 240.97 210.387 240.473 211.098 240.048L221.916 233.578C222.562 233.242 223.147 232.792 223.646 232.249C224.78 230.862 224.612 228.77 224.032 227.052C223.451 225.335 222.522 223.72 222.298 221.914C221.629 216.514 227.181 212.639 229.055 207.555C229.79 205.56 229.94 203.392 230.083 201.26C230.235 198.97 230.247 196.311 228.558 194.836C226.94 193.421 224.411 193.737 222.718 192.421C221.165 191.215 220.629 188.873 218.933 187.898C217.393 187.014 215.462 187.576 213.748 187.16C210.732 186.428 208.834 182.808 205.753 182.473C204.015 182.283 202.048 183.168 200.623 182.114C199.368 181.185 199.317 179.319 199.079 177.735C198.66 175.273 197.527 173.004 195.831 171.233C194.136 169.463 191.961 168.275 189.598 167.831C187.806 167.532 185.855 167.646 184.331 166.62C182.787 165.582 182.079 163.638 180.866 162.2C178.912 159.882 175.834 159.059 172.95 158.353L161.221 155.482C159.139 154.972 156.456 154.702 155.338 156.601C155.008 157.324 154.773 158.091 154.642 158.88C154.224 160.308 153.381 161.56 152.236 162.458C151.09 163.356 149.701 163.852 148.268 163.876C147.285 162.13 145.692 160.847 143.823 160.295C142.633 159.949 141.36 159.911 140.226 159.403C139.608 159.089 139.059 158.647 138.611 158.105C138.163 157.562 137.826 156.929 137.62 156.246C137.415 155.563 137.346 154.844 137.417 154.132C137.488 153.42 137.698 152.731 138.034 152.106C138.71 150.852 138.971 149.402 138.777 147.978C138.583 146.555 137.944 145.237 136.959 144.229C134.965 142.365 132.079 141.914 129.405 142.101C128.704 140.51 129.876 138.714 131.138 137.557C132.4 136.401 133.932 135.264 134.207 133.537C134.64 130.82 131.311 128.757 128.783 129.567C126.255 130.377 124.642 132.933 123.576 135.453C122.964 136.899 122.444 138.421 121.478 139.641C120.513 140.86 118.959 141.733 117.489 141.341C115.407 140.788 114.604 138.213 114.143 136.028C113.525 133.097 112.903 130.125 113.033 127.127C113.162 124.129 114.133 121.05 116.256 119.021C119.716 115.713 125.023 116.038 129.693 116.565C128.59 115.271 128.862 113.09 130.043 111.872C130.666 111.295 131.414 110.886 132.224 110.679C133.033 110.472 133.879 110.473 134.688 110.684C136.095 110.989 137.362 111.778 138.286 112.924C139.613 114.608 139.99 116.883 140.993 118.795C141.996 120.707 144.251 122.337 146.097 121.312C147.691 120.426 147.945 118.124 147.548 116.288C147.151 114.452 146.308 112.667 146.452 110.791C146.726 107.212 150.289 105.058 153.434 103.584C156.578 102.11 160.179 100.127 160.677 96.5742C160.694 95.8786 160.82 95.1905 161.05 94.5372C161.398 93.9602 161.883 93.4856 162.458 93.1586C171.635 86.8439 180.964 80.452 191.453 77.0015C191.998 76.8219 192.063 77.0215 192.619 76.8808C193.397 76.4124 192.881 75.1167 192.135 74.5947C191.389 74.0727 190.391 73.6725 190.202 72.7574C190.063 72.0848 190.444 71.4243 190.542 70.744C190.785 69.0722 188.865 67.5286 187.373 68.197C186.531 67.0352 188.198 65.6852 189.546 65.2987C193.594 64.1388 197.749 63.432 201.941 63.1904C202.425 63.1103 202.92 63.1981 203.351 63.4402C204.055 63.948 203.965 65.1128 203.466 65.8376C202.967 66.5625 202.191 67.0176 201.569 67.6309C200.89 68.32 200.405 69.1902 200.169 70.1465C199.932 71.1027 199.952 72.1084 200.226 73.0536C202.415 74.2127 204.794 75.4059 207.218 74.9976C209.641 74.5892 211.793 71.7536 210.653 69.489C209.593 67.38 206.406 66.9044 205.858 64.593C205.216 61.8869 208.895 59.48 208.066 56.8296C207.703 55.6686 206.592 54.9853 205.74 54.1471C204.733 53.1194 204.048 51.7986 203.775 50.3582C203.502 48.9178 203.653 47.4251 204.21 46.0761C202.821 46.3305 201.394 46.2344 200.048 45.7959C198.702 45.3574 197.477 44.5892 196.475 43.5559C194.625 41.6118 193.149 38.545 190.522 38.632C188.111 38.7118 186.035 41.6404 183.78 40.7469C183.226 40.5271 182.641 40.0797 182.104 40.3419C181.928 40.4609 181.78 40.6201 181.671 40.8073C181.563 40.9946 181.497 41.2051 181.478 41.4228C180.905 44.2747 181.891 47.524 180.398 49.9883C178.774 52.67 175.016 53.0418 173.047 55.46C171.978 56.7727 171.564 58.5415 170.581 59.9254C169.599 61.3094 167.513 62.1893 166.334 60.9832C166.914 59.7427 167.072 58.3342 166.783 56.9878C166.494 55.6415 165.775 54.437 164.744 53.5713C163.649 52.8275 162.469 52.2299 161.231 51.7922C159.848 51.1826 158.532 50.4191 157.307 49.5149C156.693 49.1293 156.194 48.5736 155.866 47.9099C155.607 47.0787 155.642 46.1784 155.965 45.3717C156.563 43.5867 157.618 42.0057 159.015 40.7993C160.413 39.5929 162.101 38.807 163.897 38.5264C165.467 38.304 167.294 38.3823 168.333 37.1368C168.883 36.4777 169.171 35.4812 169.969 35.2136C170.48 35.1068 171.01 35.1747 171.48 35.4073L177.34 37.555C177.994 37.8624 178.714 37.9863 179.428 37.9145C179.782 37.8649 180.105 37.6776 180.332 37.3904C180.559 37.1031 180.673 36.7371 180.651 36.3658C180.464 35.3525 178.967 34.8662 179.103 33.8441C179.179 33.5129 179.35 33.2136 179.593 32.9857C181.708 30.6419 184.295 28.8139 187.167 27.6327C190.04 26.4515 193.128 25.9462 196.21 26.1531C196.95 27.418 195.78 28.9158 194.807 29.9956C193.834 31.0754 193.051 33.0048 194.228 33.8359C194.711 34.0923 195.247 34.2181 195.789 34.2018C197.232 34.4052 198.634 34.848 199.942 35.5134C201.967 36.4311 203.953 37.435 205.9 38.5254C205.728 37.1885 205.564 35.7801 206.051 34.5301C206.537 33.28 207.921 32.2996 209.129 32.7864C210.293 33.2556 210.89 34.8608 212.13 35.0078C213.785 35.204 214.438 32.6588 213.747 31.0811C213.056 29.5035 211.687 28.1825 211.573 26.4526C211.496 25.2855 211.923 23.8381 211.027 23.1314C210.709 22.9192 210.347 22.7872 209.971 22.7457L187.616 18.4623C186.288 18.2079 184.37 18.4028 184.311 19.807C184.278 20.5907 184.951 21.3661 184.653 22.0868C184.335 22.8559 183.291 22.7856 182.53 23.0576C181.35 23.4797 180.758 24.9387 180.872 26.2325C181.079 27.5181 181.557 28.7399 182.272 29.8104C180.818 29.1772 178.616 29.0608 177.162 28.4276Z" fill="#00262E"/>
<path d="M159.326 8.66683C157.916 8.18107 156.397 8.15845 154.975 8.60202C153.552 9.04559 152.295 9.93391 151.374 11.1465C151.006 11.6512 150.697 12.3468 151.005 12.8933C151.447 13.6767 152.572 13.3673 153.402 13.087C154.622 12.6332 155.95 12.6002 157.189 12.993C157.969 13.2716 158.666 13.764 159.449 14.032C159.83 14.198 160.247 14.2528 160.656 14.1906C161.064 14.1284 161.449 13.9516 161.768 13.6791C162.306 13.1086 162.339 12.2217 162.34 11.4227C162.378 11.1554 162.357 10.8828 162.28 10.6248C162.203 10.3667 162.072 10.1298 161.896 9.93133C161.583 9.74237 161.231 9.63394 160.869 9.61503C160.059 9.45894 159.327 9.01348 158.799 8.35548" fill="#00262E"/>
<path d="M167.383 6.33047C167.068 6.31259 166.753 6.37951 166.47 6.52481C166.186 6.67011 165.943 6.8889 165.765 7.16014C165.586 7.43138 165.477 7.74595 165.449 8.0736C165.421 8.40125 165.474 8.73096 165.603 9.03103C166.572 9.30615 167.584 9.37487 168.579 9.23308C169.075 9.15285 169.538 8.92147 169.908 8.56808C170.278 8.2147 170.54 7.75513 170.659 7.24729C169.488 7.46926 168.279 7.22887 167.269 6.57302" fill="#00262E"/>
<path d="M194.432 2.42776C191.795 3.01152 189.234 3.91758 186.801 5.12708C187.948 5.58611 188.923 6.41663 189.582 7.49623C190.241 8.57583 190.55 9.84741 190.463 11.1236C190.36 11.6135 190.372 12.1221 190.498 12.6062C190.778 13.3137 191.59 13.5792 192.304 13.7607C193.587 14.1673 194.926 14.3453 196.266 14.2873C196.936 14.2508 197.587 14.0409 198.16 13.6765C198.733 13.3121 199.209 12.8049 199.546 12.2005C199.74 11.627 199.968 11.0664 200.228 10.5219C201.939 7.80779 207.024 11.0895 208.861 8.46633C209.509 7.54227 209.449 6.15133 210.293 5.41911C210.73 5.10009 211.236 4.89909 211.765 4.83418C215.461 4.06972 219.193 3.51617 222.947 3.17603C224.725 3.01488 227.043 2.34996 227.058 0.491274C220.359 -0.878562 213.414 0.0943494 207.301 3.25875C205.098 4.40735 202.186 6.82345 200.064 5.30069C199.27 4.73055 199.309 3.19528 198.216 2.55416C197.098 1.8987 195.619 2.16529 194.432 2.42776Z" fill="#00262E"/>
<path d="M216.341 6.69249L219.485 7.3216C218.907 7.29491 218.329 7.39705 217.791 7.62121C217.253 7.84537 216.767 8.18639 216.366 8.62152C215.965 9.05666 215.657 9.5759 215.464 10.1446C215.271 10.7133 215.196 11.3184 215.245 11.9195C218.19 12.9438 221.4 11.947 224.502 12.0832C227.604 12.2193 231.213 14.5264 230.683 17.7117C230.523 18.6748 229.989 19.6373 230.267 20.5709C230.461 21.2253 231.016 21.6896 231.329 22.2923C231.98 23.5482 231.459 25.1367 230.636 26.2784C229.813 27.42 228.707 28.3309 227.984 29.5441C226.187 32.5617 227.208 36.4627 228.279 39.8338C228.588 41.1076 229.16 42.2961 229.954 43.3172C231.54 45.0731 234.124 45.2258 236.439 45.261C238.124 45.2866 240.054 45.1999 241.119 43.8408C242.51 42.0663 241.538 39.2978 242.453 37.2152C243.285 35.3238 245.404 34.5124 247.324 33.9369C250.841 32.8826 254.426 31.9863 257.751 30.3937C261.88 28.4162 265.738 25.3345 270.277 25.08C271.55 25.0086 272.855 25.165 274.081 24.8018C275.307 24.4386 276.472 23.3345 276.38 22.0104C276.3 20.8791 275.381 20.0483 274.663 19.1955C273.944 18.3426 273.38 17.0311 274.04 16.1288L285.936 13.8153C285.093 11.4226 284.436 8.27143 286.373 6.714C287.072 6.15207 288.008 5.92748 288.604 5.24814C289.618 4.09028 289.108 2.09576 287.937 1.11107C286.766 0.12638 285.182 -0.10221 283.682 -0.23195C278.466 -0.68299 273.221 -0.384952 267.995 -0.0866828C257.779 0.496368 247.564 1.07942 237.348 1.66247C235.292 1.77984 232.917 1.60053 231.031 2.33106C229.434 2.94952 228.299 4.08477 226.473 4.48363C223.102 5.21997 219.392 4.7217 216.341 6.69249Z" fill="#00262E"/>
<path d="M272.67 32.5734C272.35 32.5206 272.022 32.598 271.755 32.7896C271.578 32.9921 271.473 33.2513 271.457 33.5244C271.254 34.7298 271.496 35.9704 272.134 36.998C272.459 37.5021 272.908 37.9064 273.434 38.1689C273.959 38.4314 274.543 38.5425 275.124 38.4908C276.54 38.3028 277.583 37.0451 278.885 36.4313C280.891 35.4863 289.411 34.013 283.518 30.6976C281.487 29.555 280.174 30.5637 278.573 31.3161C276.752 32.2863 274.711 32.721 272.67 32.5734Z" fill="#00262E"/>
<path d="M324.291 4.82144C323.603 5.1142 323.027 5.636 322.654 6.30539C322.482 6.64528 322.442 7.04102 322.543 7.41073C322.643 7.78044 322.876 8.09582 323.193 8.29162C323.45 8.38867 323.723 8.43367 323.996 8.42422L326.794 8.51127C327.983 8.54825 329.468 8.81186 329.787 10.0047C330.025 10.8904 329.494 12.0285 330.134 12.6615C330.409 12.8831 330.74 13.0174 331.086 13.048C332.008 13.2946 332.971 13.3269 333.906 13.1428C335.942 12.5742 334.872 11.2803 335.513 10.1282C336.494 8.36535 336.324 9.43246 338.053 8.42216C339.33 7.67604 340.98 6.32257 339.914 4.42092C338.061 1.11399 327.026 3.40079 324.291 4.82144Z" fill="#00262E"/>
<path d="M379.518 3.15821L377.894 3.38399C374.23 3.89311 370.545 4.40691 367.016 5.5526C368.543 6.18149 370.146 6.59098 371.78 6.76979C372.679 6.81569 373.572 6.94792 374.448 7.16477C376.007 7.64793 377.578 8.89559 379.083 8.25646C380.017 7.86018 380.322 6.8479 381.095 6.31141C381.629 5.94096 383.655 5.34137 383.881 4.96747C385.712 1.94472 380.926 2.96269 379.518 3.15821Z" fill="#00262E"/>
<path d="M386.658 10.8495C384.488 12.1131 382.474 13.6486 380.662 15.4218C379.898 16.169 379.119 17.0984 379.188 18.187C379.28 19.6339 380.76 20.4732 382.043 21.0385L387.237 23.3284C387.867 22.4036 387.29 21.127 386.639 20.2183C385.988 19.3095 385.214 18.258 385.502 17.1644C385.83 15.9164 387.291 15.4911 388.517 15.2761C390.513 14.9258 395.9 14.9539 395.252 11.6034C394.49 7.6555 388.662 9.68294 386.658 10.8495Z" fill="#00262E"/>
<path d="M385.608 234.264C385.114 235.755 385.067 237.51 385.922 238.812C386.882 240.272 388.803 240.817 390.465 240.446C392.12 239.988 393.595 239 394.682 237.623C395.677 236.469 396.495 235.162 397.108 233.749C397.964 231.547 398.567 229.248 398.906 226.899L400.519 218.082C400.879 216.111 400.865 210.07 397.387 212.038C396.437 212.576 394.237 216.822 393.241 218.026C391.446 220.195 391.209 222.301 390.264 224.929C389.081 228.222 386.702 230.966 385.608 234.264Z" fill="#00262E"/>
<path d="M569.324 279.383C568.186 278.921 567.082 278.373 566.019 277.745C564.954 280.795 564.388 284.009 564.344 287.253L572.132 282.665C573.303 281.974 574.631 281.015 574.606 279.614C574.617 279.441 574.582 279.268 574.506 279.113C574.431 278.959 574.316 278.829 574.175 278.736C574.002 278.664 573.814 278.641 573.63 278.669C572.475 278.77 571.422 279.361 570.332 279.773C569.243 280.184 567.969 280.402 566.97 279.791" fill="#00262E"/>
<path d="M596.293 194.915C595.239 195.182 594.147 195.249 593.069 195.113C591.28 194.771 589.888 193.367 588.443 192.215C585.009 189.493 580.835 187.974 576.52 187.877C572.594 187.8 568.633 188.908 564.777 188.135C565.029 189.594 566.228 190.688 567.507 191.338C568.786 191.988 570.198 192.316 571.483 192.953C573.541 193.983 575.174 195.752 576.081 197.934C576.495 198.94 576.756 200.035 577.383 200.913C578.664 202.709 581.094 203.103 583.237 202.956C586.033 202.765 588.952 201.928 591.552 203.012C593.542 203.841 594.965 205.654 596.626 207.064C598.287 208.474 600.627 209.52 602.534 208.503C600.553 207.835 598.829 206.525 597.613 204.765C596.397 203.005 595.754 200.886 595.777 198.718C597.647 198.897 603.035 198.827 602.745 195.518C602.499 192.713 597.899 194.613 596.293 194.915Z" fill="#00262E"/>
<path d="M571.82 217.735C572.152 215.839 573.969 214.164 573.403 212.328C573.012 211.058 571.598 210.431 570.318 210.4C569.038 210.369 567.78 210.766 566.5 210.803C565.667 210.757 564.831 210.77 564 210.84C561.459 211.275 559.893 214.048 557.498 215.034C556.042 215.634 554.406 215.519 552.892 215.934C549.454 216.875 547.279 220.257 544.876 222.984C540.993 227.37 535.935 230.442 530.357 231.801C528.402 232.272 526.301 232.573 524.748 233.895C522.69 235.645 522.184 238.646 521.726 241.371C520.462 248.897 518.529 256.284 515.953 263.437L524.116 264.523C525.667 264.729 527.275 264.931 528.771 264.452C529.857 264.025 530.887 263.455 531.833 262.754C535.468 260.404 539.537 258.875 543.776 258.265C545.913 257.96 548.154 257.904 550.16 258.731C552.166 259.558 553.887 261.434 554.055 263.674C554.922 263.393 555.847 263.363 556.73 263.586C557.612 263.81 558.42 264.279 559.067 264.943C560.345 266.299 561.182 268.039 561.459 269.917C561.674 271.08 561.89 272.473 562.926 272.961C563.771 273.359 564.741 272.93 565.666 272.853C568.804 272.591 571.408 276.402 574.493 275.745C577.801 275.042 578.613 269.883 581.84 268.85C583.694 268.256 586.294 268.978 587.181 267.183C587.964 265.6 586.403 263.774 586.564 262.003C586.762 259.821 589.233 258.895 591.139 257.964C597.707 254.755 600.824 245.549 597.641 238.76C595.755 234.737 592.045 231.571 591.359 227.152C590.832 223.752 592.119 219.787 590.037 217.111C588.978 215.749 587.185 214.998 586.555 213.373C586.158 212.351 586.318 211.191 586.104 210.111C585.891 209.03 584.986 207.9 583.961 208.18C580.988 208.993 580.039 218.558 578.447 220.882C576.026 224.415 571.058 222.088 571.82 217.735Z" fill="#00262E"/>
<path d="M516.86 198.529C515.844 198.232 514.734 197.94 513.76 198.364C512.787 198.788 512.218 200.277 512.999 201.015C519.113 200.767 525.264 200.521 531.326 201.385C538.31 202.381 545.222 204.849 552.236 204.123C548.229 202.892 544.156 201.908 540.038 201.175L533.171 199.81C531.329 199.408 529.467 199.108 527.595 198.912C523.677 198.576 520.712 199.654 516.86 198.529Z" fill="#00262E"/>
<path d="M522.977 176.358C522.469 176.314 521.841 176.276 521.578 176.73C521.327 177.164 521.614 177.738 521.479 178.225C521.295 178.89 520.459 179.06 519.8 178.969C519.14 178.878 518.428 178.662 517.844 178.993C517.548 179.203 517.325 179.508 517.21 179.862C517.094 180.215 517.092 180.598 517.203 180.953C517.442 181.658 517.828 182.299 518.333 182.829C519.197 183.962 520.181 184.99 521.266 185.893C523.367 187.508 526.214 188.286 527.538 190.63C527.724 191.085 528.011 191.487 528.375 191.804C529.01 192.223 529.839 191.904 530.523 191.579L532.921 190.438C533.353 190.276 533.738 190.003 534.042 189.644C534.59 188.87 534.253 187.77 533.793 186.936C533.333 186.102 532.745 185.24 532.844 184.284C533.019 182.579 535.124 181.927 535.989 180.469C536.862 178.999 536.294 177.105 536.394 175.381C536.512 173.364 537.729 170.74 535.771 169.233C534.106 167.952 532.516 169.135 531.321 170.549C528.801 173.531 527.609 176.761 522.977 176.358Z" fill="#00262E"/>
<path d="M537.532 146.221C538.351 147.853 540.058 148.827 540.95 150.416C541.918 152.139 541.808 154.365 542.857 156.035C543.934 157.748 546.101 158.657 546.705 160.606C547.365 162.733 545.869 165.319 547.061 167.178C547.284 167.481 547.564 167.734 547.885 167.919C548.206 168.104 548.561 168.218 548.926 168.252C549.291 168.287 549.66 168.243 550.008 168.122C550.356 168.001 550.676 167.806 550.948 167.549C551.45 166.979 551.719 166.227 551.697 165.454C551.676 164.68 551.364 163.946 550.83 163.408C550.124 162.738 549.11 162.448 548.52 161.665C548.213 161.213 548.009 160.695 547.922 160.149C547.601 158.573 547.652 156.94 548.072 155.39C548.23 154.997 548.27 154.563 548.187 154.146C547.922 153.343 546.877 153.286 546.144 152.913C544.479 152.067 544.519 149.62 544.81 147.714C544.617 148.983 540.277 146.825 539.822 146.107C538.92 144.679 539.411 141.926 539.232 140.348C537.283 141.326 536.532 144.225 537.532 146.221Z" fill="#00262E"/>
<path d="M493.816 171.331C493.015 170.398 491.809 169.421 490.735 169.984C489.916 170.414 489.69 171.594 490.011 172.489C490.403 173.358 491.005 174.106 491.759 174.658C493.997 176.58 496.407 178.314 498.359 180.548C501.853 184.546 503.704 189.941 507.503 193.624C508.267 194.477 509.279 195.047 510.383 195.246C511.49 195.353 512.733 194.616 512.86 193.465C512.965 192.518 512.331 191.67 511.711 190.968C510.235 189.297 508.619 187.758 507.225 186.011C506.582 185.34 506.177 184.46 506.079 183.518C506.072 182.577 506.896 181.593 507.771 181.826C506.706 181.542 505.917 179.696 504.355 179.349C503.049 179.059 502.733 179.901 501.18 179.207C498.216 177.883 495.892 173.75 493.816 171.331Z" fill="#00262E"/>
<path d="M563.446 80.4173C562.595 80.1543 561.76 79.8434 560.942 79.4862C558.742 78.7985 555.831 80.4824 556.124 82.8547C556.319 84.431 557.728 85.4937 558.506 86.8609C559.66 88.8885 559.352 91.4601 558.746 93.7308C558.597 94.4338 558.314 95.0986 557.913 95.6854C557.353 96.305 556.684 96.8064 555.942 97.1622C552.97 98.8971 550.35 101.215 548.226 103.988C547.995 104.244 547.834 104.56 547.76 104.902C547.655 105.703 548.428 106.287 548.865 106.955C549.836 108.439 549.134 110.436 549.23 112.229C549.216 112.482 549.263 112.735 549.369 112.964C549.474 113.193 549.634 113.39 549.834 113.537C550.419 113.846 551.113 113.321 551.43 112.722C552.483 110.736 551.69 107.548 553.665 106.591C554.038 106.409 554.491 106.333 554.74 105.991C555.136 105.449 554.754 104.647 554.955 103.999C555.256 103.026 556.533 102.982 557.514 103.025C559.203 103.099 560.892 102.865 562.504 102.333C563.137 102.177 563.711 101.831 564.156 101.337C564.746 100.57 564.694 99.4794 564.576 98.504C563.985 93.6411 562.506 88.9409 560.218 84.6571C561.953 84.8878 563.84 85.0877 565.337 84.1463C566.176 83.6191 567.181 82.0426 566.765 80.9696C566.108 79.2727 564.92 80.701 563.446 80.4173Z" fill="#00262E"/>
<path d="M341.027 107.163C341.235 108.323 341.439 109.544 341.074 110.66C340.709 111.777 339.561 112.71 338.477 112.368C337.636 112.102 337.15 111.221 336.552 110.55C333.23 106.815 325.735 108.978 323.683 104.357C322.845 102.472 323.414 100.213 322.843 98.2224C322.483 97.072 321.765 96.0788 320.804 95.3988C319.843 94.7188 318.692 94.3906 317.532 94.4656C316.474 94.6247 315.444 94.9447 314.476 95.4155C307.987 98.1214 301.175 99.8955 294.227 100.689C292.906 100.773 291.6 101.02 290.336 101.426C287.483 102.503 285.534 105.257 284.147 108.067C282.759 110.878 281.735 113.92 279.875 116.417C277.921 119.041 275.181 120.878 272.626 122.866C271.642 123.526 270.823 124.421 270.235 125.476C269.681 126.66 269.712 128.037 269.755 129.353L270.278 145.341C270.345 147.397 270.429 149.527 271.313 151.367C272.417 153.665 274.597 155.17 276.11 157.2C277.654 159.286 278.458 161.864 278.386 164.496C278.354 165.555 278.253 166.806 279.045 167.471C279.526 167.796 280.09 167.965 280.664 167.956L301.433 169.726C305.087 170.037 309.136 170.549 311.521 173.448C312.647 174.815 313.551 176.783 315.276 176.929C316.015 176.992 316.735 176.676 317.475 176.615C319.341 176.461 320.981 177.936 322.015 179.561C323.582 182.037 324.292 184.994 324.031 187.947C323.862 189.8 323.31 191.602 323.191 193.459C322.738 200.528 328.493 206.668 328.604 213.751C328.67 217.918 326.77 221.81 324.919 225.504C327.907 230.218 325.46 236.496 326.65 242.008C327.779 247.237 331.966 251.33 333.009 256.578C333.487 258.981 333.515 261.938 335.549 263.175C336.442 263.628 337.432 263.835 338.423 263.774C344.404 263.848 350.317 262.447 355.677 259.684C358.193 258.384 360.801 256.444 361.24 253.555C361.594 251.226 360.46 248.62 361.614 246.591C362.975 244.2 366.461 244.389 368.463 242.551C371.711 239.568 369.179 233.879 370.495 229.583C371.678 225.721 375.75 223.67 377.768 220.204C378.562 218.713 379.133 217.104 379.458 215.434C380.383 211.441 380.959 207.369 381.178 203.268C381.232 200.777 381.408 198.29 381.707 195.817C383.883 181.739 397.249 172.312 401.589 158.788C402.003 157.496 402.198 155.776 401.095 155.045C400.44 154.72 399.698 154.639 398.993 154.816L389.419 156.073C388.229 156.229 386.969 156.375 385.877 155.861C384.785 155.346 384.002 153.908 384.581 152.815C386.207 149.748 382.862 145.872 381.376 142.729C377.374 134.266 372.608 126.218 367.143 118.694C366.793 118.307 366.574 117.811 366.519 117.283L369.236 117.377C368.319 113.95 366.805 110.2 363.607 108.946C361.805 108.24 359.81 108.484 357.887 108.593C352.381 108.907 346.477 108.041 341.027 107.163Z" fill="#00262E"/>
<path d="M357.893 29.9314C359.333 31.5248 360.948 33.2141 363.033 33.4918C366.716 33.9823 369.363 30.0173 371.049 26.5733C371.111 27.4513 371.5 28.2693 372.133 28.8534C372.766 29.4374 373.592 29.7414 374.437 29.7007C375.346 29.5415 376.213 29.1883 376.985 28.6634C384.281 24.5118 392.453 22.3121 400.767 22.2619C400.688 21.6061 400.844 20.9427 401.206 20.3998C401.568 19.8569 402.111 19.4729 402.729 19.3219C404.419 18.973 405.942 20.4948 406.757 22.0756C407.573 23.6564 408.081 25.4887 409.377 26.672C410.673 27.8552 413.181 27.8037 413.693 26.0902C414.184 24.4452 412.538 23.0423 411.171 22.0724C409.803 21.1026 408.362 19.3075 409.283 17.8763C416.269 16.2661 423.298 14.6499 430.446 14.3299C431.663 14.374 432.876 14.1565 434.009 13.6909C435.099 13.1339 435.965 11.8694 435.672 10.6424C434.112 11.0243 432.478 10.9137 430.979 10.3248C429.48 9.73596 428.183 8.69548 427.253 7.33607C437.172 6.4838 447.722 5.75736 456.512 10.617C457.567 12.9749 452.191 14.9367 453.629 17.0633C454.088 17.7416 455.007 17.8212 455.804 17.8366C461.912 17.9546 468.056 18.0704 474.096 17.1102C476.303 16.7593 478.532 16.2639 480.748 16.5484C484.439 17.0224 487.596 19.5866 491.227 20.4226C492.705 20.7629 494.362 20.7745 495.608 19.8794C496.853 18.9844 497.389 16.9463 496.368 15.7828C499.787 12.2938 505.461 13.1586 509.971 14.8289C514.482 16.4992 518.754 19.1929 523.528 19.5652C526.951 19.8322 530.422 18.8735 533.804 19.4829C535.93 19.8658 537.908 20.8504 539.986 21.4553C543.915 22.5994 548.071 22.3579 552.151 22.413C562.56 22.559 572.855 24.6891 582.527 28.6978C583.785 29.1243 584.938 29.8335 585.903 30.7752C586.803 31.7786 587.262 33.3379 586.657 34.5579L576.663 33.0374C577.605 34.9675 580.041 35.2965 582.019 35.9623C583.998 36.6282 586.049 38.903 584.86 40.679C582.716 39.9684 580.774 42.1999 579.691 44.253C578.608 46.3062 577.289 48.7651 575.043 48.8902C573.031 49.0022 570.598 47.2187 569.287 48.8111C571.098 51.1905 572.65 53.7727 573.912 56.5098C575.207 59.3198 576.13 62.8605 574.379 65.3887C574.103 65.84 573.686 66.1774 573.197 66.3428C571.767 66.7197 570.838 64.8983 569.813 63.7944C568.521 62.4032 566.567 62.0092 564.817 61.3567C563.067 60.7043 561.223 59.4208 561.086 57.4907C561.001 56.2899 561.61 55.1736 562.059 54.0637C562.813 52.193 563.142 50.1665 563.022 48.1416C562.924 46.5125 562.485 44.818 561.362 43.6798C560.238 42.5415 558.298 42.1805 557.092 43.2229C556.529 43.7094 556.078 44.4874 555.347 44.5165C554.056 44.568 553.064 42.2236 552.025 43.0239C552.147 43.8766 551.977 44.7468 551.545 45.4823C548.445 48.2901 543.682 47.1022 539.685 48.0941C537.784 48.6605 535.964 49.488 534.273 50.5548C533.641 50.8364 533.103 51.3068 532.727 51.9066C532.228 52.9162 532.778 54.2092 533.657 54.8805C534.59 55.4761 535.638 55.8486 536.726 55.971C541.599 56.932 546.543 58.4196 550.39 61.6787C554.237 64.9378 556.76 70.3252 555.543 75.3314L545.933 65.7702C546.298 69.7847 546.505 73.8103 546.554 77.8469C546.616 78.6351 546.512 79.4279 546.25 80.1698C545.565 81.7454 543.708 82.2756 542.081 82.6234C541.628 82.7129 541.199 82.9011 540.821 83.1757C540.443 83.4502 540.126 83.8048 539.889 84.2163C539.652 84.6277 539.502 85.0867 539.447 85.563C539.393 86.0393 539.436 86.5221 539.574 86.9799C540.152 88.9419 541.593 90.4716 542.913 91.9958C544.233 93.52 545.532 95.2523 545.705 97.2967C545.877 99.341 544.396 101.645 542.43 101.503C540.939 101.395 539.833 100.006 539.198 98.5982C538.562 97.1903 538.184 95.6219 537.228 94.4256C534.337 90.8048 527.843 92.3561 525.252 88.496C524.592 89.2759 524.134 90.2185 523.922 91.2344C523.71 92.2502 523.751 93.3057 524.041 94.3005C525.246 93.515 526.896 94.2448 527.801 95.3861C528.706 96.5274 529.134 97.9906 529.845 99.2725C530.804 101.002 532.331 102.536 532.465 104.528C532.429 105.282 532.441 106.037 532.501 106.789C532.739 107.996 533.719 108.863 534.399 109.872C535.98 112.22 535.902 115.446 534.883 118.11C533.864 120.775 532.033 123.001 530.219 125.159C527.052 128.929 523.819 132.677 520.064 135.808C518.993 136.701 517.849 137.58 517.182 138.829C516.515 140.078 516.48 141.831 517.506 142.781C516.772 142.819 515.456 143.195 514.722 143.233C514.464 140.168 514.408 137.088 514.554 134.015C511.659 132.568 508.541 136.445 508.915 139.767C509.288 143.089 511.596 145.755 513.239 148.629C514.44 150.731 515.333 153.181 514.932 155.591C514.531 158.001 512.465 160.225 510.125 160.012C506.402 159.674 504.845 154.11 501.159 153.473C500.834 153.394 500.493 153.429 500.189 153.573C499.642 153.886 499.547 154.648 499.516 155.298C499.365 158.483 499.235 161.796 500.429 164.733C502.177 169.03 506.69 172.639 505.744 177.2C500.643 174.731 497.991 168.775 496.787 163.054C495.582 157.333 495.382 151.326 493.223 145.918C491.584 148.105 488.139 146.297 486.642 144.002C485.222 141.827 484.348 139.31 482.97 137.105C481.593 134.9 479.483 132.926 476.959 132.805C474.314 132.678 472.019 134.568 470.001 136.354C468.342 137.823 466.638 139.35 465.668 141.38C464.257 144.335 464.626 147.818 464.558 151.117C464.485 154.683 463.759 158.447 461.424 161.058C459.09 163.669 454.78 164.578 452.205 162.225C450.861 160.996 450.21 159.161 449.63 157.399C446.835 148.906 444.508 140.254 442.659 131.485C442.226 133.486 440.538 136.066 438.926 134.887C438.564 134.57 438.271 134.177 438.066 133.733C435.058 128.425 429.488 125.242 423.861 123.333C418.233 121.424 412.312 120.533 406.747 118.435C403.628 117.259 400.649 115.714 397.869 113.831C397.16 114.915 396.746 116.179 396.671 117.488C396.596 118.797 396.862 120.103 397.442 121.268C398.677 123.544 401.47 124.86 403.862 124.065C405.097 123.654 406.141 122.761 407.367 122.319C408.593 121.878 410.239 122.095 410.775 123.325C411.288 124.502 410.513 125.927 410.897 127.156C411.483 129.028 414.195 129.172 415.144 130.876C415.849 132.144 415.269 133.827 414.261 134.85C413.254 135.873 411.91 136.434 410.68 137.146C406.69 139.457 403.852 143.401 400.365 146.469C396.878 149.538 391.957 151.778 387.801 149.81C388.792 144.586 382.817 140.752 381.717 135.552C381.355 133.841 381.543 132.023 381.026 130.355C380.279 127.94 378.221 126.28 376.533 124.45C374.486 122.206 372.891 119.558 371.843 116.662C370.794 113.767 370.313 110.681 370.428 107.589C370.52 105.44 370.899 103.256 370.429 101.162C369.958 99.0669 368.293 97.0396 366.229 97.1345C361.515 97.3513 355.577 97.7164 353.104 93.5324C352.221 92.0391 351.837 89.852 353.113 88.7079C354.014 87.9009 355.342 87.9769 356.525 88.098L367.146 89.1859C369.63 89.4403 372.315 89.6503 374.446 88.2981C376.578 86.9459 377.502 83.3566 375.528 81.7658C374.086 80.6034 371.502 80.6664 371.083 78.8183C370.733 77.2791 372.37 75.5327 371.486 74.2464C370.852 73.324 369.428 73.5799 368.565 74.2713C367.701 74.9627 367.075 75.9739 366.109 76.4974C364.414 77.4158 362.389 76.5418 360.566 75.9478C358.742 75.3537 356.298 75.3033 355.414 77.0666C354.425 79.0387 356.291 81.6227 355.309 83.5988C354.012 86.2115 349.617 84.7242 347.794 86.9715C345.703 89.5502 349.217 93.3954 348.512 96.6898C347.611 97.1541 346.611 97.3674 345.607 97.3087C344.604 97.25 343.633 96.9214 342.788 96.3549C341.957 95.7664 341.295 94.9544 340.872 94.0053C340.449 93.0562 340.28 92.0054 340.385 90.9647C340.56 89.4827 341.302 87.9699 340.805 86.5695C340.403 85.4372 339.311 84.7631 338.296 84.1792L327.975 78.2407C327.017 80.0916 328.228 82.3862 329.743 83.7764C331.258 85.1666 333.156 86.2136 334.151 88.0432C334.781 89.3108 334.922 90.7808 334.546 92.1531C334.17 93.5254 333.305 94.6964 332.127 95.427C331.98 95.533 331.812 95.6045 331.635 95.6366C331.459 95.6687 331.278 95.6606 331.104 95.6128C330.94 95.512 330.796 95.3779 330.682 95.2183C330.568 95.0588 330.486 94.877 330.441 94.6838C328.62 89.8314 325.886 85.0472 321.514 82.5124C317.143 79.9776 310.862 80.4987 307.996 84.7687C307.315 85.783 306.858 86.939 306.265 88.0113C303.114 93.7081 296.359 96.4058 290.047 96.2296C289.43 96.2652 288.816 96.1149 288.278 95.7967C287.258 95.0632 287.304 93.5066 287.46 92.2261L288.123 86.7919C288.256 85.7007 288.448 84.4946 289.278 83.8134C290.447 82.8532 292.134 83.4591 293.623 83.4368C294.751 83.3818 295.835 82.967 296.729 82.2486C297.623 81.5301 298.284 80.5428 298.621 79.4205C298.922 78.2871 298.92 77.0897 298.615 75.9574C298.311 74.8251 297.715 73.8007 296.893 72.9947C296.211 72.3273 295.295 71.4889 295.655 70.5891C295.799 70.3402 295.993 70.1272 296.225 69.9649C296.456 69.8027 296.719 69.6952 296.994 69.65C299.669 68.8413 302.495 68.6293 305.125 67.675C307.755 66.7208 310.306 64.7684 310.929 61.9419C311.12 61.0757 311.206 60.0263 311.954 59.5969C312.329 59.4321 312.731 59.3464 313.138 59.3449C314.564 59.1337 315.862 58.3743 316.778 57.2163C317.693 56.0583 318.158 54.5855 318.083 53.0879C319.343 52.1709 321.109 52.8455 322.328 53.8209C323.548 54.7962 324.624 56.0849 326.108 56.5054C328.873 57.289 331.545 54.7398 334.411 54.728C335.616 54.7231 336.863 55.1667 337.997 54.7413C339.146 54.31 339.833 53.1188 340.715 52.2387C341.597 51.3586 343.145 50.8218 343.959 51.7699L343.266 46.4205C344.662 46.7879 346.119 46.8399 347.536 46.573C348.954 46.3061 350.301 45.7265 351.485 44.8731L342.521 41.7193C342.209 41.6382 341.921 41.4779 341.683 41.2527C341.031 40.522 341.679 39.3833 342.209 38.5527C343.476 36.5656 343.689 33.2924 341.604 32.3031C340.181 31.6278 338.548 32.4384 337.182 33.2314L330.639 37.0299C330.431 38.3249 331.952 39.0587 332.895 39.931C333.465 40.4587 333.868 41.1537 334.052 41.9246C334.236 42.6955 334.192 43.5063 333.925 44.2505C333.658 44.9947 333.182 45.6375 332.558 46.0945C331.934 46.5514 331.192 46.8012 330.429 46.8109C330.86 47.3942 331.159 48.0708 331.305 48.7908C331.45 49.5108 331.438 50.2557 331.27 50.9704L326.868 51.3001C326.374 51.4036 325.861 51.2992 325.44 51.0099C324.97 50.5745 325.033 49.8115 324.924 49.1658C324.661 47.6072 323.195 46.5148 321.699 46.2348C320.204 45.9547 318.673 46.3137 317.192 46.6682C316.563 46.9039 315.872 46.8872 315.255 46.6216C314.9 46.382 314.631 46.0282 314.488 45.6142C313.839 43.9748 314.446 42.0477 315.489 40.6457C316.532 39.2437 317.959 38.2187 319.242 37.0515C322.308 34.2501 324.561 30.6116 325.746 26.547C328.169 25.4898 330.678 24.0534 333.101 22.9961C336.838 21.0265 341.027 20.1813 345.2 20.5554L353.406 20.7186C355.836 20.767 358.332 20.8289 360.579 21.7934C362.825 22.7579 364.8 24.8441 364.955 27.3694C365.001 27.6553 364.978 27.9488 364.886 28.2226C364.794 28.4963 364.636 28.7412 364.428 28.9342C364.111 29.1145 363.752 29.1989 363.391 29.1777C361.125 29.2607 360.159 29.8486 357.893 29.9314Z" fill="#00262E"/>
<path d="M292.477 56.7133C292.798 56.3973 293.029 55.9953 293.144 55.5517C293.26 55.108 293.256 54.6398 293.132 54.1984C292.352 53.8849 291.503 53.8044 290.682 53.966C289.86 54.1276 289.098 54.5248 288.481 55.1129C287.995 55.625 287.576 56.2018 287.235 56.8282C286.157 58.6602 285.203 60.8485 285.828 62.8963C285.879 63.1197 285.972 63.3301 286.102 63.5154C286.232 63.7007 286.396 63.8571 286.585 63.9754C286.865 64.0924 287.167 64.1417 287.468 64.1194C288.656 64.1178 289.843 64.0417 291.023 63.8916C291.747 63.7994 292.588 63.5865 292.868 62.885C293.236 61.9628 292.345 60.9191 292.605 59.9578C292.776 59.5279 293.034 59.142 293.363 58.827C293.526 58.6684 293.652 58.4724 293.729 58.2545C293.807 58.0367 293.835 57.8029 293.81 57.572C293.706 57.1209 293.042 56.865 292.803 57.2569" fill="#00262E"/>
<path d="M298.636 48.3978C297.58 48.1455 296.492 48.0744 295.415 48.1873C295.177 48.1799 294.94 48.2357 294.729 48.3496C294.523 48.5072 294.375 48.7316 294.306 48.9873C294.078 49.7478 294.134 50.5696 294.462 51.2891C294.791 52.0086 295.367 52.5729 296.077 52.8696C296.464 52.9623 296.835 53.1173 297.176 53.3293C298.086 54.0651 297.506 55.5693 297.678 56.7563C297.872 58.0891 299.111 59.2079 298.884 60.535C298.705 61.5805 297.632 62.4084 297.805 63.4551C297.986 64.5513 299.322 64.8807 300.387 64.9685C301.004 65.0811 301.639 65.0053 302.216 64.7503C302.794 64.3387 303.205 63.7187 303.37 63.01C303.806 61.6588 303.989 60.2331 303.91 58.8101C303.905 58.1628 303.749 57.5265 303.455 56.9563C303.134 56.5045 302.779 56.0807 302.392 55.689C300.352 53.2178 302.5 49.5318 298.636 48.3978Z" fill="#00262E"/>
<path opacity="0.8" d="M566.936 241.98C566.936 241.98 410.669 148.581 343.394 166.277C343.394 166.277 200.819 182.254 184.295 217.401C184.295 217.401 138.973 69.9285 122.449 65.0127" stroke="white" stroke-width="0.887024" stroke-miterlimit="10"/>
<path opacity="0.8" d="M184.295 217.401C210.497 144.648 446.55 64.0298 446.55 64.0298C413.03 72.8781 343.394 166.278 343.394 166.278C343.394 166.278 196.098 54.6898 122.449 65.0129C122.449 65.0129 446.786 76.0734 566.936 241.98" stroke="white" stroke-width="0.887024" stroke-miterlimit="10"/>
<path d="M122.451 72.1405C126.232 72.1405 129.297 68.9492 129.297 65.0126C129.297 61.076 126.232 57.8848 122.451 57.8848C118.67 57.8848 115.605 61.076 115.605 65.0126C115.605 68.9492 118.67 72.1405 122.451 72.1405Z" fill="white"/>
<path d="M184.291 224.529C188.072 224.529 191.136 221.337 191.136 217.401C191.136 213.464 188.072 210.273 184.291 210.273C180.51 210.273 177.445 213.464 177.445 217.401C177.445 221.337 180.51 224.529 184.291 224.529Z" fill="white"/>
<path d="M446.545 71.1571C450.325 71.1571 453.39 67.9658 453.39 64.0292C453.39 60.0926 450.325 56.9014 446.545 56.9014C442.764 56.9014 439.699 60.0926 439.699 64.0292C439.699 67.9658 442.764 71.1571 446.545 71.1571Z" fill="white"/>
<path d="M566.935 249.108C570.716 249.108 573.781 245.917 573.781 241.98C573.781 238.043 570.716 234.852 566.935 234.852C563.155 234.852 560.09 238.043 560.09 241.98C560.09 245.917 563.155 249.108 566.935 249.108Z" fill="white"/>
<path d="M343.392 173.405C347.173 173.405 350.238 170.213 350.238 166.277C350.238 162.34 347.173 159.149 343.392 159.149C339.612 159.149 336.547 162.34 336.547 166.277C336.547 170.213 339.612 173.405 343.392 173.405Z" fill="white"/>
</g>
</svg>
