<svg width="200" height="33" viewBox="0 0 200 33" fill="none" xmlns="http://www.w3.org/2000/svg">
<path d="M13.9294 15.7109L7.88602 19.7115C7.74997 19.8022 7.57448 19.8022 7.43843 19.7115L1.39897 15.7109C1.21165 15.5866 1.16039 15.3342 1.28461 15.1469C1.31418 15.1016 1.35362 15.0641 1.39897 15.0326L7.4404 11.0319C7.57646 10.9412 7.75194 10.9412 7.88799 11.0319L13.9314 15.0326C14.1187 15.1568 14.17 15.4092 14.0458 15.5965C14.0162 15.6418 13.9767 15.6793 13.9314 15.7109H13.9294Z" fill="#41A36E"/>
<path d="M7.70098 24.9998C4.00198 24.9939 1.00492 21.9969 1.00098 18.2979H3.68058C3.70621 20.518 5.52811 22.2966 7.7483 22.2709C9.93102 22.2453 11.6957 20.4806 11.7214 18.2979H14.401C14.397 21.9969 11.398 24.9939 7.699 24.9978L7.70098 24.9998Z" fill="#41A36E"/>
<path d="M30.3175 20.9069L32.5435 21.1822C32.1925 22.4827 31.5422 23.492 30.5927 24.2101C29.6433 24.9282 28.4305 25.2872 26.9544 25.2872C25.0954 25.2872 23.6193 24.7168 22.5262 23.5758C21.4411 22.4269 20.8986 20.8191 20.8986 18.7527C20.8986 16.6144 21.4491 14.9548 22.5502 13.7739C23.6512 12.5931 25.0794 12.0027 26.8348 12.0027C28.5342 12.0027 29.9225 12.5811 30.9996 13.738C32.0768 14.8949 32.6153 16.5226 32.6153 18.621C32.6153 18.7487 32.6114 18.9402 32.6034 19.1955H23.1246C23.2044 20.5918 23.5994 21.6609 24.3095 22.4029C25.0196 23.1449 25.9052 23.516 26.9664 23.516C27.7563 23.516 28.4305 23.3085 28.989 22.8936C29.5475 22.4787 29.9903 21.8165 30.3175 20.9069ZM23.2443 17.4242H30.3414C30.2457 16.3551 29.9744 15.5532 29.5276 15.0186C28.8414 14.1888 27.9518 13.7739 26.8587 13.7739C25.8693 13.7739 25.0356 14.1051 24.3574 14.7673C23.6871 15.4295 23.3161 16.3152 23.2443 17.4242ZM43.2612 25V23.3963C42.4553 24.6569 41.2705 25.2872 39.7067 25.2872C38.6934 25.2872 37.7599 25.008 36.9061 24.4495C36.0604 23.891 35.4021 23.113 34.9314 22.1157C34.4686 21.1104 34.2373 19.9574 34.2373 18.6569C34.2373 17.3883 34.4487 16.2394 34.8716 15.2101C35.2944 14.1729 35.9287 13.379 36.7745 12.8285C37.6202 12.2779 38.5657 12.0027 39.6109 12.0027C40.3769 12.0027 41.0591 12.1662 41.6575 12.4933C42.2559 12.8125 42.7426 13.2314 43.1176 13.75V7.45479H45.2599V25H43.2612ZM36.4514 18.6569C36.4514 20.2846 36.7944 21.5013 37.4806 22.3072C38.1668 23.113 38.9766 23.516 39.9101 23.516C40.8516 23.516 41.6495 23.133 42.3037 22.367C42.966 21.5931 43.2971 20.4162 43.2971 18.8364C43.2971 17.0971 42.962 15.8205 42.2918 15.0066C41.6216 14.1928 40.7958 13.7859 39.8144 13.7859C38.8569 13.7859 38.0551 14.1769 37.4088 14.9588C36.7705 15.7407 36.4514 16.9734 36.4514 18.6569ZM56.7435 25V23.133C55.7541 24.5691 54.4097 25.2872 52.7102 25.2872C51.9602 25.2872 51.2581 25.1436 50.6039 24.8564C49.9576 24.5691 49.4749 24.2101 49.1557 23.7793C48.8445 23.3404 48.6251 22.8059 48.4975 22.1755C48.4097 21.7527 48.3658 21.0824 48.3658 20.1649V12.2899H50.5201V19.3391C50.5201 20.4641 50.564 21.2221 50.6517 21.613C50.7874 22.1795 51.0746 22.6263 51.5134 22.9535C51.9523 23.2726 52.4948 23.4322 53.1411 23.4322C53.7874 23.4322 54.3937 23.2686 54.9602 22.9415C55.5267 22.6064 55.9257 22.1556 56.157 21.5891C56.3964 21.0146 56.5161 20.1848 56.5161 19.0997V12.2899H58.6703V25H56.7435ZM65.3428 25L60.5077 12.2899H62.7816L65.5103 19.9016C65.8056 20.7234 66.0768 21.5771 66.3242 22.4628C66.5157 21.7926 66.783 20.9867 67.126 20.0452L69.9505 12.2899H72.1646L67.3534 25H65.3428ZM82.1163 23.4322C81.3184 24.1104 80.5485 24.5891 79.8065 24.8684C79.0724 25.1476 78.2825 25.2872 77.4368 25.2872C76.0405 25.2872 74.9674 24.9481 74.2174 24.2699C73.4674 23.5838 73.0924 22.7101 73.0924 21.6489C73.0924 21.0266 73.232 20.4601 73.5112 19.9495C73.7985 19.4309 74.1695 19.016 74.6243 18.7048C75.087 18.3936 75.6057 18.1582 76.1801 17.9987C76.603 17.887 77.2413 17.7793 78.095 17.6755C79.8344 17.4681 81.115 17.2207 81.9368 16.9335C81.9448 16.6383 81.9487 16.4508 81.9487 16.371C81.9487 15.4933 81.7453 14.875 81.3384 14.516C80.7878 14.0293 79.97 13.7859 78.8849 13.7859C77.8716 13.7859 77.1216 13.9654 76.6349 14.3245C76.1562 14.6755 75.8011 15.3019 75.5698 16.2035L73.4634 15.9162C73.6549 15.0146 73.97 14.2886 74.4089 13.738C74.8477 13.1795 75.482 12.7527 76.3118 12.4574C77.1416 12.1543 78.103 12.0027 79.1961 12.0027C80.2812 12.0027 81.1628 12.1303 81.841 12.3856C82.5192 12.641 83.0179 12.9641 83.337 13.3551C83.6562 13.738 83.8796 14.2247 84.0073 14.8152C84.0791 15.1822 84.115 15.8444 84.115 16.8019V19.6742C84.115 21.6769 84.1589 22.9455 84.2466 23.4801C84.3424 24.0066 84.5259 24.5133 84.7972 25H82.5472C82.3237 24.5532 82.1801 24.0306 82.1163 23.4322ZM81.9368 18.621C81.1549 18.9402 79.982 19.2114 78.4182 19.4348C77.5325 19.5625 76.9062 19.7061 76.5392 19.8657C76.1722 20.0253 75.8889 20.2606 75.6894 20.5718C75.49 20.875 75.3902 21.2141 75.3902 21.5891C75.3902 22.1636 75.6057 22.6423 76.0365 23.0253C76.4753 23.4082 77.1136 23.5997 77.9514 23.5997C78.7812 23.5997 79.5192 23.4202 80.1655 23.0612C80.8118 22.6941 81.2865 22.1955 81.5897 21.5652C81.8211 21.0785 81.9368 20.3604 81.9368 19.4109V18.621ZM95.5148 20.3444L97.6332 20.6197C97.4018 22.0798 96.8074 23.2247 95.8499 24.0545C94.9005 24.8763 93.7316 25.2872 92.3433 25.2872C90.6039 25.2872 89.2036 24.7207 88.1425 23.5878C87.0893 22.4468 86.5627 20.8152 86.5627 18.6928C86.5627 17.3205 86.7901 16.1197 87.2449 15.0904C87.6997 14.0612 88.3898 13.2912 89.3153 12.7806C90.2489 12.262 91.2622 12.0027 92.3552 12.0027C93.7356 12.0027 94.8645 12.3537 95.7422 13.0558C96.6199 13.75 97.1824 14.7394 97.4297 16.0239L95.3353 16.3471C95.1358 15.4933 94.7808 14.8511 94.2701 14.4202C93.7675 13.9894 93.1571 13.7739 92.439 13.7739C91.3539 13.7739 90.4723 14.1649 89.7941 14.9468C89.1159 15.7207 88.7768 16.9495 88.7768 18.633C88.7768 20.3404 89.1039 21.5811 89.7582 22.3551C90.4124 23.129 91.2661 23.516 92.3193 23.516C93.1651 23.516 93.8712 23.2566 94.4377 22.738C95.0042 22.2194 95.3632 21.4215 95.5148 20.3444ZM99.2431 9.93218V7.45479H101.397V9.93218H99.2431ZM99.2431 25V12.2899H101.397V25H99.2431ZM109.147 23.0731L109.458 24.9761C108.852 25.1037 108.309 25.1676 107.83 25.1676C107.049 25.1676 106.442 25.0439 106.011 24.7965C105.58 24.5492 105.277 24.2261 105.102 23.8271C104.926 23.4202 104.838 22.5705 104.838 21.2779V13.9654H103.259V12.2899H104.838V9.14229L106.981 7.84973V12.2899H109.147V13.9654H106.981V21.3976C106.981 22.012 107.017 22.4069 107.088 22.5824C107.168 22.758 107.292 22.8976 107.459 23.0013C107.635 23.1051 107.882 23.1569 108.201 23.1569C108.441 23.1569 108.756 23.129 109.147 23.0731ZM110.924 29.8949L110.685 27.8723C111.156 28 111.567 28.0638 111.918 28.0638C112.397 28.0638 112.779 27.984 113.067 27.8245C113.354 27.6649 113.589 27.4415 113.773 27.1543C113.908 26.9388 114.128 26.4043 114.431 25.5505C114.471 25.4309 114.535 25.2553 114.623 25.0239L109.799 12.2899H112.121L114.766 19.6503C115.109 20.5838 115.416 21.5652 115.688 22.5944C115.935 21.6051 116.23 20.6396 116.573 19.6981L119.29 12.2899H121.444L116.609 25.2154C116.091 26.6117 115.688 27.5731 115.401 28.0997C115.018 28.8098 114.579 29.3285 114.084 29.6556C113.589 29.9907 112.999 30.1582 112.313 30.1582C111.898 30.1582 111.435 30.0705 110.924 29.8949Z" fill="#011B23"/>
</svg>
