<?xml version="1.0" encoding="UTF-8"?>
<svg id="Layer_2" data-name="Layer 2" xmlns="http://www.w3.org/2000/svg" viewBox="0 0 67.97 71.17">
  <defs>
    <style>
      .cls-1 {
        fill: #41a36e;
        stroke-width: 0px;
      }
    </style>
  </defs>
  <g id="Layer_1-2" data-name="Layer 1">
    <g>
      <path class="cls-1" d="M65.57,24.06l-30.65,20.29c-.69.46-1.58.46-2.27,0L2.02,24.06c-.95-.63-1.21-1.91-.58-2.86.15-.23.35-.42.58-.58L32.66.34c.69-.46,1.58-.46,2.27,0l30.65,20.29c.95.63,1.21,1.91.58,2.86-.15.23-.35.42-.58.58Z"/>
      <path class="cls-1" d="M33.98,71.17C15.22,71.15.02,55.94,0,37.19h13.59c.13,11.26,9.37,20.28,20.63,20.15,11.07-.13,20.02-9.08,20.15-20.15h13.59c-.02,18.76-15.23,33.96-33.99,33.98Z"/>
    </g>
  </g>
</svg>