<svg width="593" height="401" viewBox="0 0 593 401" fill="none" xmlns="http://www.w3.org/2000/svg">
<g opacity="0.5">
<path d="M177.163 28.4271C176.949 26.6682 176.517 24.9456 175.877 23.3025C175.796 22.9918 175.653 22.7022 175.458 22.4521C175.263 22.202 175.02 21.997 174.745 21.85C174.377 21.7504 173.991 21.7459 173.621 21.8369L167.851 22.7562C167.368 22.7792 166.906 22.9662 166.535 23.2888C165.783 24.1117 166.523 25.4368 166.5 26.572C166.474 27.8487 165.385 28.8849 164.204 29.2277C162.998 29.4814 161.754 29.4653 160.555 29.1806L152.487 27.8751C154.863 27.0853 156.978 25.6157 158.59 23.6342C159.652 22.3246 160.217 19.8796 158.682 19.2594C158.226 19.1292 157.751 19.0894 157.281 19.1423C153.626 19.1719 150.749 15.9941 147.327 14.6557C145.137 13.8545 142.76 13.7949 140.535 14.4854C138.31 15.1759 136.353 16.5812 134.941 18.5004L139.239 18.7161C139.643 18.6929 140.044 18.8042 140.384 19.034C141.326 19.8398 140.155 21.3875 140.287 22.6493C140.46 24.2886 142.55 24.6386 144.126 24.8044C145.702 24.9702 147.701 26.3033 146.943 27.7512C139.023 30.5918 130.963 22.1986 122.646 23.2318C120.54 23.4933 118.553 24.3544 116.497 24.8959C103.942 28.2036 90.9616 19.3782 78.1355 21.2473C75.2841 21.7534 72.4816 22.523 69.7614 23.5469C68.0157 24.1437 66.1949 24.7887 64.9265 26.1728C63.6581 27.5569 63.1754 29.924 64.377 31.3713C61.0651 31.6553 57.7311 31.3253 54.5299 30.3967C55.3955 30.8977 56.1157 31.6322 56.6147 32.5229C57.1138 33.4137 57.3733 34.428 57.3661 35.4592C52.195 36.3372 47.1608 37.9355 42.3989 40.2112C43.2876 41.75 44.3257 43.1899 45.4967 44.5081L38.9502 48.8873C41.1619 49.4676 42.3055 52.6079 41.0193 54.5691C43.3126 53.5068 44.7339 50.7587 47.1862 50.2015C48.7928 49.8365 50.4275 50.5209 51.9516 51.1637C53.4757 51.8066 55.1509 52.4299 56.7287 51.9475C58.3064 51.465 59.4702 49.3348 58.4676 47.9776C65.2114 45.9288 72.181 44.795 79.2036 44.6043C79.7454 44.5335 80.2948 44.6421 80.774 44.9146C81.6882 45.575 81.4477 47.0014 81.3984 48.1588C81.3492 49.3162 82.2155 50.8373 83.209 50.3156C82.0402 51.3709 83.0393 53.3576 84.1607 54.4673C85.282 55.577 86.6335 57.1083 85.947 58.5518C85.7678 58.9286 85.464 59.23 85.2916 59.6102C84.7827 60.7323 85.5906 62.0406 86.5436 62.7858C87.4966 63.531 88.6639 64.0518 89.3259 65.0837C89.9879 66.1157 89.6873 67.9219 88.5035 68.066L85.1389 63.6179C83.9894 64.859 83.2013 66.4141 82.8661 68.1027C86.434 71.1396 86.9706 77.3211 83.9836 80.9751C82.4572 82.8423 80.2865 83.9769 78.3919 85.4334C76.4973 86.8899 74.7443 88.9639 74.749 91.4159C74.7573 95.6523 74.4248 99.5881 75.9494 103.516C78.7608 110.758 82.0066 117.809 85.6677 124.627C86.6291 126.418 87.8716 128.38 89.8192 128.688C87.3578 122.449 85.1421 116.113 83.172 109.679C84.4551 109.684 85.938 109.791 86.6902 110.873C87.3131 111.769 87.1793 112.988 87.3729 114.076C87.619 115.13 88.0295 116.135 88.588 117.05L100.342 138.851C101.316 140.658 102.434 142.598 104.296 143.33C105.487 143.798 106.864 143.71 107.96 144.384C108.819 144.912 109.398 145.849 110.274 146.347C112.75 147.753 116.193 145.056 118.507 146.735C119.168 147.215 119.589 147.978 120.199 148.527C122.336 150.455 125.842 149.165 128.309 150.603C129.899 151.529 130.723 153.382 131.571 155.061C133.695 159.267 137.132 163.388 141.685 163.723C143.115 163.828 144.576 163.546 145.974 163.877C147.371 164.208 148.748 165.478 148.523 166.953C148.138 169.48 149.338 172.248 149.016 174.785C148.429 179.407 142.134 181.437 141.593 186.065C141.474 187.078 141.66 188.124 141.428 189.115C141.144 190.331 140.267 191.321 139.956 192.529C139.366 194.818 140.941 197.097 142.671 198.637C144.402 200.177 146.466 201.506 147.413 203.662C148.413 205.941 147.921 208.598 148.247 211.081C148.957 216.501 153.453 220.519 158.079 223.109C159.489 223.899 161.003 224.663 161.915 226.032C163.106 227.82 162.988 230.176 163.385 232.311C164.359 237.541 168.588 241.851 168.708 247.177C168.793 250.962 166.772 254.397 165.565 257.968C164.433 261.391 164.023 265.027 164.364 268.629C164.705 272.231 165.787 275.714 167.539 278.841C168.442 280.428 169.522 281.925 170.161 283.647C171.301 286.718 170.931 290.21 171.982 293.316C173.372 297.422 177.19 300.814 176.825 305.151C178.558 308.9 182.386 310.741 186.236 311.857L193.135 313.857C194.456 314.24 195.836 314.626 197.181 314.348C198.526 314.071 199.81 312.908 199.775 311.481C196.392 310.686 192.901 309.842 190.112 307.695C187.323 305.548 185.412 301.726 186.471 298.287C186.961 296.692 188.005 294.851 187.013 293.533C186.444 292.779 185.405 292.581 184.764 291.893C183.765 290.819 184.108 289.016 184.827 287.721C185.546 286.427 186.584 285.27 186.874 283.805C187.021 282.986 186.923 282.139 186.594 281.379C186.265 280.62 185.721 279.983 185.035 279.554C186.314 279.051 187.477 278.274 188.45 277.272C189.348 276.205 189.762 274.558 189.056 273.345C191.154 273.622 193.63 273.757 195.007 272.086C196.107 270.752 196.032 268.757 195.597 267.058C195.163 265.359 194.428 263.709 194.405 261.951C199.244 262.19 204.094 262.019 208.907 261.439C208.211 258.999 206.629 256.936 204.498 255.69C206.677 255.306 208.663 252.589 209.352 250.401C210.04 248.214 209.865 245.832 209.439 243.573C209.276 242.991 209.253 242.377 209.374 241.784C209.619 240.97 210.388 240.473 211.099 240.048L221.917 233.578C222.563 233.241 223.148 232.791 223.647 232.248C224.781 230.862 224.613 228.769 224.033 227.052C223.452 225.334 222.523 223.719 222.299 221.913C221.63 216.513 227.182 212.638 229.056 207.555C229.791 205.56 229.941 203.391 230.084 201.259C230.236 198.97 230.248 196.311 228.559 194.835C226.941 193.421 224.412 193.736 222.719 192.421C221.166 191.215 220.63 188.872 218.934 187.898C217.394 187.013 215.463 187.576 213.749 187.16C210.733 186.427 208.835 182.807 205.754 182.472C204.016 182.283 202.049 183.168 200.624 182.114C199.369 181.185 199.318 179.318 199.08 177.734C198.661 175.272 197.528 173.003 195.832 171.233C194.137 169.462 191.962 168.275 189.599 167.831C187.807 167.532 185.856 167.645 184.332 166.62C182.788 165.581 182.08 163.637 180.867 162.199C178.913 159.882 175.835 159.058 172.951 158.352L161.222 155.481C159.14 154.972 156.457 154.702 155.339 156.601C155.009 157.324 154.774 158.09 154.643 158.88C154.225 160.307 153.382 161.56 152.237 162.458C151.091 163.355 149.702 163.852 148.269 163.875C147.286 162.13 145.693 160.847 143.824 160.294C142.634 159.949 141.361 159.911 140.227 159.403C139.609 159.089 139.06 158.647 138.612 158.104C138.164 157.561 137.827 156.929 137.621 156.246C137.416 155.563 137.347 154.843 137.418 154.131C137.489 153.419 137.699 152.73 138.035 152.106C138.711 150.852 138.972 149.401 138.778 147.978C138.584 146.554 137.945 145.237 136.96 144.229C134.966 142.364 132.08 141.914 129.406 142.101C128.705 140.509 129.877 138.713 131.139 137.557C132.401 136.4 133.933 135.263 134.208 133.536C134.641 130.82 131.312 128.756 128.784 129.566C126.256 130.376 124.643 132.933 123.577 135.453C122.965 136.898 122.444 138.421 121.479 139.64C120.514 140.859 118.96 141.732 117.49 141.341C115.408 140.787 114.605 138.212 114.144 136.028C113.526 133.096 112.904 130.124 113.034 127.126C113.163 124.128 114.134 121.05 116.257 119.02C119.717 115.713 125.024 116.037 129.694 116.565C128.591 115.271 128.863 113.09 130.044 111.871C130.667 111.295 131.415 110.885 132.225 110.678C133.034 110.471 133.88 110.473 134.689 110.683C136.096 110.988 137.363 111.777 138.287 112.923C139.614 114.608 139.991 116.882 140.994 118.794C141.997 120.706 144.252 122.337 146.098 121.311C147.692 120.425 147.945 118.123 147.549 116.287C147.152 114.452 146.309 112.666 146.453 110.791C146.727 107.212 150.29 105.057 153.435 103.583C156.579 102.109 160.18 100.127 160.678 96.5737C160.695 95.8781 160.821 95.19 161.051 94.5367C161.399 93.9597 161.884 93.4851 162.459 93.1582C171.636 86.8434 180.965 80.4515 191.454 77.001C191.999 76.8214 192.064 77.021 192.62 76.8803C193.398 76.4119 192.882 75.1162 192.136 74.5942C191.39 74.0723 190.392 73.672 190.203 72.7569C190.064 72.0843 190.445 71.4238 190.543 70.7435C190.786 69.0717 188.866 67.5282 187.374 68.1965C186.531 67.0347 188.199 65.6847 189.547 65.2983C193.595 64.1383 197.75 63.4315 201.942 63.1899C202.425 63.1098 202.921 63.1976 203.352 63.4397C204.056 63.9475 203.966 65.1123 203.467 65.8371C202.968 66.562 202.192 67.0171 201.57 67.6304C200.891 68.3195 200.406 69.1897 200.17 70.146C199.933 71.1022 199.953 72.1079 200.227 73.0531C202.416 74.2122 204.795 75.4054 207.219 74.9971C209.642 74.5887 211.794 71.7531 210.654 69.4885C209.594 67.3795 206.407 66.9039 205.859 64.5925C205.217 61.8864 208.896 59.4795 208.067 56.8291C207.704 55.6681 206.593 54.9848 205.741 54.1466C204.734 53.1189 204.049 51.7981 203.776 50.3577C203.503 48.9173 203.654 47.4246 204.211 46.0756C202.822 46.3301 201.395 46.234 200.049 45.7954C198.703 45.3569 197.478 44.5888 196.476 43.5554C194.626 41.6113 193.15 38.5445 190.523 38.6315C188.112 38.7113 186.036 41.6399 183.781 40.7464C183.227 40.5266 182.642 40.0792 182.105 40.3414C181.929 40.4604 181.781 40.6196 181.672 40.8069C181.564 40.9941 181.498 41.2046 181.479 41.4223C180.906 44.2742 181.892 47.5235 180.399 49.9878C178.775 52.6695 175.017 53.0413 173.048 55.4595C171.979 56.7722 171.565 58.541 170.582 59.9249C169.6 61.3089 167.514 62.1888 166.335 60.9827C166.915 59.7422 167.073 58.3337 166.784 56.9873C166.495 55.641 165.776 54.4365 164.745 53.5708C163.65 52.8271 162.47 52.2294 161.232 51.7917C159.849 51.1821 158.533 50.4186 157.308 49.5144C156.694 49.1289 156.195 48.5732 155.867 47.9094C155.608 47.0783 155.643 46.1779 155.966 45.3712C156.564 43.5862 157.619 42.0052 159.016 40.7988C160.414 39.5924 162.102 38.8065 163.898 38.5259C165.468 38.3035 167.295 38.3819 168.334 37.1363C168.884 36.4772 169.172 35.4808 169.97 35.2131C170.481 35.1063 171.01 35.1743 171.481 35.4068L177.341 37.5545C177.995 37.8619 178.714 37.9858 179.429 37.914C179.783 37.8644 180.106 37.6771 180.333 37.3899C180.56 37.1026 180.674 36.7366 180.652 36.3653C180.465 35.352 178.968 34.8657 179.104 33.8436C179.18 33.5124 179.351 33.2131 179.594 32.9852C181.709 30.6414 184.296 28.8135 187.168 27.6322C190.041 26.451 193.129 25.9458 196.211 26.1526C196.951 27.4175 195.781 28.9153 194.808 29.9951C193.834 31.0749 193.052 33.0043 194.229 33.8354C194.712 34.0918 195.248 34.2176 195.79 34.2013C197.232 34.4047 198.635 34.8475 199.943 35.513C201.968 36.4306 203.954 37.4346 205.901 38.5249C205.729 37.188 205.565 35.7796 206.052 34.5296C206.538 33.2796 207.922 32.2991 209.13 32.7859C210.294 33.2551 210.891 34.8603 212.131 35.0074C213.786 35.2035 214.439 32.6583 213.748 31.0807C213.057 29.503 211.688 28.182 211.574 26.4521C211.497 25.285 211.924 23.8376 211.028 23.1309C210.71 22.9187 210.348 22.7867 209.972 22.7452L187.617 18.4618C186.289 18.2074 184.371 18.4024 184.312 19.8065C184.279 20.5903 184.952 21.3656 184.654 22.0863C184.336 22.8554 183.292 22.7851 182.531 23.0571C181.351 23.4792 180.759 24.9382 180.873 26.232C181.08 27.5176 181.558 28.7395 182.273 29.8099C180.819 29.1767 178.617 29.0603 177.163 28.4271Z" fill="#00262E"/>
<path d="M159.325 8.66683C157.915 8.18107 156.396 8.15845 154.974 8.60202C153.551 9.04559 152.294 9.93391 151.373 11.1465C151.005 11.6512 150.696 12.3468 151.004 12.8933C151.446 13.6767 152.571 13.3673 153.401 13.087C154.621 12.6332 155.949 12.6002 157.188 12.993C157.968 13.2716 158.665 13.764 159.448 14.032C159.829 14.198 160.246 14.2528 160.655 14.1906C161.063 14.1284 161.448 13.9516 161.767 13.6791C162.305 13.1086 162.338 12.2217 162.339 11.4227C162.377 11.1554 162.356 10.8828 162.279 10.6248C162.202 10.3667 162.071 10.1298 161.895 9.93133C161.582 9.74237 161.23 9.63394 160.868 9.61503C160.058 9.45894 159.326 9.01348 158.798 8.35548" fill="#00262E"/>
<path d="M167.384 6.33096C167.069 6.31307 166.754 6.37999 166.471 6.52529C166.187 6.67059 165.944 6.88939 165.766 7.16063C165.587 7.43187 165.478 7.74644 165.45 8.07409C165.422 8.40174 165.475 8.73145 165.604 9.03152C166.573 9.30664 167.585 9.37536 168.58 9.23356C169.076 9.15334 169.539 8.92196 169.909 8.56857C170.279 8.21518 170.541 7.75562 170.66 7.24778C169.489 7.46974 168.28 7.22935 167.27 6.5735" fill="#00262E"/>
<path d="M194.431 2.42776C191.794 3.01152 189.233 3.91758 186.8 5.12708C187.947 5.58611 188.922 6.41663 189.581 7.49623C190.24 8.57583 190.549 9.84741 190.462 11.1236C190.359 11.6135 190.371 12.1221 190.497 12.6062C190.777 13.3137 191.589 13.5792 192.303 13.7607C193.586 14.1673 194.925 14.3453 196.265 14.2873C196.935 14.2508 197.586 14.0409 198.159 13.6765C198.732 13.3121 199.208 12.8049 199.545 12.2005C199.739 11.627 199.967 11.0664 200.227 10.5219C201.938 7.80779 207.023 11.0895 208.86 8.46633C209.508 7.54227 209.448 6.15133 210.292 5.41911C210.729 5.10009 211.235 4.89909 211.764 4.83418C215.46 4.06972 219.192 3.51617 222.946 3.17603C224.724 3.01488 227.042 2.34996 227.057 0.491274C220.358 -0.878562 213.413 0.0943494 207.3 3.25875C205.097 4.40735 202.185 6.82345 200.063 5.30069C199.269 4.73055 199.308 3.19528 198.215 2.55416C197.097 1.8987 195.618 2.16529 194.431 2.42776Z" fill="#00262E"/>
<path d="M216.339 6.69249L219.483 7.3216C218.905 7.29491 218.327 7.39705 217.789 7.62121C217.251 7.84537 216.765 8.18639 216.364 8.62152C215.963 9.05666 215.655 9.5759 215.462 10.1446C215.269 10.7133 215.194 11.3184 215.243 11.9195C218.188 12.9438 221.398 11.947 224.5 12.0832C227.602 12.2193 231.211 14.5264 230.681 17.7117C230.521 18.6748 229.987 19.6373 230.265 20.5709C230.459 21.2253 231.014 21.6896 231.327 22.2923C231.979 23.5482 231.457 25.1367 230.634 26.2784C229.811 27.42 228.705 28.3309 227.982 29.5441C226.185 32.5617 227.206 36.4627 228.277 39.8338C228.586 41.1076 229.158 42.2961 229.952 43.3172C231.538 45.0731 234.122 45.2258 236.437 45.261C238.122 45.2866 240.052 45.1999 241.117 43.8408C242.508 42.0663 241.536 39.2978 242.451 37.2152C243.283 35.3238 245.402 34.5124 247.322 33.9369C250.839 32.8826 254.424 31.9863 257.749 30.3937C261.878 28.4162 265.736 25.3345 270.275 25.08C271.548 25.0086 272.853 25.165 274.079 24.8018C275.305 24.4386 276.47 23.3345 276.378 22.0104C276.298 20.8791 275.379 20.0483 274.661 19.1955C273.942 18.3426 273.378 17.0311 274.038 16.1288L285.934 13.8153C285.091 11.4226 284.434 8.27143 286.371 6.714C287.07 6.15207 288.006 5.92748 288.602 5.24814C289.616 4.09028 289.106 2.09576 287.935 1.11107C286.764 0.12638 285.18 -0.10221 283.68 -0.23195C278.465 -0.68299 273.219 -0.384952 267.993 -0.0866828C257.777 0.496368 247.562 1.07942 237.346 1.66247C235.29 1.77984 232.915 1.60053 231.029 2.33106C229.432 2.94952 228.297 4.08477 226.471 4.48363C223.1 5.21997 219.39 4.7217 216.339 6.69249Z" fill="#00262E"/>
<path d="M272.671 32.5734C272.351 32.5206 272.023 32.598 271.756 32.7896C271.579 32.9921 271.474 33.2513 271.458 33.5244C271.255 34.7298 271.497 35.9704 272.135 36.998C272.46 37.5021 272.909 37.9064 273.434 38.1689C273.96 38.4314 274.544 38.5425 275.125 38.4908C276.541 38.3028 277.584 37.0451 278.886 36.4313C280.892 35.4863 289.412 34.013 283.519 30.6976C281.487 29.555 280.175 30.5637 278.574 31.3161C276.753 32.2863 274.712 32.721 272.671 32.5734Z" fill="#00262E"/>
<path d="M324.291 4.82144C323.603 5.1142 323.027 5.636 322.654 6.30539C322.482 6.64528 322.442 7.04102 322.543 7.41073C322.643 7.78044 322.876 8.09582 323.193 8.29162C323.45 8.38867 323.723 8.43367 323.996 8.42422L326.794 8.51127C327.983 8.54825 329.468 8.81186 329.787 10.0047C330.025 10.8904 329.494 12.0285 330.134 12.6615C330.409 12.8831 330.74 13.0174 331.086 13.048C332.008 13.2946 332.971 13.3269 333.906 13.1428C335.942 12.5742 334.872 11.2803 335.513 10.1282C336.494 8.36535 336.324 9.43246 338.053 8.42216C339.33 7.67604 340.98 6.32257 339.914 4.42092C338.061 1.11399 327.026 3.40079 324.291 4.82144Z" fill="#00262E"/>
<path d="M379.519 3.1587L377.895 3.38448C374.23 3.8936 370.546 4.4074 367.017 5.55309C368.544 6.18198 370.147 6.59146 371.781 6.77028C372.68 6.81618 373.573 6.9484 374.449 7.16526C376.008 7.64841 377.578 8.89607 379.084 8.25695C380.018 7.86067 380.323 6.84838 381.096 6.3119C381.63 5.94145 383.656 5.34186 383.882 4.96796C385.713 1.94521 380.927 2.96318 379.519 3.1587Z" fill="#00262E"/>
<path d="M386.657 10.8495C384.487 12.1131 382.473 13.6486 380.661 15.4218C379.897 16.169 379.118 17.0984 379.187 18.187C379.279 19.6339 380.759 20.4732 382.042 21.0385L387.236 23.3284C387.866 22.4036 387.289 21.127 386.638 20.2183C385.987 19.3095 385.213 18.258 385.501 17.1644C385.829 15.9164 387.29 15.4911 388.516 15.2761C390.512 14.9258 395.899 14.9539 395.251 11.6034C394.489 7.6555 388.661 9.68294 386.657 10.8495Z" fill="#00262E"/>
<path d="M385.61 234.264C385.116 235.755 385.069 237.51 385.924 238.812C386.884 240.272 388.805 240.817 390.467 240.446C392.122 239.988 393.597 239 394.684 237.623C395.679 236.469 396.497 235.162 397.11 233.749C397.966 231.547 398.569 229.248 398.908 226.899L400.521 218.082C400.881 216.111 400.867 210.07 397.389 212.038C396.439 212.576 394.239 216.822 393.243 218.026C391.448 220.195 391.211 222.301 390.266 224.929C389.083 228.222 386.704 230.966 385.61 234.264Z" fill="#00262E"/>
<path d="M569.322 279.383C568.184 278.921 567.08 278.373 566.017 277.745C564.952 280.795 564.386 284.009 564.342 287.253L572.13 282.665C573.301 281.974 574.629 281.015 574.604 279.614C574.615 279.441 574.58 279.268 574.504 279.113C574.429 278.959 574.314 278.829 574.174 278.736C574 278.664 573.812 278.641 573.628 278.669C572.473 278.77 571.42 279.361 570.33 279.773C569.241 280.184 567.967 280.402 566.968 279.791" fill="#00262E"/>
<path d="M596.294 194.915C595.24 195.182 594.148 195.249 593.07 195.113C591.281 194.77 589.889 193.366 588.444 192.215C585.01 189.492 580.836 187.974 576.521 187.877C572.595 187.8 568.633 188.907 564.778 188.135C565.03 189.593 566.229 190.687 567.508 191.338C568.787 191.988 570.199 192.315 571.484 192.952C573.542 193.983 575.175 195.751 576.082 197.933C576.496 198.939 576.757 200.034 577.384 200.913C578.665 202.708 581.095 203.103 583.238 202.956C586.034 202.764 588.953 201.927 591.553 203.011C593.543 203.841 594.966 205.654 596.627 207.064C598.288 208.473 600.628 209.52 602.535 208.502C600.554 207.835 598.83 206.525 597.614 204.765C596.398 203.004 595.755 200.885 595.777 198.717C597.648 198.896 603.036 198.827 602.746 195.517C602.5 192.713 597.9 194.612 596.294 194.915Z" fill="#00262E"/>
<path d="M571.821 217.735C572.153 215.838 573.97 214.163 573.404 212.327C573.013 211.058 571.599 210.431 570.319 210.4C569.039 210.368 567.781 210.765 566.501 210.803C565.668 210.757 564.832 210.769 564.001 210.84C561.46 211.275 559.894 214.048 557.499 215.034C556.043 215.633 554.407 215.519 552.893 215.933C549.455 216.874 547.28 220.257 544.877 222.983C540.994 227.37 535.936 230.441 530.358 231.8C528.403 232.271 526.302 232.573 524.749 233.895C522.691 235.645 522.185 238.646 521.727 241.37C520.463 248.896 518.53 256.283 515.954 263.437L524.117 264.522C525.668 264.728 527.276 264.93 528.772 264.452C529.858 264.025 530.888 263.454 531.834 262.753C535.469 260.403 539.538 258.874 543.777 258.265C545.914 257.959 548.155 257.903 550.161 258.73C552.167 259.558 553.888 261.434 554.056 263.674C554.923 263.393 555.848 263.362 556.731 263.586C557.613 263.809 558.421 264.278 559.068 264.943C560.346 266.299 561.183 268.038 561.46 269.916C561.675 271.079 561.891 272.472 562.927 272.96C563.772 273.358 564.742 272.929 565.667 272.852C568.805 272.591 571.409 276.401 574.494 275.745C577.802 275.041 578.614 269.883 581.841 268.849C583.695 268.256 586.295 268.978 587.182 267.182C587.965 265.6 586.404 263.774 586.565 262.002C586.763 259.82 589.234 258.894 591.14 257.964C597.708 254.754 600.825 245.549 597.642 238.76C595.756 234.737 592.046 231.57 591.36 227.151C590.833 223.751 592.12 219.786 590.038 217.11C588.979 215.749 587.186 214.997 586.556 213.373C586.159 212.35 586.319 211.19 586.105 210.11C585.892 209.03 584.987 207.9 583.962 208.18C580.989 208.993 580.04 218.558 578.448 220.882C576.027 224.414 571.059 222.087 571.821 217.735Z" fill="#00262E"/>
<path d="M516.859 198.529C515.843 198.232 514.733 197.94 513.759 198.364C512.786 198.788 512.217 200.277 512.998 201.015C519.112 200.767 525.263 200.521 531.325 201.385C538.309 202.381 545.221 204.849 552.235 204.123C548.228 202.892 544.155 201.908 540.037 201.175L533.17 199.81C531.328 199.408 529.466 199.108 527.594 198.912C523.676 198.576 520.711 199.654 516.859 198.529Z" fill="#00262E"/>
<path d="M522.978 176.358C522.47 176.314 521.842 176.276 521.579 176.731C521.328 177.165 521.615 177.738 521.48 178.225C521.296 178.89 520.46 179.06 519.8 178.97C519.141 178.879 518.429 178.662 517.845 178.993C517.549 179.204 517.326 179.509 517.211 179.862C517.095 180.216 517.093 180.599 517.204 180.954C517.443 181.658 517.829 182.299 518.334 182.83C519.198 183.963 520.182 184.991 521.267 185.893C523.368 187.508 526.215 188.286 527.539 190.631C527.725 191.085 528.012 191.487 528.376 191.804C529.011 192.224 529.84 191.905 530.524 191.579L532.922 190.439C533.354 190.277 533.739 190.003 534.043 189.645C534.59 188.871 534.254 187.77 533.794 186.937C533.334 186.103 532.746 185.24 532.845 184.284C533.02 182.58 535.125 181.928 535.99 180.47C536.863 179 536.295 177.106 536.395 175.381C536.513 173.364 537.73 170.74 535.772 169.233C534.107 167.952 532.517 169.136 531.322 170.55C528.802 173.532 527.61 176.761 522.978 176.358Z" fill="#00262E"/>
<path d="M537.533 146.22C538.352 147.852 540.059 148.826 540.951 150.416C541.919 152.138 541.809 154.364 542.858 156.034C543.935 157.747 546.102 158.657 546.706 160.605C547.366 162.733 545.87 165.318 547.062 167.177C547.285 167.481 547.565 167.733 547.886 167.918C548.207 168.103 548.562 168.217 548.927 168.252C549.292 168.287 549.661 168.242 550.009 168.121C550.357 168 550.677 167.805 550.949 167.549C551.451 166.979 551.72 166.227 551.698 165.453C551.676 164.68 551.365 163.946 550.831 163.408C550.125 162.737 549.111 162.448 548.521 161.665C548.214 161.213 548.01 160.694 547.923 160.148C547.602 158.573 547.653 156.94 548.073 155.39C548.231 154.997 548.271 154.563 548.188 154.145C547.923 153.342 546.878 153.285 546.145 152.912C544.48 152.066 544.52 149.619 544.811 147.714C544.618 148.982 540.278 146.825 539.823 146.106C538.921 144.679 539.412 141.925 539.233 140.348C537.284 141.326 536.533 144.225 537.533 146.22Z" fill="#00262E"/>
<path d="M493.815 171.331C493.014 170.398 491.808 169.421 490.734 169.984C489.915 170.414 489.689 171.594 490.01 172.489C490.402 173.358 491.004 174.106 491.758 174.658C493.996 176.58 496.406 178.314 498.358 180.548C501.852 184.546 503.703 189.941 507.502 193.624C508.266 194.477 509.278 195.047 510.382 195.246C511.489 195.353 512.732 194.616 512.859 193.465C512.964 192.518 512.33 191.67 511.71 190.968C510.234 189.297 508.618 187.758 507.224 186.011C506.581 185.34 506.176 184.46 506.078 183.518C506.071 182.577 506.895 181.593 507.77 181.826C506.705 181.542 505.916 179.696 504.354 179.349C503.048 179.059 502.732 179.901 501.179 179.207C498.215 177.883 495.891 173.75 493.815 171.331Z" fill="#00262E"/>
<path d="M563.444 80.4173C562.594 80.1543 561.758 79.8434 560.94 79.4862C558.74 78.7985 555.829 80.4824 556.122 82.8547C556.317 84.431 557.726 85.4937 558.504 86.8609C559.658 88.8885 559.35 91.4601 558.744 93.7308C558.595 94.4338 558.312 95.0986 557.911 95.6854C557.351 96.305 556.682 96.8064 555.94 97.1622C552.968 98.8971 550.348 101.215 548.224 103.988C547.993 104.244 547.832 104.56 547.758 104.902C547.653 105.703 548.426 106.287 548.863 106.955C549.834 108.439 549.132 110.436 549.228 112.229C549.214 112.482 549.261 112.735 549.367 112.964C549.473 113.193 549.633 113.39 549.832 113.537C550.417 113.846 551.111 113.321 551.428 112.722C552.481 110.736 551.688 107.548 553.663 106.591C554.036 106.409 554.489 106.333 554.738 105.991C555.134 105.449 554.752 104.647 554.953 103.999C555.254 103.026 556.531 102.982 557.512 103.025C559.202 103.099 560.89 102.865 562.502 102.333C563.135 102.177 563.709 101.831 564.154 101.337C564.745 100.57 564.692 99.4794 564.574 98.504C563.983 93.6411 562.504 88.9409 560.216 84.6571C561.951 84.8878 563.838 85.0877 565.336 84.1463C566.174 83.6191 567.179 82.0426 566.763 80.9696C566.106 79.2727 564.918 80.701 563.444 80.4173Z" fill="#00262E"/>
<path d="M341.029 107.163C341.237 108.323 341.441 109.544 341.076 110.66C340.711 111.777 339.563 112.71 338.479 112.368C337.638 112.102 337.152 111.221 336.554 110.55C333.232 106.815 325.737 108.978 323.685 104.357C322.847 102.472 323.416 100.213 322.845 98.2224C322.485 97.072 321.767 96.0788 320.806 95.3988C319.845 94.7188 318.694 94.3906 317.534 94.4656C316.476 94.6247 315.446 94.9447 314.478 95.4155C307.989 98.1214 301.177 99.8955 294.229 100.689C292.908 100.773 291.602 101.02 290.338 101.426C287.485 102.503 285.536 105.257 284.148 108.067C282.761 110.878 281.737 113.92 279.877 116.417C277.922 119.041 275.183 120.878 272.628 122.866C271.644 123.526 270.825 124.421 270.237 125.476C269.683 126.66 269.714 128.037 269.757 129.353L270.28 145.341C270.347 147.397 270.431 149.527 271.315 151.367C272.419 153.665 274.599 155.17 276.112 157.2C277.656 159.286 278.46 161.864 278.388 164.496C278.356 165.555 278.255 166.806 279.047 167.471C279.528 167.796 280.092 167.965 280.666 167.956L301.435 169.726C305.089 170.037 309.138 170.549 311.523 173.448C312.649 174.815 313.553 176.783 315.278 176.929C316.017 176.992 316.737 176.676 317.477 176.615C319.343 176.461 320.983 177.936 322.017 179.561C323.584 182.037 324.294 184.994 324.033 187.947C323.864 189.8 323.312 191.602 323.193 193.459C322.74 200.528 328.495 206.668 328.606 213.751C328.672 217.918 326.772 221.81 324.921 225.504C327.909 230.218 325.462 236.496 326.652 242.008C327.781 247.237 331.968 251.33 333.011 256.578C333.489 258.981 333.517 261.938 335.551 263.175C336.444 263.628 337.434 263.835 338.425 263.774C344.406 263.848 350.319 262.447 355.679 259.684C358.195 258.384 360.803 256.444 361.242 253.555C361.596 251.226 360.462 248.62 361.616 246.591C362.977 244.2 366.463 244.389 368.465 242.551C371.713 239.568 369.181 233.879 370.497 229.583C371.68 225.721 375.752 223.67 377.77 220.204C378.564 218.713 379.134 217.104 379.46 215.434C380.385 211.441 380.961 207.369 381.18 203.268C381.234 200.777 381.41 198.29 381.709 195.817C383.885 181.739 397.251 172.312 401.591 158.788C402.005 157.496 402.2 155.776 401.096 155.045C400.442 154.72 399.7 154.639 398.995 154.816L389.421 156.073C388.231 156.229 386.971 156.375 385.879 155.861C384.787 155.346 384.004 153.908 384.583 152.815C386.209 149.748 382.864 145.872 381.378 142.729C377.376 134.266 372.61 126.218 367.145 118.694C366.795 118.307 366.576 117.811 366.521 117.283L369.238 117.377C368.321 113.95 366.807 110.2 363.609 108.946C361.807 108.24 359.812 108.484 357.889 108.593C352.383 108.907 346.479 108.041 341.029 107.163Z" fill="#00262E"/>
<path d="M357.894 29.931C359.334 31.5243 360.949 33.2136 363.034 33.4913C366.716 33.9819 369.364 30.0168 371.05 26.5728C371.112 27.4508 371.501 28.2688 372.134 28.8529C372.767 29.4369 373.593 29.7409 374.438 29.7002C375.347 29.541 376.214 29.1878 376.986 28.6629C384.282 24.5113 392.454 22.3116 400.768 22.2614C400.689 21.6056 400.845 20.9423 401.207 20.3993C401.569 19.8564 402.112 19.4724 402.73 19.3214C404.42 18.9725 405.943 20.4943 406.758 22.0751C407.574 23.6559 408.082 25.4882 409.378 26.6715C410.674 27.8547 413.182 27.8032 413.694 26.0897C414.185 24.4447 412.539 23.0418 411.172 22.0719C409.804 21.1021 408.363 19.3071 409.284 17.8758C416.27 16.2657 423.299 14.6494 430.447 14.3294C431.664 14.3735 432.877 14.156 434.01 13.6904C435.1 13.1334 435.966 11.8689 435.673 10.6419C434.113 11.0238 432.479 10.9132 430.98 10.3243C429.481 9.73547 428.184 8.69499 427.254 7.33558C437.173 6.48331 447.723 5.75687 456.513 10.6166C457.568 12.9744 452.192 14.9362 453.63 17.0628C454.089 17.7411 455.008 17.8207 455.805 17.8361C461.913 17.9542 468.057 18.07 474.097 17.1097C476.304 16.7588 478.533 16.2634 480.749 16.5479C484.44 17.0219 487.597 19.5861 491.228 20.4222C492.706 20.7624 494.363 20.774 495.609 19.8789C496.854 18.9839 497.39 16.9458 496.369 15.7823C499.788 12.2933 505.462 13.1581 509.972 14.8284C514.483 16.4987 518.755 19.1924 523.529 19.5647C526.952 19.8317 530.423 18.873 533.805 19.4824C535.931 19.8653 537.909 20.8499 539.987 21.4549C543.916 22.599 548.072 22.3574 552.152 22.4125C562.561 22.5585 572.856 24.6886 582.528 28.6973C583.786 29.1238 584.939 29.833 585.904 30.7747C586.804 31.7781 587.263 33.3374 586.658 34.5574L576.664 33.0369C577.606 34.9671 580.042 35.296 582.02 35.9618C583.999 36.6277 586.05 38.9025 584.861 40.6785C582.717 39.9679 580.775 42.1994 579.692 44.2525C578.609 46.3057 577.29 48.7646 575.043 48.8897C573.032 49.0017 570.599 47.2182 569.288 48.8106C571.099 51.19 572.651 53.7722 573.913 56.5093C575.208 59.3193 576.131 62.86 574.38 65.3882C574.104 65.8396 573.687 66.1769 573.198 66.3423C571.768 66.7192 570.839 64.8978 569.814 63.7939C568.522 62.4027 566.568 62.0087 564.818 61.3563C563.068 60.7038 561.224 59.4204 561.087 57.4903C561.002 56.2894 561.611 55.1731 562.06 54.0632C562.813 52.1925 563.143 50.166 563.023 48.1411C562.925 46.512 562.486 44.8175 561.363 43.6793C560.239 42.5411 558.299 42.18 557.093 43.2225C556.53 43.7089 556.079 44.487 555.348 44.516C554.057 44.5675 553.065 42.2231 552.026 43.0234C552.148 43.8761 551.978 44.7463 551.546 45.4818C548.446 48.2896 543.683 47.1017 539.686 48.0936C537.785 48.66 535.965 49.4875 534.274 50.5543C533.642 50.8359 533.104 51.3063 532.728 51.9061C532.229 52.9157 532.779 54.2087 533.658 54.88C534.591 55.4756 535.639 55.8481 536.727 55.9706C541.6 56.9315 546.544 58.4191 550.391 61.6782C554.238 64.9373 556.761 70.3247 555.544 75.3309L545.934 65.7698C546.299 69.7843 546.506 73.8098 546.555 77.8464C546.617 78.6346 546.513 79.4274 546.251 80.1694C545.566 81.7449 543.709 82.2751 542.082 82.6229C541.629 82.7124 541.2 82.9007 540.822 83.1752C540.444 83.4497 540.127 83.8043 539.89 84.2158C539.653 84.6272 539.503 85.0862 539.448 85.5625C539.394 86.0388 539.437 86.5217 539.575 86.9794C540.153 88.9414 541.594 90.4711 542.914 91.9953C544.234 93.5195 545.533 95.2518 545.706 97.2962C545.878 99.3405 544.397 101.645 542.431 101.503C540.94 101.395 539.834 100.006 539.199 98.5977C538.563 97.1898 538.185 95.6214 537.229 94.4251C534.338 90.8043 527.844 92.3556 525.253 88.4955C524.593 89.2754 524.135 90.218 523.923 91.2339C523.711 92.2498 523.752 93.3052 524.042 94.3C525.247 93.5145 526.897 94.2443 527.802 95.3856C528.707 96.5269 529.135 97.9902 529.846 99.272C530.805 101.002 532.332 102.535 532.466 104.528C532.43 105.281 532.442 106.036 532.502 106.788C532.74 107.996 533.72 108.862 534.4 109.872C535.981 112.22 535.903 115.446 534.884 118.11C533.864 120.774 532.034 123 530.22 125.159C527.053 128.929 523.82 132.677 520.065 135.808C518.994 136.701 517.85 137.579 517.183 138.828C516.516 140.077 516.481 141.83 517.507 142.78C516.773 142.819 515.457 143.194 514.723 143.233C514.465 140.168 514.409 137.088 514.555 134.015C511.66 132.567 508.542 136.444 508.916 139.766C509.289 143.088 511.597 145.754 513.24 148.628C514.441 150.73 515.334 153.181 514.933 155.591C514.532 158.001 512.466 160.224 510.126 160.012C506.403 159.674 504.846 154.109 501.16 153.473C500.835 153.393 500.494 153.428 500.19 153.573C499.643 153.886 499.548 154.648 499.517 155.297C499.366 158.483 499.236 161.795 500.43 164.733C502.178 169.03 506.691 172.639 505.745 177.2C500.644 174.731 497.992 168.774 496.787 163.053C495.583 157.332 495.383 151.326 493.224 145.917C491.585 148.105 488.14 146.296 486.643 144.002C485.223 141.826 484.349 139.309 482.971 137.105C481.594 134.9 479.484 132.925 476.96 132.804C474.315 132.677 472.02 134.567 470.002 136.354C468.343 137.823 466.639 139.349 465.669 141.38C464.258 144.334 464.627 147.817 464.559 151.116C464.486 154.683 463.76 158.446 461.425 161.057C459.091 163.668 454.781 164.578 452.206 162.224C450.862 160.996 450.211 159.16 449.631 157.398C446.836 148.905 444.509 140.253 442.66 131.484C442.227 133.486 440.539 136.066 438.927 134.887C438.565 134.57 438.272 134.176 438.067 133.733C435.059 128.425 429.489 125.241 423.862 123.332C418.234 121.423 412.313 120.533 406.748 118.435C403.629 117.259 400.65 115.714 397.87 113.83C397.161 114.915 396.747 116.178 396.672 117.487C396.597 118.797 396.863 120.103 397.443 121.267C398.678 123.543 401.471 124.86 403.863 124.064C405.098 123.653 406.142 122.76 407.368 122.319C408.594 121.878 410.24 122.094 410.776 123.324C411.289 124.502 410.514 125.926 410.898 127.155C411.484 129.028 414.196 129.172 415.145 130.876C415.85 132.143 415.27 133.827 414.262 134.85C413.255 135.873 411.911 136.434 410.681 137.146C406.691 139.456 403.853 143.4 400.366 146.469C396.879 149.537 391.958 151.777 387.802 149.809C388.793 144.586 382.818 140.751 381.718 135.551C381.356 133.84 381.544 132.022 381.027 130.354C380.28 127.94 378.222 126.279 376.534 124.449C374.487 122.206 372.892 119.558 371.844 116.662C370.795 113.766 370.314 110.681 370.429 107.589C370.521 105.44 370.9 103.256 370.43 101.161C369.959 99.0664 368.294 97.0391 366.23 97.134C361.516 97.3508 355.578 97.7159 353.105 93.5319C352.222 92.0386 351.838 89.8515 353.114 88.7075C354.015 87.9004 355.343 87.9764 356.526 88.0975L367.146 89.1854C369.631 89.4398 372.316 89.6498 374.447 88.2976C376.579 86.9454 377.503 83.3562 375.529 81.7653C374.087 80.6029 371.503 80.6659 371.084 78.8178C370.734 77.2786 372.371 75.5322 371.487 74.2459C370.853 73.3235 369.429 73.5794 368.565 74.2708C367.702 74.9623 367.076 75.9734 366.11 76.4969C364.415 77.4153 362.39 76.5413 360.567 75.9473C358.743 75.3533 356.299 75.3028 355.415 77.0661C354.426 79.0382 356.292 81.6223 355.31 83.5983C354.013 86.211 349.618 84.7237 347.795 86.971C345.704 89.5497 349.218 93.3949 348.513 96.6893C347.612 97.1537 346.612 97.3669 345.608 97.3082C344.605 97.2495 343.634 96.9209 342.789 96.3544C341.958 95.766 341.296 94.954 340.873 94.0048C340.449 93.0557 340.281 92.0049 340.386 90.9642C340.561 89.4822 341.303 87.9694 340.806 86.569C340.404 85.4367 339.312 84.7626 338.297 84.1787L327.976 78.2402C327.018 80.0911 328.229 82.3857 329.744 83.7759C331.259 85.1661 333.157 86.2131 334.152 88.0427C334.782 89.3103 334.923 90.7803 334.547 92.1526C334.171 93.5249 333.306 94.6959 332.128 95.4265C331.981 95.5325 331.813 95.604 331.636 95.6361C331.46 95.6682 331.279 95.6601 331.105 95.6123C330.941 95.5116 330.797 95.3774 330.683 95.2178C330.569 95.0583 330.487 94.8765 330.442 94.6833C328.621 89.8309 325.887 85.0467 321.515 82.5119C317.144 79.9771 310.863 80.4983 307.997 84.7683C307.316 85.7825 306.859 86.9385 306.266 88.0108C303.115 93.7077 296.36 96.4053 290.048 96.2291C289.431 96.2647 288.817 96.1144 288.279 95.7962C287.259 95.0627 287.305 93.5062 287.461 92.2257L288.123 86.7915C288.257 85.7002 288.449 84.4941 289.279 83.8129C290.448 82.8527 292.135 83.4586 293.624 83.4363C294.752 83.3813 295.836 82.9665 296.73 82.2481C297.624 81.5296 298.285 80.5423 298.622 79.42C298.922 78.2866 298.921 77.0892 298.616 75.9569C298.312 74.8246 297.716 73.8002 296.894 72.9942C296.212 72.3268 295.296 71.4884 295.656 70.5886C295.8 70.3397 295.994 70.1267 296.226 69.9644C296.457 69.8022 296.72 69.6947 296.995 69.6495C299.67 68.8408 302.496 68.6288 305.126 67.6745C307.756 66.7203 310.307 64.7679 310.93 61.9414C311.121 61.0752 311.207 60.0259 311.955 59.5964C312.33 59.4316 312.732 59.3459 313.139 59.3444C314.565 59.1332 315.863 58.3738 316.779 57.2158C317.694 56.0578 318.159 54.585 318.084 53.0874C319.344 52.1704 321.11 52.845 322.329 53.8204C323.549 54.7958 324.625 56.0844 326.109 56.5049C328.874 57.2885 331.546 54.7394 334.412 54.7275C335.617 54.7226 336.864 55.1662 337.998 54.7408C339.147 54.3096 339.834 53.1183 340.716 52.2382C341.598 51.3581 343.146 50.8214 343.96 51.7694L343.267 46.42C344.663 46.7874 346.12 46.8394 347.537 46.5725C348.955 46.3056 350.301 45.726 351.486 44.8726L342.522 41.7189C342.21 41.6377 341.922 41.4774 341.684 41.2522C341.032 40.5215 341.68 39.3828 342.209 38.5522C343.477 36.5651 343.69 33.2919 341.605 32.3026C340.182 31.6274 338.549 32.4379 337.183 33.2309L330.64 37.0294C330.432 38.3244 331.953 39.0583 332.896 39.9305C333.466 40.4582 333.869 41.1532 334.053 41.9241C334.237 42.695 334.193 43.5058 333.926 44.25C333.659 44.9943 333.183 45.637 332.559 46.094C331.935 46.5509 331.192 46.8007 330.43 46.8104C330.861 47.3937 331.16 48.0703 331.306 48.7903C331.451 49.5103 331.439 50.2553 331.271 50.9699L326.869 51.2996C326.375 51.4031 325.862 51.2987 325.441 51.0094C324.97 50.574 325.034 49.811 324.925 49.1653C324.662 47.6067 323.196 46.5144 321.7 46.2343C320.204 45.9542 318.674 46.3132 317.193 46.6677C316.564 46.9034 315.873 46.8868 315.256 46.6211C314.901 46.3815 314.632 46.0277 314.489 45.6138C313.84 43.9743 314.447 42.0473 315.49 40.6452C316.533 39.2432 317.96 38.2183 319.243 37.0511C322.309 34.2496 324.562 30.6111 325.747 26.5466C328.17 25.4893 330.679 24.0529 333.102 22.9956C336.839 21.026 341.028 20.1808 345.201 20.5549L353.407 20.7182C355.837 20.7665 358.333 20.8284 360.58 21.7929C362.826 22.7574 364.8 24.8436 364.956 27.3689C365.002 27.6548 364.979 27.9483 364.887 28.2221C364.795 28.4958 364.637 28.7407 364.429 28.9337C364.112 29.114 363.753 29.1984 363.392 29.1772C361.126 29.2602 360.16 29.8481 357.894 29.931Z" fill="#00262E"/>
<path d="M292.479 56.7133C292.8 56.3973 293.031 55.9953 293.146 55.5517C293.262 55.108 293.258 54.6398 293.134 54.1984C292.354 53.8849 291.505 53.8044 290.684 53.966C289.862 54.1276 289.1 54.5248 288.483 55.1129C287.997 55.625 287.578 56.2018 287.237 56.8282C286.158 58.6602 285.205 60.8485 285.83 62.8963C285.881 63.1197 285.974 63.3301 286.104 63.5154C286.234 63.7007 286.398 63.8571 286.587 63.9754C286.867 64.0924 287.169 64.1417 287.47 64.1194C288.658 64.1178 289.845 64.0417 291.024 63.8916C291.749 63.7994 292.59 63.5865 292.87 62.885C293.238 61.9628 292.347 60.9191 292.607 59.9578C292.777 59.5279 293.036 59.142 293.365 58.827C293.528 58.6684 293.653 58.4724 293.731 58.2545C293.809 58.0367 293.837 57.8029 293.812 57.572C293.708 57.1209 293.044 56.865 292.805 57.2569" fill="#00262E"/>
<path d="M298.636 48.3983C297.581 48.146 296.493 48.0749 295.416 48.1877C295.178 48.1804 294.941 48.2362 294.73 48.3501C294.524 48.5077 294.376 48.7321 294.307 48.9878C294.079 49.7483 294.135 50.5701 294.463 51.2896C294.792 52.0091 295.368 52.5734 296.078 52.8701C296.465 52.9628 296.836 53.1178 297.177 53.3298C298.087 54.0656 297.507 55.5698 297.679 56.7568C297.873 58.0896 299.112 59.2084 298.885 60.5355C298.706 61.581 297.633 62.4089 297.806 63.4556C297.987 64.5518 299.323 64.8812 300.388 64.969C301.005 65.0815 301.64 65.0057 302.217 64.7507C302.795 64.3392 303.206 63.7192 303.371 63.0105C303.807 61.6593 303.99 60.2336 303.911 58.8105C303.906 58.1633 303.75 57.527 303.456 56.9568C303.135 56.505 302.78 56.0812 302.393 55.6895C300.353 53.2183 302.501 49.5323 298.636 48.3983Z" fill="#00262E"/>
<path opacity="0.8" d="M566.936 241.98C566.936 241.98 410.669 148.581 343.394 166.277C343.394 166.277 200.819 182.254 184.295 217.401C184.295 217.401 138.973 69.9285 122.449 65.0127" stroke="white" stroke-width="0.887024" stroke-miterlimit="10"/>
<path opacity="0.8" d="M184.295 217.401C210.497 144.648 446.55 64.0293 446.55 64.0293C413.03 72.8777 343.394 166.277 343.394 166.277C343.394 166.277 196.098 54.6894 122.449 65.0124C122.449 65.0124 446.786 76.0729 566.936 241.98" stroke="white" stroke-width="0.887024" stroke-miterlimit="10"/>
<path d="M122.449 72.1405C126.23 72.1405 129.295 68.9492 129.295 65.0126C129.295 61.076 126.23 57.8848 122.449 57.8848C118.668 57.8848 115.604 61.076 115.604 65.0126C115.604 68.9492 118.668 72.1405 122.449 72.1405Z" fill="white"/>
<path d="M184.292 224.529C188.072 224.529 191.137 221.338 191.137 217.401C191.137 213.465 188.072 210.273 184.292 210.273C180.511 210.273 177.446 213.465 177.446 217.401C177.446 221.338 180.511 224.529 184.292 224.529Z" fill="white"/>
<path d="M446.546 71.1571C450.326 71.1571 453.391 67.9658 453.391 64.0292C453.391 60.0926 450.326 56.9014 446.546 56.9014C442.765 56.9014 439.7 60.0926 439.7 64.0292C439.7 67.9658 442.765 71.1571 446.546 71.1571Z" fill="white"/>
<path d="M566.934 249.107C570.715 249.107 573.78 245.916 573.78 241.979C573.78 238.043 570.715 234.852 566.934 234.852C563.154 234.852 560.089 238.043 560.089 241.979C560.089 245.916 563.154 249.107 566.934 249.107Z" fill="white"/>
<path d="M343.392 173.404C347.173 173.404 350.238 170.213 350.238 166.276C350.238 162.34 347.173 159.148 343.392 159.148C339.612 159.148 336.547 162.34 336.547 166.276C336.547 170.213 339.612 173.404 343.392 173.404Z" fill="white"/>
</g>
</svg>
