<svg width="1440" height="1231" viewBox="0 0 1440 1231" fill="none" xmlns="http://www.w3.org/2000/svg" xmlns:xlink="http://www.w3.org/1999/xlink">
<path d="M867.119 551.33C870.219 547.677 876.177 547.004 883.902 549.436C891.115 551.706 899.194 556.443 906.656 562.772C908.852 564.634 910.908 566.566 912.813 568.534L920.073 566.72C922.47 566.153 924.972 566.193 927.35 566.837C929.728 567.482 931.908 568.71 933.691 570.41L941.683 577.627C941.924 577.845 942.101 578.123 942.197 578.433C942.292 578.743 942.302 579.073 942.225 579.388C942.148 579.703 941.988 579.992 941.76 580.223C941.533 580.454 941.248 580.62 940.934 580.702L925.181 584.831L927.328 586.653C927.967 587.197 928.445 587.908 928.706 588.706C928.968 589.504 929.003 590.36 928.81 591.177C933.998 595.223 937.167 601.453 938.232 609.724L938.485 611.682L936.51 611.752C935.995 611.77 935.486 611.78 934.983 611.78C927.413 611.78 921.304 609.69 916.776 605.569C916.252 605.831 915.682 605.991 915.099 606.038C914.971 606.048 914.841 606.053 914.716 606.053C913.64 606.055 912.598 605.673 911.779 604.975L909.632 603.153L908.129 619.371C908.098 619.693 907.98 620.001 907.789 620.263C907.597 620.524 907.339 620.729 907.041 620.856C906.743 620.983 906.416 621.027 906.095 620.984C905.774 620.941 905.47 620.813 905.216 620.612L896.793 613.902C894.824 612.42 893.257 610.469 892.233 608.227C891.209 605.986 890.761 603.524 890.93 601.065L891.54 593.604C889.287 592.045 887.046 590.331 884.851 588.469C877.391 582.14 871.401 574.939 867.986 568.194C864.328 560.975 864.021 554.984 867.119 551.33ZM869.867 553.658C868.162 555.669 868.193 559.216 869.883 563.618C872.137 562.345 874.143 560.677 875.808 558.695C877.493 556.73 878.811 554.478 879.7 552.047C875.073 551.1 871.569 551.647 869.863 553.658H869.867ZM931.279 573.082C929.931 571.781 928.279 570.838 926.475 570.337C924.67 569.836 922.768 569.793 920.943 570.212L915.581 571.552C918.346 574.68 920.772 578.093 922.819 581.733L936.801 578.066L931.279 573.082ZM926.871 594.238L919.377 603.069C923.091 606.352 928.111 608.069 934.353 608.179C933.228 602.038 930.715 597.365 926.871 594.236V594.238ZM914.109 602.236C914.304 602.399 914.555 602.478 914.808 602.457C915.061 602.436 915.295 602.317 915.461 602.125L925.112 590.748C925.273 590.552 925.352 590.302 925.331 590.049C925.31 589.797 925.192 589.562 925.001 589.396L922.588 587.349L911.697 600.188L914.109 602.236ZM894.519 601.356C894.403 603.226 894.755 605.095 895.543 606.794C896.332 608.493 897.531 609.969 899.034 611.088L904.854 615.724L906.191 601.331C902.266 599.905 898.504 598.068 894.966 595.85L894.519 601.356ZM887.178 585.729C894.174 591.664 901.894 596.204 908.551 598.333L909.266 597.491L920.245 584.548C917.064 578.327 911.323 571.45 904.325 565.515C897.347 559.59 889.854 555.161 883.178 552.987C882.145 555.931 880.575 558.656 878.546 561.026C876.539 563.414 874.106 565.407 871.371 566.905C874.603 573.137 880.197 579.808 887.178 585.729ZM900.139 566.709C901.592 567.942 902.647 569.578 903.17 571.41C903.693 573.242 903.661 575.188 903.078 577.002C902.495 578.816 901.388 580.417 899.895 581.602C898.403 582.786 896.593 583.502 894.693 583.658C894.425 583.679 894.157 583.69 893.89 583.69C892.339 583.688 890.812 583.311 889.438 582.592C888.065 581.874 886.885 580.834 885.999 579.561C885.112 578.289 884.547 576.822 884.349 575.284C884.151 573.746 884.328 572.183 884.863 570.728C885.399 569.273 886.277 567.968 887.425 566.925C888.572 565.883 889.954 565.132 891.454 564.738C892.953 564.343 894.526 564.316 896.038 564.659C897.55 565.003 898.957 565.706 900.139 566.709ZM887.889 574.549C888.004 575.94 888.597 577.248 889.568 578.251C890.539 579.254 891.827 579.889 893.213 580.048C894.6 580.207 895.999 579.881 897.172 579.125C898.345 578.368 899.219 577.229 899.646 575.9C900.073 574.571 900.026 573.136 899.513 571.838C899 570.54 898.053 569.46 896.833 568.781C895.613 568.103 894.196 567.869 892.823 568.119C891.45 568.368 890.206 569.086 889.303 570.15C888.788 570.754 888.398 571.453 888.156 572.208C887.913 572.963 887.823 573.759 887.889 574.549Z" fill="#15272D"/>
<path fill-rule="evenodd" clip-rule="evenodd" d="M1160 179.481C1152.54 175.876 1145.8 172.058 1141.02 168.711C1134.84 164.368 1132.49 161.265 1133.64 158.887L1147.41 130.374C1147.73 129.705 1148.52 129.43 1149.19 129.753C1149.86 130.076 1150.13 130.865 1149.81 131.534L1136.04 160.047C1136.03 160.072 1135.78 161.767 1142.56 166.525C1147.21 169.794 1153.83 173.54 1161.16 177.079C1168.48 180.612 1175.54 183.473 1180.99 185.083C1188.93 187.433 1190.11 186.187 1190.12 186.162L1203.89 157.649C1204.21 156.98 1205 156.705 1205.67 157.028C1206.34 157.35 1206.62 158.14 1206.29 158.808L1192.52 187.322C1191.38 189.699 1187.47 189.784 1180.24 187.651C1174.65 185.988 1167.46 183.08 1160 179.481Z" fill="#15272D"/>
<path fill-rule="evenodd" clip-rule="evenodd" d="M1146.01 166.525C1145.96 166.502 1145.91 166.478 1145.86 166.423C1145 165.869 1140.55 162.911 1138.69 160.871C1138.34 160.47 1138.24 159.887 1138.48 159.392L1148.28 139.087C1148.48 138.678 1148.89 138.389 1149.35 138.334C1149.81 138.284 1150.27 138.475 1150.54 138.834L1165.37 158.406C1165.8 158.996 1165.69 159.828 1165.1 160.261C1164.51 160.693 1163.67 160.594 1163.24 160.003L1149.73 142.184L1141.27 159.703C1142.87 161.163 1145.69 163.148 1147.29 164.196C1147.89 164.593 1148.07 165.415 1147.67 166.029C1147.33 166.612 1146.59 166.806 1146.01 166.525Z" fill="#15272D"/>
<path fill-rule="evenodd" clip-rule="evenodd" d="M1169.46 159.236C1168.39 158.722 1167.47 158.034 1166.91 157.273L1137.25 118.172C1136.52 117.192 1136.34 116.112 1136.79 115.184C1137.31 114.094 1138.6 113.449 1140.31 113.42L1187.87 112.37C1190.44 112.298 1193.51 113.609 1194.81 115.337L1224.46 154.438C1225.21 155.424 1225.37 156.51 1224.93 157.426C1224.62 158.058 1223.77 159.127 1221.44 159.19L1173.87 160.239C1172.39 160.272 1170.79 159.882 1169.46 159.236ZM1139.24 116.324C1139.26 116.379 1139.3 116.459 1139.38 116.556L1169.04 155.663C1169.75 156.6 1171.88 157.598 1173.8 157.578L1221.36 156.528C1222.01 156.52 1222.35 156.392 1222.47 156.286C1222.45 156.231 1222.42 156.151 1222.35 156.041L1192.68 116.935C1191.96 116.01 1189.85 114.987 1187.95 115.032L1140.37 116.075C1139.7 116.103 1139.37 116.231 1139.24 116.324Z" fill="#15272D"/>
<path fill-rule="evenodd" clip-rule="evenodd" d="M1204.23 140.364C1204.05 140.275 1203.87 140.16 1203.76 139.965L1188.54 119.931C1188.11 119.34 1188.22 118.49 1188.79 118.052C1189.38 117.62 1190.22 117.731 1190.66 118.297L1205.87 138.343C1206.31 138.94 1206.2 139.771 1205.62 140.21C1205.21 140.547 1204.67 140.573 1204.23 140.364Z" fill="#15272D"/>
<path fill-rule="evenodd" clip-rule="evenodd" d="M1136.25 135.674L1136.24 135.668C1135.58 135.321 1135.33 134.525 1135.64 133.869L1141.42 122.444C1141.72 121.843 1142.41 121.563 1143.05 121.782L1181.29 135.054C1181.97 135.309 1182.35 136.054 1182.12 136.752C1181.87 137.444 1181.12 137.811 1180.42 137.581L1143.29 124.675L1138.04 135.072C1137.7 135.716 1136.91 135.991 1136.25 135.674Z" fill="#15272D"/>
<path fill-rule="evenodd" clip-rule="evenodd" d="M1134.28 148.554L1127.41 145.236C1127.02 145.051 1126.75 144.691 1126.67 144.299C1126.59 143.882 1126.71 143.45 1127 143.132L1135.86 133.546C1136.26 133.129 1136.89 132.991 1137.42 133.248C1137.96 133.505 1138.26 134.079 1138.17 134.646L1136.19 147.538C1136.14 147.957 1135.87 148.317 1135.49 148.513C1135.09 148.703 1134.66 148.739 1134.28 148.554ZM1130.2 143.623L1133.8 145.363L1134.85 138.572L1130.2 143.623Z" fill="#15272D"/>
<path fill-rule="evenodd" clip-rule="evenodd" d="M1193.13 183.002L1187.54 180.306C1186.87 179.983 1186.6 179.194 1186.92 178.525L1193.28 165.364C1193.6 164.695 1194.39 164.42 1195.06 164.743L1200.64 167.439C1201.31 167.762 1201.59 168.552 1201.26 169.22L1194.91 182.381C1194.59 183.05 1193.8 183.325 1193.13 183.002ZM1189.91 178.472L1193.09 180.008L1198.28 169.274L1195.09 167.737L1189.91 178.472Z" fill="#15272D"/>
<path fill-rule="evenodd" clip-rule="evenodd" d="M5.24033 647.396C13.3717 649.013 21.0495 650.021 26.882 650.228C34.4296 650.481 38.1737 649.417 38.6886 646.828L44.8649 615.772C45.0097 615.044 44.5451 614.349 43.817 614.204C43.0888 614.059 42.3936 614.524 42.2488 615.252L36.0726 646.308C36.0672 646.335 35.2491 647.84 26.9654 647.553C21.2839 647.362 13.7437 646.367 5.76061 644.779C-2.20899 643.195 -9.56961 641.226 -14.8918 639.228C-22.6417 636.327 -22.835 634.621 -22.8296 634.594L-16.6534 603.538C-16.5086 602.81 -16.9731 602.115 -17.7013 601.97C-18.4295 601.825 -19.1246 602.289 -19.2695 603.018L-25.4457 634.073C-25.9606 636.663 -22.8949 639.081 -15.8382 641.732C-10.3704 643.772 -2.87759 645.781 5.24033 647.396Z" fill="#15272D"/>
<path fill-rule="evenodd" clip-rule="evenodd" d="M24.2069 645.482C24.2608 645.493 24.3148 645.504 24.3876 645.49C25.4096 645.567 30.7434 645.885 33.4527 645.372C33.9784 645.267 34.4094 644.862 34.5167 644.322L38.9149 622.207C39.0034 621.762 38.8465 621.282 38.5172 620.964C38.1744 620.644 37.6943 620.52 37.263 620.645L13.6416 627.344C12.9408 627.555 12.529 628.286 12.7401 628.987C12.9512 629.688 13.6797 630.113 14.3805 629.902L35.8912 623.807L32.0965 642.888C29.9396 643.09 26.4988 642.98 24.5896 642.853C23.8696 642.808 23.2285 643.353 23.1807 644.086C23.1033 644.758 23.5731 645.356 24.2069 645.482Z" fill="#15272D"/>
<path fill-rule="evenodd" clip-rule="evenodd" d="M9.88684 625.542C11.0465 625.773 12.1952 625.777 13.1036 625.509L60.3248 612.148C61.5001 611.807 62.2947 611.054 62.4958 610.043C62.7318 608.856 62.0914 607.565 60.7447 606.512L23.4027 577.035C21.3948 575.43 18.161 574.633 16.08 575.228L-31.1412 588.589C-32.3299 588.927 -33.1138 589.697 -33.3122 590.694C-33.449 591.382 -33.4124 592.749 -31.5854 594.206L5.75663 623.683C6.91978 624.601 8.43047 625.252 9.88684 625.542ZM59.8473 609.474C59.7988 609.506 59.7207 609.547 59.6021 609.579L12.3674 622.937C11.238 623.259 8.93741 622.774 7.41806 621.602L-29.924 592.125C-30.434 591.73 -30.6258 591.425 -30.6637 591.263C-30.6152 591.231 -30.5371 591.19 -30.4158 591.144L16.8189 577.787C17.9456 577.478 20.2516 577.937 21.7413 579.116L59.0968 608.596C59.615 609.021 59.8067 609.326 59.8473 609.474Z" fill="#15272D"/>
<path fill-rule="evenodd" clip-rule="evenodd" d="M-6.51854 589.534C-6.31626 589.574 -6.10863 589.587 -5.8957 589.503L18.3133 582.669C19.0142 582.458 19.4421 581.716 19.2445 581.018C19.0334 580.317 18.3022 579.905 17.6068 580.089L-6.60493 586.937C-7.31925 587.146 -7.73102 587.877 -7.53342 588.575C-7.41153 589.09 -6.99051 589.44 -6.51854 589.534Z" fill="#15272D"/>
<path fill-rule="evenodd" clip-rule="evenodd" d="M50.59 626.724L50.6035 626.727C51.337 626.845 52.0214 626.364 52.1635 625.649L54.4311 613.049C54.549 612.386 54.1708 611.75 53.5261 611.537L15.008 599.111C14.3067 598.901 13.5602 599.272 13.3237 599.967C13.1007 600.666 13.4844 601.415 14.1803 601.652L51.5952 613.705L49.5259 625.167C49.4108 625.887 49.8753 626.582 50.59 626.724Z" fill="#15272D"/>
<path fill-rule="evenodd" clip-rule="evenodd" d="M44.4206 638.197L51.9047 639.686C52.3227 639.769 52.754 639.644 53.0584 639.383C53.3682 639.094 53.5349 638.678 53.494 638.25L52.1938 625.262C52.1258 624.688 51.7046 624.198 51.1247 624.083C50.5449 623.967 49.9574 624.243 49.6883 624.75L43.5071 636.235C43.2944 636.6 43.2895 637.047 43.4787 637.435C43.6813 637.826 44.0025 638.114 44.4206 638.197ZM50.645 636.716L46.7208 635.935L49.9716 629.881L50.645 636.716Z" fill="#15272D"/>
<path d="M1460.72 460.601L1458.57 460.545C1458.46 464.848 1457.6 469.099 1456.05 473.113L1451.43 471.111C1453.69 465.231 1454.19 458.822 1452.87 452.663C1451.56 446.503 1448.48 440.858 1444.02 436.412C1439.56 431.966 1433.9 428.91 1427.74 427.615C1421.58 426.321 1415.17 426.843 1409.3 429.118C1401.72 432.164 1395.6 438.006 1392.21 445.435L1387.57 443.423C1391.46 434.761 1398.56 427.943 1407.37 424.399L1406.57 422.401C1397.23 426.155 1389.71 433.384 1385.6 442.567L1379.44 439.898L1378.58 441.874L1384.76 444.552C1382.14 451.275 1381.4 458.582 1382.6 465.695C1383.81 472.808 1386.93 479.459 1391.62 484.941C1396.31 490.422 1402.4 494.527 1409.24 496.819C1416.08 499.111 1423.42 499.503 1430.46 497.953L1434.7 508.509L1419.46 514.629L1422.7 522.691L1464.67 505.836L1461.43 497.773L1446.19 503.894L1441.92 493.257C1448.64 489.156 1453.96 483.126 1457.19 475.954L1463.37 478.634L1464.22 476.658L1458.03 473.971C1459.69 469.703 1460.6 465.18 1460.72 460.601ZM1410.1 431.117C1415.29 429.055 1420.94 428.482 1426.44 429.461C1431.93 430.441 1437.04 432.934 1441.2 436.661L1439.77 437.234L1433.17 436.147L1428.67 442.794L1424.08 443.638L1416.54 439.521L1408.98 442.558L1404.55 434.063C1406.29 432.887 1408.15 431.9 1410.1 431.117ZM1394.19 446.291C1396.15 442.018 1399.1 438.27 1402.79 435.352L1407.97 445.283L1416.4 441.899L1423.72 445.896L1429.94 444.749L1434.18 438.495L1440.01 439.457L1442.9 438.298C1446.9 442.459 1449.64 447.671 1450.8 453.327C1451.96 458.984 1451.5 464.853 1449.46 470.254C1449.2 470.926 1448.92 471.588 1448.62 472.24C1446.55 476.777 1443.36 480.716 1439.36 483.692C1435.35 486.669 1430.66 488.587 1425.72 489.268L1424.93 481.846L1420.2 476.862L1409.27 479.888L1409.94 484.682L1408.08 486.277C1406.33 485.388 1404.66 484.333 1403.12 483.125L1405.15 476.241L1403.39 469.086L1407.33 465.291L1409.54 457.832L1403.87 450.49L1403.86 450.48L1397.46 453.05L1392.33 451.472C1392.61 450.389 1392.95 449.323 1393.35 448.277C1393.61 447.605 1393.88 446.943 1394.19 446.291ZM1422.86 482.799L1423.58 489.485C1419.02 489.772 1414.46 489.013 1410.24 487.265L1412.24 485.552L1411.67 481.46L1419.53 479.283L1422.86 482.799ZM1401.32 481.613C1397.5 478.122 1394.63 473.719 1392.98 468.817C1391.33 463.915 1390.95 458.674 1391.88 453.584L1397.56 455.333L1403.15 453.086L1407.16 458.276L1405.43 464.134L1401 468.395L1402.92 476.19L1401.32 481.613ZM1460.24 500.575L1461.87 504.639L1423.9 519.89L1422.26 515.825L1460.24 500.575ZM1436.7 507.706L1432.56 497.4C1433.78 497.045 1434.99 496.632 1436.19 496.15C1437.5 495.614 1438.79 495.005 1440.03 494.328L1444.2 504.696L1436.7 507.706ZM1435.39 494.152C1428.58 496.775 1421.16 497.366 1414.02 495.851C1406.89 494.336 1400.35 490.781 1395.19 485.618C1390.04 480.455 1386.5 473.907 1385 466.769C1383.49 459.63 1384.1 452.21 1386.74 445.409L1391.38 447.42C1389.12 453.301 1388.62 459.71 1389.94 465.869C1391.25 472.028 1394.33 477.673 1398.79 482.12C1403.25 486.566 1408.9 489.621 1415.07 490.916C1421.23 492.211 1427.64 491.689 1433.51 489.414C1441.09 486.368 1447.21 480.526 1450.6 473.096L1455.21 475.098C1451.31 483.768 1444.2 490.595 1435.39 494.152Z" fill="#15272D"/>
<path d="M1432.16 477.498L1438.1 476.696L1443.11 469.3L1439.03 461.912L1443.06 459.262L1445.29 453.958L1439.36 449.411L1433.69 448.922L1425 458.819L1427.03 467.085L1431.43 472.301L1432.16 477.498ZM1427.36 459.397L1434.59 451.161L1438.54 451.503L1442.66 454.656L1441.33 457.822L1436.18 461.207L1440.59 469.185L1436.86 474.69L1433.99 475.077L1433.47 471.386L1429 466.082L1427.36 459.397Z" fill="#15272D"/>

<path d="M90.0906 144.247C91.3898 146.286 90.7898 148.993 88.7504 150.292C86.711 151.591 84.0045 150.991 82.7053 148.952C81.4061 146.912 81.6532 143.652 83.6926 142.353C85.732 141.053 88.7913 142.207 90.0906 144.247Z" fill="#1B3139"/>
<path d="M104.152 146.646C106.544 148.063 107.334 151.15 105.918 153.541C104.501 155.933 101.414 156.723 99.0229 155.307C96.6313 153.89 95.1913 150.419 96.6078 148.027C98.0243 145.636 101.761 145.23 104.152 146.646Z" fill="#1B3139"/>
<path d="M94.8565 158.597C95.8339 161.199 94.5168 164.101 91.9147 165.078C89.3126 166.056 86.4109 164.739 85.4335 162.137C84.4562 159.534 85.5079 155.926 88.1099 154.949C90.712 153.971 93.8792 155.995 94.8565 158.597Z" fill="#1B3139"/>
<defs>
<filter id="filter0_b_43_1490" x="321.065" y="-40" width="628" height="175" filterUnits="userSpaceOnUse" color-interpolation-filters="sRGB">
<feFlood flood-opacity="0" result="BackgroundImageFix"/>
<feGaussianBlur in="BackgroundImageFix" stdDeviation="29"/>
<feComposite in2="SourceAlpha" operator="in" result="effect1_backgroundBlur_43_1490"/>
<feBlend mode="normal" in="SourceGraphic" in2="effect1_backgroundBlur_43_1490" result="shape"/>
</filter>
<pattern id="pattern0" patternContentUnits="objectBoundingBox" width="1" height="1">
<use xlink:href="#image0_43_1490" transform="matrix(0.000531915 0 0 0.00131948 0 -0.326653)"/>
</pattern>
<pattern id="pattern1" patternContentUnits="objectBoundingBox" width="1" height="1">
<use xlink:href="#image1_43_1490" transform="matrix(0.0005 0 0 0.00124031 0 -0.404186)"/>
</pattern>
<clipPath id="clip0_43_1490">
<rect width="88" height="18" fill="white" transform="translate(568.065 38.5)"/>
</clipPath>
<clipPath id="clip1_43_1490">
<rect x="80" y="619" width="1280" height="516" rx="12" fill="white"/>
</clipPath>
</defs>
</svg>
