<svg width="31" height="31" viewBox="0 0 31 31" fill="none" xmlns="http://www.w3.org/2000/svg">
<path d="M24.3373 9.82532C24.2573 9.81198 24.164 9.81198 24.084 9.82532C22.244 9.75865 20.7773 8.25198 20.7773 6.38532C20.7773 4.47865 22.3107 2.94531 24.2173 2.94531C26.124 2.94531 27.6573 4.49198 27.6573 6.38532C27.644 8.25198 26.1773 9.75865 24.3373 9.82532Z" stroke="#41A36E" stroke-width="1.5" stroke-linecap="round" stroke-linejoin="round"/>
<path d="M24.3373 9.82532C24.2573 9.81198 24.164 9.81198 24.084 9.82532C22.244 9.75865 20.7773 8.25198 20.7773 6.38532C20.7773 4.47865 22.3107 2.94531 24.2173 2.94531C26.124 2.94531 27.6573 4.49198 27.6573 6.38532C27.644 8.25198 26.1773 9.75865 24.3373 9.82532Z" stroke="black" stroke-opacity="0.2" stroke-width="1.5" stroke-linecap="round" stroke-linejoin="round"/>
<path d="M22.9638 19.5322C24.7905 19.8389 26.8038 19.5189 28.2172 18.5722C30.0972 17.3189 30.0972 15.2655 28.2172 14.0122C26.7905 13.0655 24.7505 12.7455 22.9238 13.0655" stroke="#41A36E" stroke-width="1.5" stroke-linecap="round" stroke-linejoin="round"/>
<path d="M22.9638 19.5322C24.7905 19.8389 26.8038 19.5189 28.2172 18.5722C30.0972 17.3189 30.0972 15.2655 28.2172 14.0122C26.7905 13.0655 24.7505 12.7455 22.9238 13.0655" stroke="black" stroke-opacity="0.2" stroke-width="1.5" stroke-linecap="round" stroke-linejoin="round"/>
<path d="M8.29656 9.82727C8.37656 9.81394 8.4699 9.81394 8.5499 9.82727C10.3899 9.7606 11.8566 8.25393 11.8566 6.38727C11.8566 4.4806 10.3232 2.94727 8.41656 2.94727C6.5099 2.94727 4.97656 4.49393 4.97656 6.38727C4.9899 8.25393 6.45656 9.7606 8.29656 9.82727Z" stroke="#41A36E" stroke-width="1.5" stroke-linecap="round" stroke-linejoin="round"/>
<path d="M8.29656 9.82727C8.37656 9.81394 8.4699 9.81394 8.5499 9.82727C10.3899 9.7606 11.8566 8.25393 11.8566 6.38727C11.8566 4.4806 10.3232 2.94727 8.41656 2.94727C6.5099 2.94727 4.97656 4.49393 4.97656 6.38727C4.9899 8.25393 6.45656 9.7606 8.29656 9.82727Z" stroke="black" stroke-opacity="0.2" stroke-width="1.5" stroke-linecap="round" stroke-linejoin="round"/>
<path d="M9.67114 19.5341C7.84448 19.8408 5.83115 19.5208 4.41781 18.5741C2.53781 17.3208 2.53781 15.2675 4.41781 14.0141C5.84448 13.0675 7.88448 12.7475 9.71114 13.0675" stroke="#41A36E" stroke-width="1.5" stroke-linecap="round" stroke-linejoin="round"/>
<path d="M9.67114 19.5341C7.84448 19.8408 5.83115 19.5208 4.41781 18.5741C2.53781 17.3208 2.53781 15.2675 4.41781 14.0141C5.84448 13.0675 7.88448 12.7475 9.71114 13.0675" stroke="black" stroke-opacity="0.2" stroke-width="1.5" stroke-linecap="round" stroke-linejoin="round"/>
<path d="M16.3315 19.7863C16.2515 19.7729 16.1582 19.7729 16.0782 19.7863C14.2382 19.7196 12.7715 18.2129 12.7715 16.3463C12.7715 14.4396 14.3048 12.9062 16.2115 12.9062C18.1181 12.9062 19.6515 14.4529 19.6515 16.3463C19.6382 18.2129 18.1715 19.7329 16.3315 19.7863Z" stroke="#41A36E" stroke-width="1.5" stroke-linecap="round" stroke-linejoin="round"/>
<path d="M16.3315 19.7863C16.2515 19.7729 16.1582 19.7729 16.0782 19.7863C14.2382 19.7196 12.7715 18.2129 12.7715 16.3463C12.7715 14.4396 14.3048 12.9062 16.2115 12.9062C18.1181 12.9062 19.6515 14.4529 19.6515 16.3463C19.6382 18.2129 18.1715 19.7329 16.3315 19.7863Z" stroke="black" stroke-opacity="0.2" stroke-width="1.5" stroke-linecap="round" stroke-linejoin="round"/>
<path d="M12.453 23.9858C10.573 25.2391 10.573 27.2924 12.453 28.5458C14.5863 29.9724 18.0796 29.9724 20.213 28.5458C22.093 27.2924 22.093 25.2391 20.213 23.9858C18.093 22.5724 14.5863 22.5724 12.453 23.9858Z" stroke="#41A36E" stroke-width="1.5" stroke-linecap="round" stroke-linejoin="round"/>
<path d="M12.453 23.9858C10.573 25.2391 10.573 27.2924 12.453 28.5458C14.5863 29.9724 18.0796 29.9724 20.213 28.5458C22.093 27.2924 22.093 25.2391 20.213 23.9858C18.093 22.5724 14.5863 22.5724 12.453 23.9858Z" stroke="black" stroke-opacity="0.2" stroke-width="1.5" stroke-linecap="round" stroke-linejoin="round"/>
</svg>
