<svg width="68" height="68" viewBox="0 0 68 68" fill="none" xmlns="http://www.w3.org/2000/svg">
<circle cx="34" cy="34" r="32" fill="#AC5A31"/>
<circle cx="34" cy="34" r="32.6667" stroke="black" stroke-opacity="0.08" stroke-width="1.33333"/>
<mask id="mask0_576_5941" style="mask-type:alpha" maskUnits="userSpaceOnUse" x="2" y="2" width="64" height="64">
<circle cx="34" cy="34" r="32" fill="#AC5A31"/>
<circle cx="34" cy="34" r="31.3333" stroke="black" stroke-opacity="0.08" stroke-width="1.33333"/>
</mask>
<g mask="url(#mask0_576_5941)">
<path d="M62.0645 65.9828H33.9363H5.80811V65.9665C5.8244 65.6462 6.30768 61.2966 7.86614 57.3489C7.90596 57.2439 7.94759 57.1407 7.99103 57.0394C8.13945 56.681 8.29512 56.3298 8.45803 55.9859C8.50509 55.8882 8.55396 55.7904 8.60464 55.6927C8.6517 55.5949 8.70057 55.499 8.75125 55.4049C8.80193 55.3072 8.85261 55.2112 8.9033 55.1171C8.9576 55.023 9.0119 54.9289 9.0662 54.8347C9.11688 54.7442 9.17118 54.6537 9.22911 54.5632C9.39201 54.2917 9.56396 54.0293 9.74497 53.7758C9.78479 53.7252 9.8228 53.6727 9.859 53.6184C9.93864 53.517 10.0165 53.4175 10.0925 53.3197C10.1323 53.269 10.174 53.2202 10.2174 53.1731C10.2789 53.0971 10.3441 53.0211 10.4129 52.945C10.5106 52.8328 10.612 52.726 10.717 52.6247C10.7496 52.5885 10.7839 52.5541 10.8201 52.5215C11.3469 52.011 11.9225 51.5984 12.5524 51.3051C14.2357 50.5395 16.1526 49.7955 17.7545 49.0951C17.8232 49.0625 17.892 49.0317 17.9608 49.0027C18.1671 48.9086 18.3663 48.8163 18.5581 48.7258C18.5617 48.7258 18.5654 48.7258 18.569 48.7258C18.5726 48.7222 18.5762 48.7204 18.5798 48.7204C19.8776 48.1122 21.485 47.3791 22.3647 46.9556C22.5095 46.8868 22.6325 46.8252 22.7339 46.7709C22.7773 46.7492 22.8208 46.7275 22.8642 46.7058C22.9077 46.6841 22.9493 46.6623 22.9891 46.6406C24.0426 46.0759 24.8408 45.3537 25.4381 44.5066C26.9749 42.3182 27.1595 39.3208 26.9043 36.2907C26.8608 35.6989 26.7957 35.107 26.7196 34.5205C28.1695 35.2156 31.8783 36.1876 34.0069 36.2093C36.1193 36.1821 40.6426 35.1178 41.8861 34.5205C41.4354 38.0447 41.6091 40.2113 42.0218 42.5517C42.0653 42.8087 42.125 43.0531 42.201 43.2848C42.277 43.5273 42.3675 43.759 42.4725 43.9798C43.0047 45.1202 43.8952 45.9944 45.0084 46.7058C45.0899 46.7547 45.1768 46.7872 45.2636 46.8307C45.2745 46.8361 45.2908 46.8415 45.3016 46.8524C45.3777 46.8886 45.4664 46.9302 45.5677 46.9773C46.518 47.4334 48.5054 48.3566 50.0748 49.0842C50.0856 49.0878 50.0965 49.0932 50.1073 49.1005C50.111 49.1005 50.1128 49.1005 50.1128 49.1005C50.1598 49.1222 50.2069 49.1439 50.254 49.1656C50.3988 49.2344 50.5472 49.3014 50.6992 49.3666C51.5626 49.7467 52.5401 50.1322 53.5012 50.5286C53.617 50.5757 53.7311 50.6227 53.8433 50.6698C53.9555 50.7169 54.0677 50.7639 54.18 50.811C54.2922 50.858 54.4026 50.9051 54.5112 50.9522C54.6198 50.9992 54.7284 51.0463 54.837 51.0933C54.9456 51.1404 55.0524 51.1875 55.1574 51.2345C55.2117 51.2599 55.266 51.2852 55.3203 51.3106C55.6515 51.4626 55.9719 51.6472 56.276 51.8644C56.352 51.9224 56.4262 51.9803 56.4986 52.0382C56.5747 52.0961 56.6489 52.1559 56.7213 52.2174C56.7937 52.2789 56.8643 52.3423 56.933 52.4074C58.5295 53.8899 59.6644 56.2303 60.4518 58.5544C60.4735 58.6232 60.497 58.6938 60.5224 58.7662C60.5477 58.8494 60.5749 58.9327 60.6038 59.0159C60.6256 59.0847 60.6473 59.1553 60.669 59.2277C61.6953 62.5075 62.0482 65.5864 62.0591 65.9448C62.0591 65.9485 62.0591 65.9521 62.0591 65.9557C62.0591 65.9738 62.0609 65.9828 62.0645 65.9828Z" fill="#7C3D41"/>
<path d="M61.324 65.3162H33.9363H6.55251C6.56027 65.258 6.56863 65.1967 6.57763 65.1324C6.64809 64.6285 6.75678 63.9435 6.91303 63.1462C7.22624 61.548 7.72717 59.5165 8.48623 57.5937L8.48629 57.5937L8.48947 57.5853C8.52602 57.489 8.56413 57.3945 8.60379 57.302L8.60384 57.302L8.60696 57.2945C8.75097 56.9467 8.90187 56.6063 9.05964 56.2732C9.10352 56.1821 9.14912 56.0909 9.19647 55.9996L9.20102 55.9908L9.20531 55.9819C9.24808 55.8931 9.29239 55.8061 9.33823 55.721L9.3383 55.721L9.34309 55.7118C9.39068 55.62 9.43821 55.53 9.48567 55.4417L9.64366 55.1679L9.64371 55.1679L9.64787 55.1605C9.69194 55.0818 9.73949 55.0025 9.79062 54.9226L9.79581 54.9145L9.80077 54.9062C9.95223 54.6538 10.1117 54.41 10.2793 54.1748C10.3207 54.1216 10.3604 54.0669 10.3984 54.011C10.473 53.9159 10.5461 53.8224 10.6177 53.7304C10.6464 53.6939 10.6762 53.6589 10.7073 53.6253L10.7219 53.6094L10.7356 53.5926C10.789 53.5265 10.8462 53.4597 10.9072 53.3923L10.9073 53.3924L10.9156 53.3829C11.001 53.2849 11.0891 53.192 11.18 53.1043L11.1969 53.088L11.2125 53.0706C11.2294 53.0518 11.2473 53.034 11.2661 53.017L11.2753 53.0088L11.2841 53.0002C11.7646 52.5345 12.2791 52.1681 12.8311 51.9107C13.8019 51.4692 14.8187 51.0483 15.8215 50.6332C16.5709 50.3229 17.3126 50.0159 18.0216 49.7059L18.0308 49.7018L18.0398 49.6975C18.1 49.6691 18.1599 49.6423 18.2195 49.6172L18.2285 49.6134L18.2375 49.6093C18.3981 49.536 18.5546 49.4637 18.7069 49.3925H18.8451L18.9583 49.2793C19.4472 49.0505 19.9802 48.8038 20.5 48.5632C21.3284 48.1796 22.1232 47.8117 22.6523 47.557M61.324 65.3162L42.0218 42.5517L41.3653 42.6675C41.3651 42.6666 41.365 42.6657 41.3648 42.6648C40.9863 40.5171 40.8048 38.5019 41.1006 35.5246M61.324 65.3162C61.1811 64.2093 60.8001 61.879 60.0327 59.4268L60.0304 59.4193L60.0304 59.4193C60.0105 59.3529 59.9907 59.2883 59.9709 59.2255C59.9418 59.1416 59.9144 59.0576 59.8886 58.9734C59.8637 58.9018 59.8402 58.8313 59.8182 58.7619C59.042 56.4725 57.9514 54.2629 56.4794 52.896L56.4745 52.8914L56.4745 52.8914C56.4145 52.8345 56.3528 52.7791 56.2895 52.7254C56.2262 52.6716 56.1612 52.6193 56.0946 52.5685L56.0883 52.5637L56.0822 52.5588C56.0166 52.5063 55.9493 52.4538 55.8802 52.401C55.6134 52.2113 55.3326 52.0497 55.0422 51.9164L55.0384 51.9147L54.8801 51.8408C54.7792 51.7956 54.6765 51.7504 54.5719 51.7051L54.837 51.0933M61.324 65.3162L54.837 51.0933M22.6523 47.557C22.6518 47.5573 22.6512 47.5575 22.6507 47.5578L22.3647 46.9556L22.6539 47.5562C22.6533 47.5565 22.6528 47.5567 22.6523 47.557ZM22.6523 47.557C22.7989 47.4873 22.9288 47.4226 23.0402 47.3631M23.0402 47.3631L23.1624 47.3021L22.8642 46.7058M23.0402 47.3631C23.0431 47.3616 23.0459 47.3601 23.0487 47.3586L22.7339 46.7709M23.0402 47.3631L23.032 47.3672L22.7339 46.7709M22.8642 46.7058L23.1624 47.3021C23.2116 47.2774 23.2596 47.2525 23.3061 47.2271M22.8642 46.7058C22.9077 46.6841 22.9493 46.6623 22.9891 46.6406M22.8642 46.7058L22.7339 46.7709M23.3061 47.2271C24.4476 46.6148 25.3247 45.8242 25.983 44.8908L25.9837 44.8897C27.6631 42.4981 27.8259 39.2942 27.5689 36.2384M23.3061 47.2271C23.3054 47.2275 23.3048 47.2278 23.3041 47.2282L22.9891 46.6406M23.3061 47.2271C23.3068 47.2267 23.3076 47.2263 23.3084 47.2259L22.9891 46.6406M27.5689 36.2384C27.5521 36.0102 27.5322 35.7825 27.5098 35.5555M27.5689 36.2384C27.569 36.2396 27.5691 36.2408 27.5691 36.2419L26.9043 36.2907L27.5686 36.2348C27.5687 36.236 27.5688 36.2372 27.5689 36.2384ZM27.5098 35.5555C28.2205 35.8048 29.0766 36.0536 29.952 36.2654C31.3441 36.6022 32.8608 36.8643 34.0001 36.8759L34.0078 36.876L34.0155 36.8759C35.1437 36.8614 36.8583 36.5755 38.4168 36.2295C39.3901 36.0135 40.3491 35.7637 41.1006 35.5246M27.5098 35.5555C27.2569 35.4667 27.0224 35.3779 26.812 35.2906L27.4286 34.817M27.5098 35.5555C27.4855 35.3082 27.4581 35.0619 27.4286 34.817M41.1006 35.5246C41.3597 35.4421 41.5941 35.361 41.7959 35.2829L27.4286 34.817M41.1006 35.5246C41.1241 35.2882 41.1506 35.0459 41.1802 34.7969C39.4147 35.3974 35.8214 36.186 34.0069 36.2093C32.1684 36.1905 29.1511 35.4629 27.4286 34.817M49.9763 49.7671L49.9746 49.771L49.9712 49.7694C49.9701 49.7689 49.969 49.7684 49.9679 49.7678L49.9682 49.7671M49.9763 49.7671H50.1073H50.1074H50.1074H50.1075H50.1075H50.1075H50.1076H50.1076H50.1077H50.1077H50.1078H50.1078H50.1078H50.1079H50.1079H50.108H50.108H50.108H50.1081H50.1081H50.1082H50.1082H50.1082H50.1083H50.1083H50.1083H50.1084H50.1084H50.1085H50.1085H50.1085H50.1086H50.1086H50.1086H50.1087H50.1087H50.1088H50.1088H50.1088H50.1089H50.1089H50.1089H50.109H50.109H50.109H50.1091H50.1091H50.1091H50.1092H50.1092H50.1093H50.1093H50.1093H50.1094H50.1094H50.1094H50.1095H50.1095H50.1095H50.1096H50.1096H50.1096H50.1096H50.1097H50.1097H50.1097H50.1098H50.1098H50.1098H50.1099H50.1099H50.1099H50.11H50.11H50.11H50.1101H50.1101H50.1101H50.1102H50.1102H50.1102H50.1103H50.1103H50.1103H50.1104H50.1104H50.1105H50.1105H50.1105H50.1106H50.1106H50.1107H50.1107H50.1107H50.1108H50.1108H50.1109H50.1109H50.1109H50.111H50.111H50.111H50.1111H50.1111H50.1112H50.1112H50.1112H50.1113H50.1113H50.1113H50.1114H50.1114H50.1114H50.1115H50.1115H50.1115H50.1115H50.1116H50.1116H50.1116H50.1117H50.1117H50.1118H50.1118H50.1118H50.1119H50.1119H50.1119H50.112H50.112H50.112H50.112H50.1121H50.1121H50.1121H50.1122H50.1122H50.1122H50.1123H50.1123H50.1123H50.1124H50.1124H50.1124H50.1125H50.1125H50.1125H50.1126H50.1126H50.1126H50.1126H50.1127H50.1127H50.1127L50.1128 49.4716M49.9763 49.7671H49.9682M49.9763 49.7671L50.1073 49.4833L50.1128 49.4716M50.1128 49.4716L50.254 49.1656L50.1128 49.4629M50.1128 49.4716V49.4629M50.1128 49.4629L50.1128 49.1005L50.1073 49.1122L49.9564 49.4394L49.8335 49.7055M50.1128 49.4629L50.1073 49.4743L49.9682 49.7671M49.8335 49.7055C49.8197 49.7 49.8068 49.6942 49.7947 49.6882C49.7729 49.6774 49.7538 49.6661 49.7375 49.6552L49.7745 49.6798C49.7811 49.6829 49.7877 49.6859 49.7943 49.689L49.8284 49.7048L49.8387 49.7082M49.8335 49.7055L49.8334 49.7058L49.8387 49.7082M49.8335 49.7055C49.8432 49.7094 49.8534 49.7131 49.8639 49.7166L49.8387 49.7082M49.8387 49.7082L49.904 49.7384L49.9663 49.7671H49.9682M54.837 51.0933L54.5719 51.705L54.2461 51.5639C54.14 51.5179 54.032 51.4718 53.9221 51.4258L53.5855 51.2846C53.4756 51.2385 53.3639 51.1924 53.2503 51.1463L53.247 51.1449C52.9663 51.0292 52.6813 50.9132 52.3965 50.7972C51.7212 50.5224 51.0469 50.248 50.4335 49.978L54.837 51.0933ZM22.9891 46.6406L22.7339 46.7709M22.9891 46.6406C24.0426 46.0759 24.8408 45.3537 25.4381 44.5066L22.9891 46.6406ZM42.201 43.2848L41.5649 43.4842C41.5653 43.4856 41.5658 43.487 41.5662 43.4884C41.5667 43.4898 41.5671 43.4912 41.5676 43.4926L42.201 43.2848ZM45.2792 47.5783C45.2805 47.5789 45.2818 47.5796 45.2831 47.5802C45.2844 47.5808 45.2857 47.5814 45.287 47.582L45.5677 46.9773L45.2792 47.5783ZM44.8302 47.3238L44.905 47.3986C44.9296 47.4097 44.9457 47.4171 44.9655 47.427C44.9763 47.4324 44.9853 47.4365 44.9905 47.4389L44.9998 47.4431C44.9972 47.4419 44.9913 47.4392 44.9845 47.4358C44.9797 47.4334 44.9735 47.4302 44.966 47.4261C44.9549 47.42 44.9413 47.4121 44.9262 47.4021C44.9007 47.3853 44.8664 47.3599 44.8302 47.3238ZM41.8684 44.2618C41.8687 44.2625 41.8691 44.2632 41.8694 44.2639C41.8698 44.2646 41.8701 44.2654 41.8704 44.2661L42.4725 43.9798L41.8684 44.2618Z" stroke="black" stroke-opacity="0.08" stroke-width="1.33333"/>
<path d="M42.4726 43.9798C39.3557 44.0993 36.0759 43.6269 33.4314 42.4322C30.5317 41.1236 28.6203 39.1199 26.9478 36.85C26.8989 36.2582 26.7957 35.107 26.7197 34.5205C28.1696 35.2101 31.8784 36.1876 34.007 36.2093C36.1193 36.1821 40.6427 35.1178 41.8862 34.5205C41.4355 38.0393 41.6092 40.2113 42.0219 42.5517C42.1142 43.073 42.2663 43.5454 42.4726 43.9798Z" fill="#592739"/>
<path d="M41.5181 43.3311C38.7672 43.3292 35.9763 42.8504 33.7059 41.8247L33.7056 41.8246C31.0138 40.6098 29.2057 38.7633 27.5963 36.6054C27.5711 36.3089 27.5372 35.9275 27.5009 35.5503C28.2129 35.7999 29.0724 36.05 29.9517 36.2633C31.3436 36.6007 32.8605 36.8643 34.0002 36.8759L34.0079 36.876L34.0156 36.8759C35.1438 36.8614 36.8584 36.5755 38.4169 36.2295C39.3901 36.0135 40.349 35.7637 41.1006 35.5246C40.8048 38.4995 40.9866 40.5192 41.3654 42.6675L41.3655 42.668C41.4059 42.8964 41.4569 43.1173 41.5181 43.3311Z" stroke="black" stroke-opacity="0.08" stroke-width="1.33333"/>
<path d="M62.1679 65.9828H33.9365H5.70508V65.9611C5.71594 65.6244 6.20465 60.9653 7.76854 56.7298C7.80836 56.6212 7.84999 56.5126 7.89343 56.404C8.04186 56.0203 8.19933 55.642 8.36586 55.2691C8.41292 55.1641 8.45998 55.0591 8.50704 54.9542C8.55772 54.8528 8.6084 54.7496 8.65909 54.6446C8.70977 54.5433 8.76045 54.4419 8.81113 54.3406C8.86181 54.2392 8.9143 54.1396 8.9686 54.0419C9.0229 53.9405 9.07902 53.8428 9.13694 53.7487C9.29985 53.4554 9.47361 53.1749 9.65824 52.907C9.69444 52.8491 9.73245 52.793 9.77227 52.7387C9.84829 52.6264 9.92612 52.5178 10.0058 52.4128C10.0456 52.3622 10.0854 52.3097 10.1252 52.2554C10.1904 52.1757 10.2555 52.0961 10.3207 52.0164C10.4221 51.897 10.5253 51.7811 10.6302 51.6689C10.6628 51.6327 10.6972 51.5947 10.7334 51.5549C11.2601 51.0119 11.8412 50.5666 12.4711 50.2571C14.1598 49.4371 16.0875 48.6389 17.6949 47.8841C17.7637 47.8515 17.8324 47.8189 17.9012 47.7864C18.1076 47.6886 18.3067 47.5909 18.4985 47.4931C18.5021 47.4931 18.5058 47.4913 18.5094 47.4877C18.513 47.4877 18.5166 47.4877 18.5202 47.4877C19.8235 46.8361 21.4417 46.0487 22.3214 45.5926C22.4662 45.5202 22.5893 45.4568 22.6906 45.4025C22.7341 45.3772 22.7793 45.3518 22.8264 45.3265C22.8227 45.3265 22.8227 45.3265 22.8264 45.3265C22.8662 45.3048 22.906 45.2812 22.9458 45.2559C24.0047 44.6532 25.3677 44.197 25.9324 42.8178C28.2457 44.6749 30.977 45.9835 34.3003 45.9184C38.3783 45.9835 40.306 43.6649 42.2283 41.6611C42.3043 41.9218 42.3967 42.1716 42.5053 42.4105C43.0374 43.6269 43.9334 44.5663 45.052 45.3265C45.1334 45.3808 45.2203 45.4188 45.3072 45.4622C45.3181 45.4677 45.3289 45.4785 45.3452 45.484C45.4212 45.5238 45.5099 45.569 45.6113 45.6197C46.567 46.1084 48.5599 47.0967 50.1346 47.8787C50.1455 47.8823 50.1563 47.8859 50.1672 47.8895C50.1672 47.8931 50.1672 47.895 50.1672 47.895C50.1708 47.895 50.1726 47.895 50.1726 47.895C50.2197 47.9167 50.2668 47.9402 50.3138 47.9655C50.4586 48.0343 50.6089 48.1049 50.7645 48.1773C51.6279 48.5846 52.6108 48.9973 53.5773 49.4263C53.6896 49.4733 53.8036 49.5222 53.9194 49.5729C53.9194 49.5765 53.9194 49.5765 53.9194 49.5729C54.0317 49.6236 54.1439 49.6742 54.2561 49.7249C54.3683 49.7756 54.4788 49.8263 54.5874 49.877C54.6996 49.9276 54.81 49.9783 54.9186 50.029C55.0272 50.0797 55.134 50.1304 55.239 50.1811C55.2933 50.2064 55.3458 50.2335 55.3964 50.2625C55.7331 50.4254 56.0535 50.6263 56.3576 50.8598C56.4336 50.9177 56.5096 50.9775 56.5857 51.039C56.6581 51.1006 56.7305 51.1657 56.8029 51.2345C56.8029 51.2345 56.8047 51.2345 56.8083 51.2345C56.8771 51.2997 56.9477 51.3666 57.0201 51.4354C58.622 53.021 59.7623 55.5352 60.5497 58.0276C60.575 58.1 60.5985 58.1742 60.6203 58.2503C60.6492 58.3371 60.6764 58.4258 60.7017 58.5163C60.7271 58.5924 60.7506 58.6684 60.7723 58.7444C61.7986 62.2632 62.1516 65.5593 62.1679 65.9448V65.9557C62.1679 65.9738 62.1679 65.9828 62.1679 65.9828Z" fill="#FCFAFB"/>
<path d="M7.76854 56.7298C6.5068 60.147 5.94491 63.8399 5.76919 65.3161H6.44068M7.76854 56.7298L53.6487 50.1821C53.5371 50.1333 53.4274 50.0863 53.3195 50.0411L53.3068 50.0357L53.3069 50.0356C52.9936 49.8966 52.6739 49.7572 52.3547 49.6181C51.7087 49.3366 51.065 49.0561 50.4818 48.7811M7.76854 56.7298C7.80836 56.6212 7.84999 56.5126 7.89343 56.404M7.76854 56.7298L7.89343 56.404M6.44068 65.3161C6.42174 65.4715 6.4069 65.6038 6.39581 65.7104C6.3874 65.7913 6.38126 65.8564 6.37713 65.9049C6.37507 65.9292 6.3736 65.9483 6.37262 65.9626C6.37221 65.9686 6.37193 65.973 6.37174 65.9762V65.9828H33.9365H62.1679L61.5012 65.9828V65.9828V65.9827V65.9827V65.9827V65.9826V65.9826V65.9826V65.9826V65.9825V65.9825V65.9825V65.9824V65.9824V65.9823V65.9823V65.9823V65.9822V65.9822V65.9822V65.9821V65.9821V65.9821V65.982V65.982V65.982V65.9819V65.9819V65.9819V65.9818V65.9818V65.9817V65.9817V65.9816V65.9816V65.9816V65.9815V65.9815V65.9814V65.9814V65.9813V65.9813V65.9812V65.9812V65.9811V65.9811V65.981V65.981V65.9809V65.9809V65.9808V65.9808V65.9808V65.9808V65.9807V65.9807V65.9807V65.9806V65.9806V65.9806V65.9805V65.9805V65.9805V65.9804V65.9804V65.9804V65.9804V65.9803V65.9803V65.9803V65.9802V65.9802V65.9802V65.9801V65.9801V65.9801V65.98V65.98V65.98V65.9799V65.9799V65.9799V65.9798V65.9798V65.9797V65.9797V65.9797V65.9796V65.9796V65.9796V65.9795V65.9795V65.9795V65.9794V65.9794V65.9793V65.9793V65.9793V65.9792V65.9792V65.9792V65.9791V65.9791V65.979V65.979V65.979V65.9789V65.9789V65.9788V65.9788V65.9788V65.9787V65.9787V65.9786V65.9786V65.9785V65.9785V65.9785V65.9784V65.9784V65.9783V65.9783V65.9782V65.9782V65.9782V65.9781V65.9781V65.978V65.978V65.9779V65.9779V65.9778V65.9778V65.9778V65.9777V65.9777V65.9776V65.9776V65.9775V65.9775V65.9774V65.9774V65.9773V65.9773V65.9772V65.9772V65.9771V65.9771V65.977V65.977V65.9769V65.9769V65.9768V65.9768V65.9767V65.9767V65.9766V65.9766V65.9765V65.9765V65.9764V65.9764V65.9763V65.9763V65.9762V65.9762V65.9761V65.9761V65.976V65.976V65.9759V65.9759V65.9758V65.9758V65.9757V65.9756V65.9756V65.9755V65.9755V65.9754V65.9754V65.9753V65.9753V65.9752V65.9751V65.9751V65.975V65.975V65.9749V65.9749V65.9748V65.9747V65.9747V65.9746V65.9746V65.9745V65.9745V65.9744V65.9743V65.9743V65.9742V65.9742V65.9741V65.974V65.974V65.9739V65.9739V65.9738V65.9737V65.9737V65.9736V65.9736V65.9735V65.9734V65.9734V65.9733V65.9732V65.9732V65.9731V65.973V65.973V65.9729V65.9729V65.9728V65.9727V65.9727V65.9726V65.9725V65.9725V65.9724V65.9723V65.9723V65.9722V65.9721V65.9721V65.972V65.9719V65.9719V65.9718V65.9717V65.9717V65.9716V65.9715V65.9715V65.9714V65.9713V65.9713V65.9712V65.9711V65.971V65.971V65.9709V65.9708V65.9708V65.9707V65.9706V65.9706V65.9705V65.9704V65.9703V65.9703V65.9702V65.9701V65.9701V65.97V65.9699V65.9698V65.9698V65.9697V65.9696V65.9695V65.9695V65.9694V65.9693V65.9692V65.9692V65.9691V65.969V65.9689V65.9689V65.9688V65.9687V65.9686V65.9686V65.9685V65.9684V65.9683V65.9682V65.9682V65.9681V65.968V65.9679V65.9679V65.9678V65.9677V65.9676V65.9675V65.9675V65.9674V65.9673V65.9672V65.9671V65.9671V65.967V65.9669V65.9668V65.9667V65.9667V65.9666V65.9665V65.9664V65.9663V65.9662V65.9662V65.9661V65.966V65.9659V65.9658V65.9657V65.9657V65.9656V65.9655V65.9654V65.9653V65.9652V65.9651V65.9651V65.965V65.9649V65.9648V65.9647V65.9646V65.9645V65.9645V65.9644V65.9643V65.9642V65.9641V65.964V65.9639V65.9638V65.9637V65.9637V65.9636V65.9635V65.9634V65.9633V65.9632V65.9631V65.963V65.9629V65.9629V65.9628V65.9627V65.9626V65.9625V65.9624V65.9623V65.9622V65.9621V65.962V65.9619V65.9618V65.9617V65.9617V65.9616V65.9615V65.9614V65.9613V65.9612V65.9611V65.961V65.9609V65.9608V65.9607C61.4965 65.8743 61.4759 65.6501 61.4358 65.3161M6.44068 65.3161H33.9365H61.4358M6.44068 65.3161C6.45043 65.2362 6.46126 65.1502 6.47322 65.0585C6.54365 64.5185 6.65289 63.7837 6.81011 62.928C7.12521 61.2131 7.62994 59.0299 8.39394 56.9607L8.39446 56.9593C8.43203 56.8569 8.47135 56.7543 8.51242 56.6516L8.51246 56.6516L8.51521 56.6445C8.65951 56.2714 8.81255 55.9038 8.97433 55.5415L8.9742 55.5418L8.36586 55.2691M61.4358 65.3161H62.107C61.968 64.1271 61.5773 61.5042 60.7723 58.7444C60.7506 58.6684 60.7271 58.5924 60.7017 58.5163C60.6764 58.4258 60.6492 58.3371 60.6203 58.2503C60.5985 58.1742 60.575 58.1 60.5497 58.0276C59.7623 55.5352 58.622 53.021 57.0201 51.4354M61.4358 65.3161C61.2945 64.1399 60.9115 61.6025 60.1323 58.9311L60.1313 58.9276C60.1123 58.861 60.0916 58.7942 60.0693 58.7272L60.0641 58.7117L60.0597 58.6961C60.0372 58.6157 60.0132 58.5374 59.9878 58.4611L59.9832 58.4473L59.9792 58.4334C59.961 58.3694 59.9413 58.3076 59.9204 58.2479L59.9171 58.2382L59.914 58.2285C59.1365 55.7672 58.0374 53.3833 56.556 51.9141M57.0201 51.4354L56.8083 51.2345M57.0201 51.4354L56.8083 51.6494V51.2345M57.0201 51.4354L56.8083 51.6584V51.9012H56.8082H56.8082H56.8082H56.8081H56.8081H56.808H56.808H56.808H56.8079H56.8079H56.8078H56.8078H56.8078H56.8077H56.8077H56.8076H56.8076H56.8076H56.8075H56.8075H56.8074H56.8074H56.8074H56.8073H56.8073H56.8072H56.8072H56.8072H56.8071H56.8071H56.8071H56.807H56.807H56.8069H56.8069H56.8069H56.8068H56.8068H56.8068H56.8067H56.8067H56.8067H56.8066H56.8066H56.8065H56.8065H56.8065H56.8064H56.8064H56.8064H56.8063H56.8063H56.8063H56.8062H56.8062H56.8062H56.8061H56.8061H56.8061H56.806H56.806H56.806H56.8059H56.8059H56.8059H56.8059H56.8058H56.8058H56.8058H56.8057H56.8057H56.8057H56.8056H56.8056H56.8056H56.8055H56.8055H56.8055H56.8054H56.8054H56.8054H56.8053H56.8053H56.8052H56.8052H56.8051H56.8051H56.8051H56.805H56.805H56.8049H56.8049H56.8049H56.8048H56.8048H56.8048H56.8047H56.8047H56.8046H56.8046H56.8046H56.8045H56.8045H56.8045H56.8044H56.8044H56.8044H56.8043H56.8043H56.8043H56.8042H56.8042H56.8042H56.8041H56.8041H56.8041H56.804H56.804H56.804H56.8039H56.8039H56.8039H56.8038H56.8038H56.8038H56.8037H56.8037H56.8037H56.8036H56.8036H56.8036H56.8035H56.8035H56.8035H56.8034H56.8034H56.8034H56.8033H56.8033H56.8033H56.8032H56.8032H56.8032H56.8031H56.8031H56.8031H56.8031H56.803H56.803H56.803H56.8029H56.8029H56.8029H56.5776L56.5609 51.9188L56.556 51.9141M56.8083 51.2345H56.8029C56.7305 51.1657 56.6581 51.1006 56.5857 51.039M56.8083 51.2345L56.8029 51.2402L56.3498 51.7185L56.5424 51.9012M56.5857 51.039C56.5096 50.9775 56.4336 50.9177 56.3576 50.8598C56.0535 50.6263 55.7331 50.4254 55.3964 50.2625C55.3458 50.2335 55.2933 50.2064 55.239 50.1811C55.134 50.1304 55.0272 50.0797 54.9186 50.029C54.81 49.9783 54.6996 49.9276 54.5874 49.877C54.4788 49.8263 54.3683 49.7756 54.2561 49.7249L53.9255 49.5756H53.9194H53.9183L53.6522 50.1836L53.9817 50.3325C54.0915 50.3821 54.1994 50.4316 54.3054 50.4811L54.3054 50.4811L54.313 50.4845C54.4227 50.5341 54.5306 50.5836 54.6367 50.6331C54.7427 50.6826 54.8469 50.732 54.9491 50.7814L54.9491 50.7815L54.9571 50.7852C54.9952 50.803 55.0313 50.8217 55.0657 50.8413L55.0855 50.8527L55.1061 50.8626C55.3985 51.0041 55.6804 51.1803 55.9516 51.3886L55.9536 51.3901C56.0222 51.4424 56.091 51.4964 56.1599 51.5521M56.5857 51.039L56.1539 51.547C56.1559 51.5487 56.1579 51.5504 56.1599 51.5521M56.5857 51.039L56.1662 51.5572C56.1641 51.5555 56.162 51.5538 56.1599 51.5521M56.1599 51.5521C56.2205 51.6038 56.2818 51.659 56.3437 51.7178L56.5367 51.9012H56.5424M56.5424 51.9012L56.556 51.9141M56.5424 51.9012H56.5591L56.5511 51.9092C56.5527 51.9108 56.5543 51.9125 56.556 51.9141M8.36586 55.2691L8.97457 55.541L9.04479 55.3843L9.10966 55.2396M8.36586 55.2691L8.50704 54.9542M8.36586 55.2691C8.19933 55.642 8.04186 56.0203 7.89343 56.404M9.10966 55.2396C9.15897 55.1409 9.20822 55.0406 9.25742 54.9387M9.10966 55.2396C9.10755 55.2438 9.10544 55.2481 9.10332 55.2523L8.50704 54.9542M9.10966 55.2396L9.11538 55.2269L8.50704 54.9542M9.25742 54.9387L9.40742 54.6387C9.45385 54.5458 9.50183 54.4548 9.55137 54.3657L9.55144 54.3657L9.55626 54.3567C9.60452 54.2666 9.65403 54.1804 9.70471 54.0981L9.7125 54.0854L9.71971 54.0724C9.87254 53.7973 10.0351 53.535 10.2072 53.2853L10.2156 53.273L10.2236 53.2603C10.2512 53.2162 10.2799 53.1737 10.3099 53.1329L10.3172 53.1229L10.3242 53.1126C10.3927 53.0114 10.4625 52.914 10.5337 52.82M9.25742 54.9387L9.25537 54.9428L8.65909 54.6446M9.25742 54.9387C9.2581 54.9373 9.25878 54.9359 9.25945 54.9345L8.65909 54.6446M10.5337 52.82C10.5734 52.7694 10.6129 52.7174 10.6521 52.6642M10.5337 52.82C10.5324 52.8216 10.5312 52.8232 10.53 52.8247L10.0058 52.4128M10.5337 52.82C10.5347 52.8186 10.5358 52.8172 10.5369 52.8158L10.0058 52.4128M10.6521 52.6642L10.7389 52.5581L10.8328 52.4433M10.6521 52.6642L10.6412 52.6775L10.1252 52.2554M10.6521 52.6642C10.6557 52.6594 10.6593 52.6545 10.6628 52.6496L10.1252 52.2554M10.8328 52.4433C10.9261 52.3335 11.0209 52.2272 11.1171 52.1244L11.1172 52.1244L11.1258 52.1149C11.1553 52.082 11.1865 52.0475 11.2193 52.0114M10.8328 52.4433C10.8316 52.4448 10.8303 52.4463 10.8291 52.4478L10.3207 52.0164M10.8328 52.4433L10.8367 52.4386L10.3207 52.0164M11.2193 52.0114C11.7007 51.5166 12.2182 51.1243 12.7638 50.856M11.2193 52.0114C11.2169 52.014 11.2144 52.0165 11.2119 52.0191L10.7334 51.5549M11.2193 52.0114C11.2218 52.0088 11.2242 52.006 11.2267 52.0033L10.7334 51.5549M12.7638 50.856C13.5962 50.4519 14.4903 50.0518 15.3837 49.6556C15.4983 49.6048 15.613 49.554 15.7275 49.5033C16.5023 49.1601 17.2708 48.8197 17.9782 48.4875L17.9803 48.4866L18.1866 48.3888C18.3513 48.3108 18.5118 48.2327 18.6681 48.1544M12.7638 50.856C12.7642 50.8558 12.7646 50.8556 12.7651 50.8554L12.4711 50.2571L12.7622 50.8568C12.7628 50.8565 12.7633 50.8563 12.7638 50.856ZM18.6681 48.1544H18.6776L18.8184 48.084C19.2941 47.8461 19.8166 47.5878 20.3312 47.3335C21.2099 46.899 22.0654 46.4762 22.6239 46.1866M18.6681 48.1544C18.7013 48.1377 18.7343 48.1211 18.7671 48.1044C18.7845 48.0969 18.801 48.0889 18.8167 48.0805C18.8899 48.0414 18.9449 47.995 18.9808 47.9591L18.5311 47.5094L18.5202 47.4986L18.5094 47.4877M18.6681 48.1544H18.5853C18.5576 48.1579 18.5287 48.1598 18.4985 48.1598V47.4931M22.6239 46.1866C22.7704 46.1134 22.8979 46.0478 23.0054 45.9902L23.0161 45.9845L23.0265 45.9784C23.063 45.9571 23.1016 45.9354 23.1424 45.9135L23.1456 45.9118C23.1939 45.8854 23.2416 45.8574 23.2887 45.8279M22.6239 46.1866C22.6225 46.1874 22.621 46.1881 22.6195 46.1889L22.3214 45.5926M22.6239 46.1866C22.6254 46.1859 22.6268 46.1851 22.6282 46.1844L22.3214 45.5926M23.2887 45.8279C23.4679 45.7263 23.6528 45.6309 23.8538 45.5271C23.9295 45.488 24.0075 45.4478 24.0883 45.4056C24.3787 45.254 24.6915 45.0842 24.9937 44.883C25.4054 44.6091 25.8095 44.2693 26.1363 43.8158M23.2887 45.8279C23.2843 45.8303 23.28 45.8328 23.2756 45.8353L22.9458 45.2559M23.2887 45.8279C23.2937 45.8247 23.2987 45.8215 23.3038 45.8183L22.9458 45.2559M26.1363 43.8158C28.4021 45.4852 31.0829 46.6453 34.3015 46.5851M26.1363 43.8158C25.9571 43.6838 25.7805 43.5486 25.6065 43.4106C25.088 44.1399 24.3018 44.5456 23.5586 44.9292C23.3486 45.0376 23.142 45.1442 22.9458 45.2559M26.1363 43.8158C26.2624 43.641 26.3769 43.4492 26.4759 43.2378C28.6711 44.8688 31.2337 45.9785 34.3003 45.9184M34.3015 46.5851C38.153 46.6426 40.2549 44.6908 41.9876 42.881M34.3015 46.5851C34.2976 46.5851 34.2936 46.585 34.2896 46.585L34.3003 45.9184M34.3015 46.5851C34.3055 46.5851 34.3094 46.585 34.3134 46.5849L34.3003 45.9184M41.9876 42.881C42.5903 44.1409 43.544 45.1077 44.6773 45.8779L44.6822 45.8812C44.789 45.9524 44.9135 46.0123 44.9787 46.0437C44.9794 46.0441 44.9802 46.0445 44.981 46.0449M41.9876 42.881C41.9562 42.8155 41.9258 42.7492 41.8964 42.6821C41.8266 42.5283 41.763 42.3708 41.7056 42.2099C39.9402 44.0644 38.0099 45.9777 34.3003 45.9184M41.9876 42.881C42.1063 42.757 42.2233 42.6337 42.339 42.5117C42.3533 42.4966 42.3675 42.4816 42.3817 42.4666L42.5053 42.4105M44.981 46.0449C45 46.0565 45.026 46.0712 45.0578 46.086M44.981 46.0449C44.9924 46.0504 45.002 46.055 45.0091 46.0585C44.9753 46.0416 44.9513 46.0256 44.9458 46.022L44.9543 46.0278C44.9605 46.0319 44.9694 46.0378 44.981 46.0449ZM45.0578 46.086C45.1325 46.1249 45.2168 46.1678 45.3104 46.2146M45.0578 46.086C45.0504 46.0821 45.0431 46.0783 45.0359 46.0745L45.3452 45.484M45.0578 46.086C45.0805 46.0965 45.1062 46.107 45.1344 46.1164L45.3452 45.484M45.3104 46.2146C46.1988 46.6689 47.971 47.5488 49.4746 48.2953L49.5005 48.3081M45.3104 46.2146C45.3095 46.2142 45.3086 46.2137 45.3078 46.2133L45.6113 45.6197M45.3104 46.2146C45.3113 46.2151 45.3122 46.2155 45.3132 46.216L45.6113 45.6197M49.5005 48.3081V48.5616H50.0149M49.5005 48.3081V47.895V47.8949V47.8949V47.8948V47.8948V47.8948V47.8948V47.8947V47.8947V47.8947V47.8946V47.8946V47.8946V47.8945V47.8945V47.8945V47.8944V47.8944V47.8944V47.8943V47.8943V47.8943V47.8943V47.8942V47.8942V47.8942V47.8941V47.8941V47.8941V47.894V47.894V47.894V47.8939V47.8939V47.8939V47.8938V47.8938V47.8938V47.8937V47.8937V47.8937V47.8936V47.8936V47.8936V47.8935V47.8935V47.8935V47.8934V47.8934V47.8934V47.8933V47.8933V47.8933V47.8932V47.8932V47.8932V47.8931V47.8931V47.8931V47.893V47.893V47.8929V47.8929V47.8929V47.8928V47.8928V47.8927V47.8927V47.8927V47.8926V47.8926V47.8925V47.8925V47.8925V47.8924V47.8924V47.8924V47.8924V47.8923V47.8923V47.8923V47.8922V47.8922V47.8922V47.8921V47.8921V47.8921V47.8921V47.892V47.892V47.892V47.8919V47.8919V47.8919V47.8918V47.8918V47.8918V47.8917V47.8917V47.8917V47.8916V47.8916V47.8916V47.8915V47.8915V47.8915V47.8914V47.8914V47.8914V47.8913V47.8913V47.8913V47.8912V47.8912V47.8912V47.8911V47.8911V47.8911V47.891V47.891V47.8909V47.8909V47.8909V47.8908V47.8908V47.8908V47.8907V47.8907V47.8906V47.8906V47.8906V47.8905V47.8905V47.8905V47.8904V47.8904V47.8903V47.8903V47.8903V47.8902V47.8902V47.8901V47.8901V47.8901V47.89V47.89V47.8899V47.8899V47.8899V47.8898V47.8898V47.8897V47.8897V47.8897V47.8896V47.8896V47.8895L50.1292 47.8895H50.131L50.1672 47.8895M49.5005 48.3081L49.8381 48.4758L49.8797 48.4964L49.8984 48.5027C49.9311 48.5178 49.9642 48.5344 49.9978 48.5525L50.0126 48.5605L50.0149 48.5616M50.0149 48.5616L50.0278 48.5677C50.1738 48.6371 50.3251 48.7082 50.4818 48.7811M50.0149 48.5616H50.0307H50.1672H50.1672H50.1673H50.1673H50.1674H50.1674H50.1675H50.1675H50.1675H50.1676H50.1676H50.1677H50.1677H50.1677H50.1678H50.1678H50.1679H50.1679H50.1679H50.168H50.168H50.1681H50.1681H50.1681H50.1682H50.1682H50.1683H50.1683H50.1683H50.1684H50.1684H50.1684H50.1685H50.1685H50.1685H50.1686H50.1686H50.1687H50.1687H50.1687H50.1688H50.1688H50.1688H50.1689H50.1689H50.1689H50.169H50.169H50.169H50.1691H50.1691H50.1692H50.1692H50.1692H50.1693H50.1693H50.1693H50.1694H50.1694H50.1694H50.1694H50.1695H50.1695H50.1695H50.1696H50.1696H50.1696H50.1697H50.1697H50.1697H50.1698H50.1698H50.1698H50.1699H50.1699H50.1699H50.1699H50.17H50.17H50.1701H50.1701H50.1701H50.1702H50.1702H50.1702H50.1703H50.1703H50.1703H50.1704H50.1704H50.1705H50.1705H50.1705H50.1706H50.1706H50.1707H50.1707H50.1707H50.1708H50.1708H50.1708H50.1709H50.1709H50.171H50.171H50.171H50.1711H50.1711H50.1711H50.1712H50.1712H50.1712H50.1713H50.1713H50.1713H50.1714H50.1714H50.1714H50.1714H50.1715H50.1715H50.1716H50.1716H50.1716H50.1716H50.1717H50.1717H50.1718H50.1718H50.1718H50.1719H50.1719H50.1719H50.172H50.172H50.172H50.172H50.1721H50.1721H50.1721H50.1722H50.1722H50.1722H50.1723H50.1723H50.1723H50.1724H50.1724H50.1724H50.1725H50.1725H50.1725H50.1725H50.1726H50.1726H50.1726V48.2628V48.2278V47.895M50.4818 48.7811C50.4823 48.7813 50.4828 48.7816 50.4834 48.7818L50.7645 48.1773L50.4801 48.7803C50.4807 48.7805 50.4812 48.7808 50.4818 48.7811ZM53.9194 49.5729C53.8036 49.5222 53.6896 49.4733 53.5773 49.4263L53.9194 49.5729ZM53.9194 49.5729L53.5159 49.5729H53.5123L53.2528 49.5729V49.5729V49.573V49.573V49.573V49.5731V49.5731V49.5732V49.5732V49.5732V49.5733V49.5733V49.5734V49.5734V49.5734V49.5735V49.5735V49.5735V49.5736V49.5736V49.5737V49.5737V49.5737V49.5738V49.5738V49.5738V49.5739V49.5739V49.5739V49.574V49.574V49.574V49.5741V49.5741V49.5741V49.5742V49.5742V49.5742V49.5742V49.5743V49.5743V49.5743V49.5744V49.5744V49.5745V49.5745V49.5745V49.5746V49.5746V49.5747V49.5747V49.5747V49.5748V49.5748V49.5748V49.5749V49.5749V49.5749V49.575V49.575V49.575V49.5751V49.5751V49.5751V49.5752V49.5752V49.5752V49.5753V49.5753V49.5753V49.5754V49.5754V49.5754V49.5755V49.5755V49.5755V49.5755V49.5756L53.5111 49.5756H53.5147L53.9182 49.5756L53.9194 49.5729ZM7.89343 56.404L17.6949 47.8841M17.6949 47.8841C16.9946 48.2129 16.2336 48.55 15.458 48.8935C14.4533 49.3385 13.4241 49.7943 12.4711 50.2571C11.8412 50.5666 11.2601 51.0119 10.7334 51.5549M17.6949 47.8841L17.9012 47.7864C18.1076 47.6886 18.3067 47.5909 18.4985 47.4931M17.6949 47.8841L18.5202 47.4877M10.7334 51.5549C10.6972 51.5947 10.6628 51.6327 10.6302 51.6689C10.5253 51.7811 10.4221 51.897 10.3207 52.0164M10.3207 52.0164L10.1252 52.2554M10.1252 52.2554C10.0854 52.3097 10.0456 52.3622 10.0058 52.4128M10.0058 52.4128C9.92612 52.5178 9.84829 52.6264 9.77227 52.7387C9.73245 52.793 9.69444 52.8491 9.65824 52.907C9.47361 53.1749 9.29985 53.4554 9.13694 53.7487C9.07902 53.8428 9.0229 53.9405 8.9686 54.0419C8.9143 54.1396 8.86181 54.2392 8.81113 54.3406L8.65909 54.6446M8.65909 54.6446C8.6084 54.7496 8.55772 54.8528 8.50704 54.9542M18.5094 47.4877H18.5202M18.5094 47.4877C18.5058 47.4913 18.5021 47.4931 18.4985 47.4931M18.5094 47.4877V47.5144L18.4985 47.4931M18.5202 47.4877C19.0035 47.2461 19.5301 46.9858 20.0462 46.7306C20.922 46.2977 21.7679 45.8796 22.3214 45.5926M18.5202 47.4877L22.8237 45.328M22.8237 45.328C22.7776 45.3528 22.7332 45.3777 22.6906 45.4025C22.5893 45.4568 22.4662 45.5202 22.3214 45.5926M22.8237 45.328V45.6306V45.6508L22.8237 45.9932H22.8237H22.8237H22.8237H22.8237H22.8237H22.8237H22.8238H22.8238H22.8238H22.8238H22.8238H22.8238H22.8239H22.8239H22.8239H22.8239H22.8239H22.824H22.824H22.824H22.824H22.824H22.824H22.8241H22.8241H22.8241H22.8241H22.8241H22.8242H22.8242H22.8242H22.8242H22.8242H22.8242H22.8243H22.8243H22.8243H22.8243H22.8244H22.8244H22.8244H22.8244H22.8244H22.8245H22.8245H22.8245H22.8245H22.8246H22.8246H22.8246H22.8246H22.8247H22.8247H22.8247H22.8247H22.8248H22.8248H22.8248H22.8248H22.8249H22.8249H22.8249H22.8249H22.825H22.825H22.825H22.825H22.825H22.8251H22.8251H22.8251H22.8251H22.8251H22.8251H22.8251H22.8252H22.8252H22.8252H22.8252H22.8252H22.8252H22.8253H22.8253H22.8253H22.8253H22.8253H22.8253H22.8254H22.8254H22.8254H22.8254H22.8254H22.8254H22.8255H22.8255H22.8255H22.8255H22.8255H22.8255H22.8256H22.8256H22.8256H22.8256H22.8256H22.8257H22.8257H22.8257H22.8257H22.8257H22.8257H22.8258H22.8258H22.8258H22.8258H22.8258H22.8259H22.8259H22.8259H22.8259H22.8259H22.826H22.826H22.826H22.826H22.826H22.8261H22.8261H22.8261H22.8261H22.8261H22.8262H22.8262H22.8262H22.8262H22.8262H22.8263H22.8263H22.8263H22.8263H22.8263H22.8264V45.6559V45.6352V45.3265M22.8237 45.328L22.8264 45.3265M22.8264 45.3265C22.8662 45.3048 22.906 45.2812 22.9458 45.2559M22.8264 45.3265L50.3138 47.9655C50.2668 47.9402 50.2197 47.9167 50.1726 47.895M42.5053 42.4105C43.0374 43.6269 43.9334 44.5663 45.052 45.3265C45.1153 45.3687 45.1819 45.401 45.2492 45.4338C45.2685 45.4431 45.2878 45.4526 45.3072 45.4622C45.3113 45.4643 45.3153 45.467 45.3196 45.47C45.3269 45.475 45.335 45.4806 45.3452 45.484M42.5053 42.4105C42.4977 42.3938 42.4902 42.3771 42.4827 42.3602C42.4503 42.3944 42.4178 42.4287 42.3852 42.463L42.5053 42.4105ZM45.3452 45.484C45.4212 45.5238 45.5099 45.569 45.6113 45.6197M45.6113 45.6197C46.4952 46.0717 48.2662 46.951 49.7731 47.6992L50.1346 47.8787L50.1672 47.8895M50.1672 47.8895L50.1654 47.895L50.1465 47.9515L50.1672 47.9067L50.1726 47.895M50.1672 47.8895V47.895H50.1726" stroke="black" stroke-opacity="0.08" stroke-width="1.33333"/>
<path d="M25.5361 45.1254C26.0791 46.9499 28.2023 50.7456 30.0269 52.7168C30.597 50.7999 31.9166 47.14 34.0886 47.0694C36.2716 46.9934 37.716 49.5999 38.84 52.7168C40.3985 50.7456 42.9235 47.4549 43.0592 44.8593C42.7877 44.3109 37.3793 46.8522 34.1429 46.7762C30.912 46.7056 25.9217 44.376 25.5361 45.1254Z" fill="#B393C1"/>
<path d="M39.0407 51.3751C38.5692 50.2164 38.0301 49.1421 37.3946 48.2955C37.0883 47.8875 36.7481 47.518 36.3709 47.2159C37.5826 46.9835 38.8384 46.611 39.911 46.2771C40.1643 46.1983 40.4069 46.1217 40.6378 46.0489C41.2396 45.8589 41.7611 45.6943 42.1795 45.582C42.2182 45.5716 42.2552 45.5619 42.2907 45.5528C42.079 46.5132 41.5709 47.5892 40.9127 48.6771C40.3312 49.6385 39.6598 50.5658 39.0407 51.3751ZM30.8799 48.8671C30.4148 49.6715 30.0445 50.5705 29.763 51.3681C29.1186 50.5372 28.461 49.536 27.8774 48.5313C27.279 47.501 26.778 46.5007 26.4548 45.7103C26.4561 45.7105 26.4575 45.7108 26.4589 45.7111C26.9958 45.8181 27.7234 46.0309 28.5852 46.2831L28.6221 46.2939C29.6938 46.6077 30.9573 46.9775 32.1774 47.2115C31.6502 47.6738 31.2209 48.2772 30.8799 48.8671ZM25.864 45.6498C25.8634 45.6494 25.8693 45.6478 25.8836 45.6464C25.8717 45.6494 25.8646 45.6502 25.864 45.6498Z" stroke="black" stroke-opacity="0.08" stroke-width="1.33333"/>
<path d="M33.9365 65.9829H30.7979C31.1182 60.9709 32.1608 53.8737 32.5627 51.0228C32.6115 50.6807 32.655 50.4092 32.6984 50.2083C32.7056 50.1649 32.7147 50.125 32.7256 50.0888C32.7256 50.0888 31.5092 47.8842 31.4386 47.7539C32.3454 46.5049 33.1274 45.9619 34.2134 45.9619C35.0117 45.9619 36.3258 46.7221 36.9068 47.4498C36.6896 48.4055 35.7556 50.0888 35.7556 50.0888C35.7827 50.192 35.8262 50.4146 35.8805 50.7459C35.9022 50.869 35.9239 51.0065 35.9456 51.1586C36.3855 53.8845 37.2326 60.998 37.591 65.9829H33.9365Z" fill="#30133D"/>
<path d="M33.3093 49.7668L32.7256 50.0888L33.3093 49.7668L33.3092 49.7667L33.3091 49.7664L33.3084 49.7652L33.3058 49.7605L33.2956 49.742L33.2569 49.6718L33.1181 49.4203L32.6923 48.6483C32.5258 48.3463 32.3577 48.0414 32.2315 47.8122C32.5567 47.4057 32.8465 47.1295 33.1247 46.9468C33.4565 46.729 33.7955 46.6286 34.2134 46.6286C34.4425 46.6286 34.8502 46.7535 35.3154 47.0144C35.6413 47.1972 35.9391 47.4153 36.1627 47.6266C36.0405 47.9886 35.8463 48.4296 35.6493 48.838C35.5232 49.0994 35.4034 49.3325 35.315 49.5003C35.2709 49.584 35.2349 49.6511 35.21 49.6969L35.1817 49.749L35.1746 49.7619L35.173 49.7648L35.1726 49.7654L35.1726 49.7654L35.1726 49.7655L35.1726 49.7655L35.0427 49.9995L35.1109 50.2585C35.129 50.3273 35.1681 50.521 35.2226 50.8537L35.2226 50.8537L35.224 50.8617C35.2442 50.9762 35.2648 51.1065 35.2857 51.2529L35.2856 51.2529L35.2875 51.2648C35.7033 53.8418 36.4903 60.4052 36.8725 65.3162H33.9365H31.5122C31.8459 60.8137 32.6791 54.9465 33.113 51.8909C33.1532 51.6074 33.19 51.3482 33.2227 51.1164C33.2714 50.7757 33.312 50.5248 33.35 50.3492L33.3534 50.3336L33.356 50.3179C33.3594 50.2977 33.3625 50.2857 33.3641 50.2804L33.4446 50.0121L33.3093 49.7668Z" stroke="black" stroke-opacity="0.08" stroke-width="1.33333"/>
<mask id="path-15-inside-1_576_5941" fill="white">
<path d="M35.9129 50.9356C35.1092 50.5881 33.8983 50.1102 32.7254 50.1971L32.6982 50.208C32.7055 50.1645 32.7145 50.1247 32.7254 50.0885C33.5019 49.7084 34.9518 49.5944 35.7554 50.0885C35.7826 50.1917 35.8586 50.6044 35.9129 50.9356Z"/>
</mask>
<path d="M35.9129 50.9356C35.1092 50.5881 33.8983 50.1102 32.7254 50.1971L32.6982 50.208C32.7055 50.1645 32.7145 50.1247 32.7254 50.0885C33.5019 49.7084 34.9518 49.5944 35.7554 50.0885C35.7826 50.1917 35.8586 50.6044 35.9129 50.9356Z" fill="#FFCC00"/>
<path d="M35.9129 50.9356L35.3837 52.1594L37.6234 53.128L37.2287 50.7199L35.9129 50.9356ZM32.7254 50.1971L32.6269 48.8674L32.4215 48.8826L32.2302 48.9592L32.7254 50.1971ZM32.6982 50.208L31.3831 49.9888L30.9935 52.326L33.1935 51.4459L32.6982 50.208ZM32.7254 50.0885L32.1392 48.891L31.6158 49.1472L31.4483 49.7054L32.7254 50.0885ZM35.7554 50.0885L37.0449 49.7492L36.9089 49.2325L36.4538 48.9527L35.7554 50.0885ZM36.4421 49.7118C35.6491 49.3689 34.1626 48.7537 32.6269 48.8674L32.8239 51.5268C33.6341 51.4668 34.5694 51.8073 35.3837 52.1594L36.4421 49.7118ZM32.2302 48.9592L32.203 48.97L33.1935 51.4459L33.2206 51.4351L32.2302 48.9592ZM34.0134 50.4272C34.0129 50.4303 34.0101 50.4461 34.0025 50.4716L31.4483 49.7054C31.4189 49.8033 31.3981 49.8987 31.3831 49.9888L34.0134 50.4272ZM33.3116 51.2861C33.4895 51.199 33.8482 51.1041 34.2642 51.0936C34.6955 51.0826 34.9642 51.1672 35.0571 51.2243L36.4538 48.9527C35.743 48.5157 34.8849 48.4102 34.1963 48.4278C33.4922 48.4457 32.7378 48.5979 32.1392 48.891L33.3116 51.2861ZM34.466 50.4278C34.4618 50.4119 34.4649 50.4225 34.4769 50.4819C34.4868 50.531 34.4992 50.5951 34.513 50.6695C34.5405 50.8182 34.5715 50.9951 34.5971 51.1513L37.2287 50.7199C37.1774 50.407 37.0914 49.9261 37.0449 49.7492L34.466 50.4278Z" fill="black" fill-opacity="0.08" mask="url(#path-15-inside-1_576_5941)"/>
<path d="M42.2228 39.4238C42.1794 39.3424 42.0925 39.2555 41.7287 39.2012C42.0327 39.3532 42.1033 39.4835 41.9839 39.7388C41.0553 41.6828 36.8795 45.587 34.2242 45.902C31.4222 45.6413 27.5397 41.8728 26.6002 39.8962C26.4753 39.641 26.622 39.4238 26.8989 39.3261C26.5188 39.3641 26.3993 39.4998 26.3613 39.5759C26.3233 39.6573 25.2916 44.6476 25.5359 45.1255C26.2799 46.5699 27.5559 49.4207 29.8638 51.3213C30.7597 48.2695 32.9047 45.9617 34.2513 45.9617C35.5926 45.9617 37.7266 48.1284 38.9158 51.1584C41.5223 48.6008 42.4454 46.9229 43.0428 44.968C43.2002 44.4521 42.2608 39.4998 42.2228 39.4238Z" fill="#FCFAFB"/>
<path d="M32.3934 46.0754C32.0473 46.3483 31.7059 46.6834 31.3811 47.0647C30.6872 47.8792 30.0389 48.939 29.5635 50.1449C28.0362 48.6044 27.0584 46.6629 26.3827 45.3212C26.3069 45.1707 26.2349 45.0278 26.1664 44.8938C26.1651 44.8656 26.1646 44.8253 26.1661 44.7711C26.1702 44.6179 26.188 44.4061 26.2186 44.1459C26.2793 43.6286 26.384 42.9721 26.4993 42.3177C26.5607 41.9691 26.6247 41.6237 26.6858 41.304C27.336 42.1981 28.2642 43.186 29.2822 44.0507C30.2238 44.8505 31.3085 45.6021 32.3934 46.0754ZM26.1704 44.9394C26.1703 44.9396 26.1697 44.9367 26.169 44.9303C26.1701 44.936 26.1705 44.9393 26.1704 44.9394ZM37.1304 46.9715C36.7866 46.5991 36.4308 46.2746 36.0739 46.013C36.302 45.9058 36.5294 45.787 36.7544 45.6598C37.5781 45.1941 38.412 44.5898 39.1814 43.9409C40.2282 43.0579 41.2016 42.0525 41.877 41.1526C41.9329 41.4647 41.9916 41.8011 42.0486 42.1412C42.158 42.7937 42.26 43.4526 42.3248 43.9766C42.3573 44.2396 42.3793 44.4593 42.3887 44.6233C42.3935 44.7056 42.3945 44.7648 42.3935 44.8034C42.3934 44.8066 42.3933 44.8096 42.3932 44.8122C41.8884 46.4488 41.1379 47.897 39.1342 49.9897C38.5629 48.7952 37.8584 47.76 37.1304 46.9715ZM42.3919 44.8327C42.3918 44.8327 42.3919 44.8317 42.3922 44.8298L42.3919 44.8327Z" stroke="black" stroke-opacity="0.08" stroke-width="1.33333"/>
<path d="M53.7889 65.9833H52.5617C52.1218 65.2556 50.5688 63.9904 49.4502 63.1976C52.4911 64.9516 52.5888 64.0284 52.7029 61.46C53.0884 63.0999 53.4848 64.8864 53.7889 65.9833Z" fill="#B393C1"/>
<path d="M52.9049 65.3166C52.7344 65.1023 52.5215 64.8765 52.289 64.6513C52.3928 64.6067 52.4931 64.5477 52.5887 64.4718C52.6272 64.4411 52.6635 64.4089 52.6976 64.3752C52.7761 64.7059 52.8525 65.0226 52.9259 65.3166H52.9049Z" stroke="black" stroke-opacity="0.08" stroke-width="1.33333"/>
<path d="M17.499 62.4316C16.3424 64.0444 15.4193 65.2499 15.1423 65.983H14.1323C14.2464 64.8752 15.0989 61.1718 15.0663 59.7383C15.3921 62.9747 14.9306 65.1956 17.499 62.4316Z" fill="#B393C1"/>
<path d="M15.134 64.0637C15.2045 64.1314 15.2873 64.1927 15.3848 64.2419C15.2432 64.4488 15.11 64.65 14.9901 64.8431C15.0272 64.6396 15.0677 64.4213 15.1102 64.1921C15.1181 64.1497 15.126 64.1069 15.134 64.0637Z" stroke="black" stroke-opacity="0.08" stroke-width="1.33333"/>
<path d="M43.895 23.1282C44.1665 22.7318 44.8344 22.0531 45.2742 22.3028C45.6218 22.5038 45.8552 24.4043 45.6706 25.5827C45.4969 26.7284 44.8452 27.5592 44.4108 28.9982C43.9547 30.4969 43.4497 31.23 42.7329 31.0617C42.9881 29.6227 43.895 23.1282 43.895 23.1282Z" fill="#7C3D41"/>
<path d="M45.012 25.4795L45.0115 25.4827C44.9394 25.9579 44.7677 26.38 44.5306 26.9068C44.5039 26.966 44.4765 27.0263 44.4485 27.0881C44.2319 27.5653 43.9787 28.1231 43.7728 28.8049C43.7626 28.8384 43.7524 28.8713 43.7423 28.9037C43.8478 28.189 43.9617 27.402 44.0696 26.65C44.199 25.7475 44.3204 24.8902 44.4094 24.2585C44.454 23.9427 44.4904 23.6832 44.5157 23.5027L44.5316 23.389C44.6317 23.2644 44.7645 23.1257 44.8976 23.0244C44.9403 23.191 44.9798 23.407 45.0102 23.6567C45.084 24.2634 45.0921 24.9684 45.012 25.4795ZM44.8099 22.7659C44.8063 22.7607 44.8046 22.7577 44.8047 22.7574C44.8048 22.7572 44.8066 22.7598 44.8099 22.7659Z" stroke="black" stroke-opacity="0.08" stroke-width="1.33333"/>
<mask id="path-25-inside-2_576_5941" fill="white">
<path d="M43.9709 26.082C43.9492 26.5762 44.4162 26.9563 44.3944 27.4396C44.3727 27.9174 43.6234 28.4822 43.4604 28.9763C43.493 28.0477 43.5745 27.5862 43.6505 27.2387C43.7211 26.8966 43.9709 26.082 43.9709 26.082Z"/>
</mask>
<path d="M43.9709 26.082C43.9492 26.5762 44.4162 26.9563 44.3944 27.4396C44.3727 27.9174 43.6234 28.4822 43.4604 28.9763C43.493 28.0477 43.5745 27.5862 43.6505 27.2387C43.7211 26.8966 43.9709 26.082 43.9709 26.082Z" fill="#592739"/>
<path d="M43.9709 26.082L45.3029 26.1406L42.6961 25.6911L43.9709 26.082ZM44.3944 27.4396L45.7264 27.5001L45.7264 27.4994L44.3944 27.4396ZM43.4604 28.9763L42.1279 28.9295L44.7267 29.3938L43.4604 28.9763ZM43.6505 27.2387L44.953 27.5236L44.9547 27.5159L44.9563 27.5081L43.6505 27.2387ZM42.6388 26.0235C42.61 26.6806 42.9139 27.2127 42.9961 27.373C43.0598 27.4973 43.0743 27.5295 43.081 27.5478C43.0824 27.5517 43.0577 27.486 43.0624 27.3797L45.7264 27.4994C45.7421 27.1515 45.6671 26.857 45.5878 26.6383C45.5136 26.434 45.4169 26.2497 45.3692 26.1568C45.2288 25.8827 45.3101 25.9776 45.3029 26.1406L42.6388 26.0235ZM43.0625 27.379C43.0715 27.1798 43.1454 27.0812 43.1155 27.1315C43.0919 27.1713 43.0438 27.2384 42.9398 27.3682C42.8568 27.4718 42.71 27.6492 42.5899 27.816C42.471 27.9812 42.2991 28.2406 42.1942 28.5588L44.7267 29.3938C44.7033 29.4649 44.6861 29.4685 44.7542 29.3738C44.8211 29.2809 44.8936 29.1945 45.021 29.0354C45.1274 28.9026 45.2809 28.708 45.409 28.4921C45.5308 28.2867 45.7065 27.9382 45.7264 27.5001L43.0625 27.379ZM44.793 29.0231C44.8229 28.1703 44.895 27.7887 44.953 27.5236L42.348 26.9537C42.2539 27.3837 42.1632 27.9252 42.1279 28.9295L44.793 29.0231ZM44.9563 27.5081C44.9794 27.3963 45.0445 27.1565 45.118 26.9025C45.1521 26.7847 45.1842 26.6766 45.2078 26.5979C45.2196 26.5586 45.2292 26.5269 45.2358 26.5052C45.2391 26.4944 45.2416 26.4861 45.2433 26.4806C45.2441 26.4778 45.2448 26.4758 45.2451 26.4745C45.2453 26.4739 45.2455 26.4734 45.2456 26.4732C45.2456 26.473 45.2456 26.4729 45.2456 26.4729C45.2456 26.4729 45.2456 26.4729 45.2456 26.4729C45.2456 26.4729 45.2456 26.4729 45.2456 26.4729C45.2456 26.4729 45.2456 26.473 43.9709 26.082C42.6961 25.6911 42.6961 25.6911 42.6961 25.6912C42.6961 25.6912 42.6961 25.6912 42.6961 25.6912C42.6961 25.6913 42.6961 25.6914 42.696 25.6915C42.696 25.6916 42.6959 25.6918 42.6958 25.6921C42.6957 25.6926 42.6955 25.6933 42.6952 25.6942C42.6946 25.6961 42.6938 25.6986 42.6928 25.702C42.6908 25.7086 42.6879 25.7181 42.6842 25.7302C42.6769 25.7544 42.6664 25.789 42.6537 25.8314C42.6283 25.9161 42.5935 26.033 42.5563 26.1616C42.4873 26.4004 42.3922 26.7389 42.3447 26.9692L44.9563 27.5081Z" fill="black" fill-opacity="0.08" mask="url(#path-25-inside-2_576_5941)"/>
<mask id="path-27-inside-3_576_5941" fill="white">
<path d="M44.2101 24.0623C44.4708 23.4976 44.7966 22.9437 45.0844 23.1392C45.3939 23.3618 45.4971 24.8605 45.3179 25.561C45.3179 25.1972 45.0301 23.5302 44.7694 23.5193C44.5088 23.5084 44.1178 24.9149 44.0146 25.257C44.0146 24.7411 44.2101 24.0623 44.2101 24.0623Z"/>
</mask>
<path d="M44.2101 24.0623C44.4708 23.4976 44.7966 22.9437 45.0844 23.1392C45.3939 23.3618 45.4971 24.8605 45.3179 25.561C45.3179 25.1972 45.0301 23.5302 44.7694 23.5193C44.5088 23.5084 44.1178 24.9149 44.0146 25.257C44.0146 24.7411 44.2101 24.0623 44.2101 24.0623Z" fill="#592739"/>
<path d="M44.2101 24.0623L42.9995 23.5036L42.957 23.5958L42.9289 23.6933L44.2101 24.0623ZM45.0844 23.1392L45.863 22.0568L45.8484 22.0463L45.8336 22.0362L45.0844 23.1392ZM45.3179 25.561H43.9846L46.6096 25.8915L45.3179 25.561ZM44.0146 25.257H42.6813L45.2912 25.6419L44.0146 25.257ZM45.4207 24.6211C45.5471 24.3473 45.6357 24.201 45.6719 24.1565C45.697 24.1256 45.6125 24.2479 45.403 24.3406C45.2812 24.3946 45.1028 24.4444 44.8863 24.43C44.6642 24.4152 44.4757 24.3376 44.3352 24.2421L45.8336 22.0362C45.3423 21.7025 44.7747 21.7024 44.323 21.9024C43.9634 22.0617 43.7272 22.3211 43.6023 22.4749C43.3385 22.7996 43.1338 23.2126 42.9995 23.5036L45.4207 24.6211ZM44.3058 24.2216C44.0937 24.069 44.0104 23.8992 44.0001 23.8787C43.9795 23.8379 43.9803 23.8275 43.9913 23.8675C44.0129 23.9457 44.0391 24.0892 44.056 24.285C44.0722 24.4742 44.0766 24.6764 44.0685 24.8597C44.06 25.0526 44.0397 25.1776 44.0261 25.2306L46.6096 25.8915C46.7515 25.3368 46.7612 24.6195 46.7129 24.0568C46.6876 23.7626 46.6412 23.4459 46.562 23.1586C46.5226 23.0158 46.466 22.8463 46.3812 22.6782C46.3067 22.5303 46.1525 22.265 45.863 22.0568L44.3058 24.2216ZM46.6512 25.561C46.6512 25.2246 46.551 24.5977 46.4421 24.1145C46.3845 23.8591 46.3069 23.5633 46.2076 23.3081C46.161 23.1883 46.0838 23.0089 45.9636 22.8356C45.9057 22.7521 45.5431 22.217 44.8249 22.1871L44.7139 24.8515C44.367 24.837 44.1219 24.6882 43.9952 24.5888C43.8706 24.491 43.7998 24.3949 43.7721 24.3549C43.7175 24.2762 43.7056 24.2317 43.7226 24.2753C43.7505 24.3472 43.7938 24.4929 43.8407 24.7011C43.8852 24.8981 43.9235 25.1087 43.9502 25.2873C43.9635 25.3762 43.973 25.451 43.9789 25.5075C43.9857 25.5734 43.9846 25.5851 43.9846 25.561H46.6512ZM44.8249 22.1871C44.1884 22.1606 43.7979 22.5542 43.6954 22.6631C43.5485 22.8192 43.4485 22.9855 43.3889 23.0936C43.263 23.3215 43.1584 23.5848 43.0803 23.7992C42.9201 24.2387 42.7802 24.7323 42.7381 24.872L45.2912 25.6419C45.3522 25.4395 45.4594 25.0588 45.5857 24.7123C45.6508 24.5337 45.6993 24.4261 45.7232 24.3827C45.7385 24.3551 45.7126 24.4106 45.6374 24.4905C45.5979 24.5325 45.5129 24.6157 45.3784 24.6922C45.2393 24.7713 45.0094 24.8638 44.7139 24.8515L44.8249 22.1871ZM45.348 25.257C45.348 25.1375 45.3745 24.9453 45.4176 24.7386C45.4372 24.6447 45.4569 24.5635 45.4714 24.5066C45.4786 24.4785 45.4843 24.457 45.4879 24.4438C45.4897 24.4373 45.491 24.4328 45.4916 24.4306C45.4919 24.4295 45.492 24.429 45.492 24.4291C45.492 24.4292 45.4919 24.4294 45.4918 24.4298C45.4918 24.4299 45.4917 24.4302 45.4916 24.4304C45.4916 24.4306 45.4916 24.4307 45.4915 24.4308C45.4915 24.4309 45.4915 24.431 45.4915 24.4311C45.4914 24.4312 45.4914 24.4313 44.2101 24.0623C42.9289 23.6933 42.9288 23.6934 42.9288 23.6936C42.9288 23.6936 42.9287 23.6938 42.9287 23.6939C42.9287 23.694 42.9286 23.6942 42.9285 23.6945C42.9284 23.6949 42.9283 23.6953 42.9281 23.6959C42.9279 23.6969 42.9275 23.6981 42.9271 23.6994C42.9264 23.7021 42.9254 23.7055 42.9243 23.7095C42.922 23.7175 42.9191 23.7282 42.9155 23.7411C42.9084 23.7671 42.8989 23.8027 42.8878 23.8462C42.8657 23.9328 42.8365 24.0534 42.8072 24.1938C42.7526 24.4554 42.6813 24.8605 42.6813 25.257H45.348Z" fill="black" fill-opacity="0.08" mask="url(#path-27-inside-3_576_5941)"/>
<path d="M24.444 23.0788C24.1508 22.6824 23.434 22.009 22.967 22.2643C22.5977 22.4652 22.3588 24.3657 22.5543 25.5386C22.7444 26.679 23.4448 27.4989 23.9118 28.9271C24.406 30.4204 24.9436 31.1426 25.7092 30.9688C25.4323 29.5407 24.444 23.0788 24.444 23.0788Z" fill="#7C3D41"/>
<path d="M23.3965 22.9789C23.5477 23.0815 23.6992 23.2268 23.8121 23.3566L23.8281 23.4604C23.8556 23.6401 23.8954 23.8982 23.9439 24.2125C24.0409 24.841 24.1732 25.6939 24.3142 26.5917C24.4553 27.4907 24.606 28.4401 24.739 29.2546C24.6756 29.0957 24.6109 28.9175 24.5451 28.7187C24.3223 28.0377 24.0483 27.4819 23.8148 27.0084C23.7852 26.9483 23.7562 26.8896 23.7281 26.8321C23.4725 26.3093 23.2896 25.8951 23.2119 25.429C23.1278 24.9243 23.1343 24.224 23.2103 23.6202C23.2449 23.3459 23.2911 23.1133 23.3408 22.9432C23.3581 22.9536 23.3766 22.9655 23.3965 22.9789ZM23.4211 22.7338C23.4211 22.734 23.4196 22.7366 23.4164 22.7412C23.4194 22.7359 23.421 22.7336 23.4211 22.7338Z" stroke="black" stroke-opacity="0.08" stroke-width="1.33333"/>
<mask id="path-31-inside-4_576_5941" fill="white">
<path d="M24.3624 26.0215C24.3841 26.5102 23.9009 26.8957 23.9226 27.3736C23.9443 27.8514 24.748 28.4053 24.9217 28.8995C24.8892 27.9763 24.7968 27.5093 24.7208 27.1727C24.6448 26.8306 24.3624 26.0215 24.3624 26.0215Z"/>
</mask>
<path d="M24.3624 26.0215C24.3841 26.5102 23.9009 26.8957 23.9226 27.3736C23.9443 27.8514 24.748 28.4053 24.9217 28.8995C24.8892 27.9763 24.7968 27.5093 24.7208 27.1727C24.6448 26.8306 24.3624 26.0215 24.3624 26.0215Z" fill="#592739"/>
<path d="M24.3624 26.0215L25.6213 25.5821L23.0304 26.0807L24.3624 26.0215ZM24.9217 28.8995L23.6639 29.3418L26.2542 28.8524L24.9217 28.8995ZM24.7208 27.1727L23.4192 27.4619L23.4202 27.4664L24.7208 27.1727ZM23.0304 26.0807C23.0255 25.9708 23.0517 25.9027 23.0506 25.9056C23.0444 25.9222 23.0297 25.9544 22.965 26.0761C22.9159 26.1685 22.8152 26.3535 22.7379 26.5584C22.6552 26.7772 22.5744 27.0776 22.5906 27.4341L25.2545 27.313C25.2599 27.4307 25.2314 27.5037 25.2325 27.5005C25.239 27.4835 25.2537 27.4519 25.32 27.3272C25.3707 27.2316 25.4714 27.0459 25.549 26.8378C25.6318 26.6161 25.7102 26.3166 25.6944 25.9623L23.0304 26.0807ZM22.5906 27.4341C22.6117 27.8972 22.8095 28.2582 22.9401 28.4624C23.0787 28.6791 23.2443 28.873 23.3576 29.0038C23.4942 29.1613 23.5714 29.2463 23.6424 29.3377C23.7158 29.4322 23.6927 29.4236 23.6639 29.3418L26.1796 28.4572C26.0639 28.1283 25.8752 27.8651 25.7483 27.7018C25.6191 27.5355 25.4614 27.3595 25.3726 27.2571C25.2606 27.1279 25.2104 27.0628 25.1867 27.0258C25.1551 26.9763 25.2444 27.089 25.2545 27.313L22.5906 27.4341ZM26.2542 28.8524C26.2185 27.839 26.114 27.2892 26.0214 26.879L23.4202 27.4664C23.4796 27.7295 23.5598 28.1137 23.5892 28.9465L26.2542 28.8524ZM26.0224 26.8834C25.968 26.6388 25.8575 26.2901 25.7805 26.0545C25.7383 25.9254 25.6987 25.8081 25.6698 25.7233C25.6554 25.6808 25.6434 25.6461 25.635 25.6218C25.6308 25.6096 25.6275 25.6 25.6252 25.5933C25.624 25.5899 25.6231 25.5873 25.6224 25.5854C25.6221 25.5845 25.6219 25.5838 25.6217 25.5832C25.6216 25.5829 25.6215 25.5827 25.6214 25.5825C25.6214 25.5824 25.6214 25.5824 25.6214 25.5823C25.6213 25.5823 25.6213 25.5822 25.6213 25.5822C25.6213 25.5822 25.6213 25.5821 24.3624 26.0215C23.1036 26.4608 23.1035 26.4608 23.1035 26.4608C23.1035 26.4608 23.1035 26.4608 23.1035 26.4607C23.1035 26.4607 23.1035 26.4607 23.1035 26.4607C23.1035 26.4608 23.1036 26.4608 23.1036 26.4609C23.1037 26.4612 23.1038 26.4616 23.104 26.4622C23.1045 26.4634 23.1051 26.4654 23.1061 26.468C23.1079 26.4733 23.1107 26.4815 23.1144 26.4921C23.1217 26.5133 23.1325 26.5445 23.1456 26.5832C23.172 26.6608 23.2079 26.7672 23.2458 26.8831C23.329 27.1375 23.3976 27.3645 23.4192 27.4619L26.0224 26.8834Z" fill="black" fill-opacity="0.08" mask="url(#path-31-inside-4_576_5941)"/>
<mask id="path-33-inside-5_576_5941" fill="white">
<path d="M24.107 24.0125C23.83 23.5672 23.4771 22.8993 23.173 23.1002C22.8417 23.3229 22.7386 24.8162 22.934 25.5166C22.9286 25.1528 23.249 23.5835 23.5314 23.5727C23.8029 23.5564 24.4545 25.2506 24.4165 25.8153C24.4056 25.0171 24.107 24.0125 24.107 24.0125Z"/>
</mask>
<path d="M24.107 24.0125C23.83 23.5672 23.4771 22.8993 23.173 23.1002C22.8417 23.3229 22.7386 24.8162 22.934 25.5166C22.9286 25.1528 23.249 23.5835 23.5314 23.5727C23.8029 23.5564 24.4545 25.2506 24.4165 25.8153C24.4056 25.0171 24.107 24.0125 24.107 24.0125Z" fill="#592739"/>
<path d="M24.107 24.0125L25.385 23.6325L25.3339 23.4606L25.2392 23.3083L24.107 24.0125ZM23.173 23.1002L22.4379 21.9877L22.4292 21.9936L23.173 23.1002ZM22.934 25.5166L21.6498 25.875L24.2672 25.4967L22.934 25.5166ZM23.5314 23.5727L23.5826 24.905L23.5969 24.9044L23.6112 24.9036L23.5314 23.5727ZM24.4165 25.8153L23.0833 25.8334L25.7468 25.9048L24.4165 25.8153ZM25.2392 23.3083C25.1512 23.1669 24.9161 22.757 24.684 22.472C24.5693 22.3312 24.3475 22.0795 24.019 21.9102C23.6087 21.6987 23.0011 21.6157 22.438 21.9878L23.908 24.2127C23.7432 24.3216 23.5299 24.3962 23.2923 24.3968C23.0682 24.3974 22.8974 24.3321 22.7975 24.2806C22.6294 24.194 22.5702 24.0994 22.6163 24.156C22.6447 24.1908 22.69 24.255 22.7583 24.3637C22.7907 24.4152 22.8237 24.4693 22.8603 24.5295C22.8951 24.5869 22.9355 24.6536 22.9747 24.7167L25.2392 23.3083ZM22.4292 21.9936C22.133 22.1927 21.9687 22.4525 21.8852 22.6079C21.7928 22.7798 21.7312 22.9534 21.6885 23.0996C21.6028 23.3933 21.5538 23.7155 21.5277 24.013C21.478 24.5809 21.4916 25.3083 21.6498 25.875L24.2183 25.1582C24.2054 25.112 24.1837 24.9936 24.1738 24.8053C24.1645 24.6269 24.1681 24.4297 24.1842 24.2455C24.201 24.0543 24.2277 23.9177 24.2483 23.8468C24.2588 23.8108 24.2581 23.8257 24.234 23.8706C24.2187 23.899 24.1301 24.0634 23.9168 24.2068L22.4292 21.9936ZM24.2672 25.4967C24.2678 25.5359 24.2648 25.5374 24.2715 25.4789C24.2769 25.4312 24.2862 25.365 24.2999 25.2841C24.3275 25.1213 24.3679 24.9289 24.4148 24.7493C24.4647 24.5582 24.5089 24.4327 24.5334 24.3783C24.5486 24.3448 24.5303 24.3965 24.4651 24.4779C24.4308 24.5207 24.3548 24.6082 24.2294 24.6938C24.1002 24.7819 23.8792 24.8936 23.5826 24.905L23.4801 22.2403C22.8389 22.265 22.4778 22.6934 22.3838 22.8108C22.247 22.9816 22.1574 23.1605 22.1029 23.2813C21.9881 23.5356 21.8995 23.8273 21.8347 24.0753C21.7669 24.3349 21.7106 24.6036 21.6708 24.8378C21.6364 25.0408 21.5975 25.3125 21.6009 25.5365L24.2672 25.4967ZM23.6112 24.9036C23.273 24.9239 23.0248 24.8059 22.9071 24.7362C22.7856 24.6643 22.7116 24.5903 22.6838 24.5612C22.6287 24.5034 22.6174 24.4744 22.6446 24.52C22.6915 24.5986 22.7665 24.7523 22.8479 24.9609C22.9267 25.1628 22.995 25.3736 23.0395 25.5502C23.0617 25.6382 23.0747 25.7051 23.0813 25.7495C23.0892 25.8036 23.082 25.7877 23.0862 25.7258L25.7468 25.9048C25.7712 25.5417 25.6907 25.1578 25.6253 24.8985C25.5498 24.5991 25.4454 24.2815 25.332 23.9913C25.2214 23.7078 25.085 23.4057 24.9345 23.1536C24.8631 23.0338 24.7565 22.8707 24.614 22.7212C24.5425 22.6462 24.4267 22.5369 24.2658 22.4417C24.1088 22.3487 23.8237 22.2194 23.4515 22.2417L23.6112 24.9036ZM25.7497 25.7972C25.7424 25.2654 25.6432 24.713 25.5607 24.3323C25.5177 24.1335 25.4751 23.9632 25.4429 23.8414C25.4268 23.7803 25.4131 23.7308 25.4031 23.6953C25.3981 23.6775 25.394 23.6632 25.3909 23.6526C25.3894 23.6474 25.3881 23.643 25.3871 23.6397C25.3866 23.638 25.3862 23.6365 25.3858 23.6354C25.3857 23.6348 25.3855 23.6342 25.3854 23.6338C25.3853 23.6335 25.3852 23.6333 25.3852 23.6331C25.3851 23.633 25.3851 23.6329 25.3851 23.6328C25.385 23.6327 25.385 23.6325 24.107 24.0125C22.8289 24.3925 22.8289 24.3923 22.8288 24.3922C22.8288 24.3922 22.8288 24.3921 22.8288 24.392C22.8287 24.3918 22.8287 24.3917 22.8287 24.3916C22.8286 24.3914 22.8285 24.3912 22.8285 24.3911C22.8284 24.3909 22.8284 24.3909 22.8285 24.3911C22.8287 24.3916 22.8291 24.393 22.8297 24.3953C22.8311 24.3999 22.8334 24.4079 22.8365 24.4192C22.8429 24.4417 22.8526 24.4769 22.8647 24.5224C22.8888 24.6139 22.9216 24.7447 22.9545 24.8969C23.0241 25.218 23.0796 25.567 23.0833 25.8334L25.7497 25.7972Z" fill="black" fill-opacity="0.08" mask="url(#path-33-inside-5_576_5941)"/>
<path d="M44.1447 24.3657C43.9112 26.6518 43.3573 33.0105 42.5156 34.607C41.7066 36.1437 37.5362 39.619 36.0212 39.9883C35.6248 40.086 34.5496 40.1729 34.1478 40.1729C33.6536 40.1729 32.4047 40.0371 31.9323 39.8851C30.6019 39.4507 26.7519 36.1872 25.9374 34.5961C25.2315 33.206 24.4224 26.5867 24.1617 24.3657C24.1545 24.3295 24.149 24.2933 24.1454 24.2571C23.6024 19.4026 24.6124 15.9055 26.236 13.2502C27.5719 11.0781 30.906 8.87891 34.1532 8.87891C37.8837 8.87891 40.4685 10.6111 41.9238 12.6257C43.8623 15.2974 44.7094 18.827 44.1447 24.3657Z" fill="#7C3D41"/>
<path d="M41.9259 34.2961L41.9257 34.2964C41.7698 34.5926 41.4134 35.0418 40.8928 35.5813C40.3845 36.1081 39.7587 36.6815 39.1072 37.2226C38.4555 37.7638 37.7877 38.2646 37.1974 38.6492C36.5857 39.0477 36.1229 39.2773 35.8633 39.3406L35.8616 39.341C35.7181 39.3764 35.3967 39.4192 35.0254 39.4534C34.6638 39.4867 34.3182 39.5062 34.1478 39.5062C33.9407 39.5062 33.536 39.476 33.1128 39.4243C32.6799 39.3714 32.3079 39.3053 32.138 39.251C31.9066 39.1751 31.4865 38.9411 30.9308 38.5527C30.3927 38.1767 29.7798 37.6934 29.1786 37.1711C28.5774 36.6488 27.9964 36.095 27.52 35.58C27.0342 35.0548 26.6922 34.6071 26.5313 34.2932C26.4007 34.0354 26.2324 33.4466 26.0511 32.5861C25.8756 31.7526 25.7023 30.7392 25.5415 29.6914C25.2203 27.5972 24.9539 25.3967 24.8238 24.288L24.8207 24.2613L24.8154 24.235C24.8124 24.2197 24.8102 24.205 24.8088 24.1908L24.8088 24.1908L24.808 24.183C24.2806 19.4684 25.2621 16.1212 26.8044 13.5987C27.4032 12.6253 28.4812 11.6041 29.814 10.8257C31.1443 10.0489 32.6744 9.54557 34.1532 9.54557C37.6558 9.54557 40.0451 11.1635 41.3833 13.0161L41.3842 13.0172C43.1934 15.5106 44.0364 18.8559 43.4815 24.2981C43.4585 24.523 43.4326 24.7857 43.4037 25.0782C43.2846 26.2847 43.1155 27.9981 42.8973 29.658C42.7617 30.6887 42.6086 31.6875 42.4391 32.5221C42.2648 33.3803 42.0869 33.9908 41.9259 34.2961Z" stroke="black" stroke-opacity="0.08" stroke-width="1.33333"/>
<mask id="path-37-inside-6_576_5941" fill="white">
<path d="M34.5552 31.2401C35.1253 30.7297 35.5272 30.5885 35.7932 30.5939C36.0593 30.5939 36.3906 30.7514 36.3417 30.9849C36.2983 31.2184 36.0105 31.289 35.7389 31.1641C35.4729 31.0337 35.0656 30.8763 34.5552 31.2401Z"/>
</mask>
<path d="M34.5552 31.2401C35.1253 30.7297 35.5272 30.5885 35.7932 30.5939C36.0593 30.5939 36.3906 30.7514 36.3417 30.9849C36.2983 31.2184 36.0105 31.289 35.7389 31.1641C35.4729 31.0337 35.0656 30.8763 34.5552 31.2401Z" fill="#3F1F2F"/>
<path d="M34.5552 31.2401L33.6658 30.2467L35.3291 32.3258L34.5552 31.2401ZM35.7932 30.5939L35.766 31.927L35.7796 31.9272H35.7932V30.5939ZM36.3417 30.9849L35.0366 30.7117L35.0336 30.7263L35.0309 30.741L36.3417 30.9849ZM35.7389 31.1641L35.1525 32.3615L35.167 32.3686L35.1817 32.3754L35.7389 31.1641ZM35.4445 32.2335C35.6633 32.0376 35.8027 31.9556 35.8654 31.9255C35.9256 31.8966 35.8855 31.9294 35.766 31.927L35.8205 29.2608C35.0608 29.2453 34.3401 29.643 33.6658 30.2467L35.4445 32.2335ZM35.7932 31.9272C35.7019 31.9272 35.6021 31.9093 35.4802 31.8333C35.4139 31.7919 35.2797 31.6943 35.1684 31.5074C35.0422 31.2954 34.9741 31.0106 35.0366 30.7117L37.6468 31.258C37.8393 30.3381 37.2073 29.7676 36.891 29.5704C36.5491 29.3572 36.1506 29.2606 35.7932 29.2606V31.9272ZM35.0309 30.741C35.0684 30.5393 35.1678 30.3436 35.3224 30.1883C35.4708 30.0392 35.6347 29.9618 35.7658 29.9251C36.0142 29.8554 36.201 29.909 36.2962 29.9527L35.1817 32.3754C35.5484 32.544 36.0149 32.6248 36.4859 32.4927C36.9978 32.3491 37.5222 31.9294 37.6525 31.2287L35.0309 30.741ZM36.3254 29.9666C36.1501 29.8808 35.7831 29.7096 35.3069 29.6852C34.7919 29.6588 34.2683 29.8072 33.7813 30.1543L35.3291 32.3258C35.35 32.311 35.341 32.3215 35.3025 32.3331C35.2626 32.3451 35.2161 32.3507 35.1705 32.3484C35.1281 32.3462 35.1017 32.338 35.0981 32.3368C35.0969 32.3364 35.1093 32.3404 35.1525 32.3615L36.3254 29.9666Z" fill="black" fill-opacity="0.08" mask="url(#path-37-inside-6_576_5941)"/>
<mask id="path-39-inside-7_576_5941" fill="white">
<path d="M33.757 31.2071C33.1651 30.7184 32.7633 30.5881 32.4972 30.6044C32.2311 30.6152 31.9053 30.7835 31.9596 31.017C32.0139 31.2451 32.3071 31.3103 32.5678 31.1691C32.8284 31.0333 33.2357 30.8596 33.757 31.2071Z"/>
</mask>
<path d="M33.757 31.2071C33.1651 30.7184 32.7633 30.5881 32.4972 30.6044C32.2311 30.6152 31.9053 30.7835 31.9596 31.017C32.0139 31.2451 32.3071 31.3103 32.5678 31.1691C32.8284 31.0333 33.2357 30.8596 33.757 31.2071Z" fill="#3F1F2F"/>
<path d="M33.757 31.2071L33.0174 32.3165L34.6059 30.1789L33.757 31.2071ZM32.4972 30.6044L32.5516 31.9366L32.5651 31.936L32.5787 31.9352L32.4972 30.6044ZM31.9596 31.017L30.6609 31.3191L30.6625 31.3259L31.9596 31.017ZM32.5678 31.1691L31.9519 29.9865L31.9423 29.9915L31.9327 29.9967L32.5678 31.1691ZM34.6059 30.1789C33.921 29.6134 33.1867 29.2263 32.4157 29.2735L32.5787 31.9352C32.4509 31.943 32.4039 31.9085 32.4667 31.9362C32.5319 31.965 32.6765 32.0441 32.9081 32.2352L34.6059 30.1789ZM32.4428 29.2721C32.0896 29.2865 31.6972 29.3967 31.3638 29.621C31.0543 29.8294 30.4504 30.4139 30.6609 31.3191L33.2583 30.715C33.3266 31.0086 33.2667 31.2906 33.1492 31.5024C33.0453 31.6897 32.9167 31.7903 32.8527 31.8334C32.7351 31.9125 32.6387 31.933 32.5516 31.9366L32.4428 29.2721ZM30.6625 31.3259C30.8265 32.0146 31.3662 32.4054 31.874 32.5278C32.3524 32.643 32.8268 32.5452 33.2028 32.3415L31.9327 29.9967C32.0481 29.9342 32.2456 29.8743 32.4987 29.9353C32.781 30.0033 33.147 30.2475 33.2567 30.7082L30.6625 31.3259ZM33.1837 32.3516C33.2053 32.3404 33.2193 32.3335 33.2295 32.3288C33.2395 32.3242 33.2435 32.3228 33.2429 32.323C33.2416 32.3235 33.2178 32.332 33.1776 32.3354C33.1344 32.3391 33.0886 32.3354 33.0481 32.3248C33.0087 32.3144 32.9981 32.3036 33.0174 32.3165L34.4966 30.0977C33.9944 29.7629 33.4634 29.6348 32.9517 29.6783C32.4795 29.7185 32.1195 29.8992 31.9519 29.9865L33.1837 32.3516Z" fill="black" fill-opacity="0.08" mask="url(#path-39-inside-7_576_5941)"/>
<mask id="path-41-inside-8_576_5941" fill="white">
<path d="M36.3799 25.1223C36.8849 23.7321 38.0578 23.2651 38.8778 23.2651C39.8932 23.2651 40.8706 23.7701 40.9358 24.8996C40.2624 24.3892 37.2161 23.9928 36.3799 25.1223Z"/>
</mask>
<path d="M36.3799 25.1223C36.8849 23.7321 38.0578 23.2651 38.8778 23.2651C39.8932 23.2651 40.8706 23.7701 40.9358 24.8996C40.2624 24.3892 37.2161 23.9928 36.3799 25.1223Z" fill="#592739"/>
<path d="M36.3799 25.1223L35.1267 24.667L37.4515 25.9156L36.3799 25.1223ZM40.9358 24.8996L40.1303 25.9622L42.4334 27.708L42.2669 24.8228L40.9358 24.8996ZM37.6331 25.5775C37.9131 24.8067 38.5138 24.5985 38.8778 24.5985V21.9318C37.6018 21.9318 35.8567 22.6576 35.1267 24.667L37.6331 25.5775ZM38.8778 24.5985C39.1848 24.5985 39.3943 24.6777 39.495 24.7487C39.5388 24.7795 39.5584 24.8054 39.5691 24.8244C39.5789 24.8418 39.5994 24.8847 39.6047 24.9764L42.2669 24.8228C42.21 23.8372 41.7305 23.0618 41.0313 22.569C40.3731 22.1051 39.5861 21.9318 38.8778 21.9318V24.5985ZM41.7413 23.8371C41.3378 23.5312 40.7885 23.3611 40.3589 23.2614C39.875 23.1491 39.3141 23.0759 38.7494 23.063C38.1907 23.0502 37.5729 23.0951 36.9965 23.2535C36.4386 23.4068 35.7669 23.7095 35.3083 24.3289L37.4515 25.9156C37.411 25.9703 37.4336 25.8989 37.7032 25.8249C37.9542 25.7559 38.2968 25.72 38.6885 25.729C39.074 25.7378 39.4532 25.7888 39.756 25.859C40.1131 25.9419 40.1971 26.0128 40.1303 25.9622L41.7413 23.8371Z" fill="black" fill-opacity="0.08" mask="url(#path-41-inside-8_576_5941)"/>
<path d="M36.4451 25.0405C36.5537 24.9101 37.2705 24.0793 38.7964 23.9924C39.9748 23.9273 40.5503 24.7472 40.7458 24.9753C40.1811 25.3065 38.9756 25.4369 37.9547 25.3065C37.0207 25.1925 36.6026 25.1382 36.4451 25.1436C36.3257 25.1545 36.3637 25.1382 36.4451 25.0405Z" fill="#FCE7BE"/>
<path d="M38.8337 24.6581C38.9592 24.6512 39.0741 24.6582 39.1796 24.6759C38.9727 24.6899 38.759 24.6934 38.5474 24.6858C38.6385 24.6732 38.7339 24.6638 38.8337 24.6581Z" stroke="black" stroke-opacity="0.08" stroke-width="1.33333"/>
<mask id="path-45-inside-9_576_5941" fill="white">
<path d="M39.5349 24.2425C39.5349 24.7747 39.1276 25.2037 38.628 25.2037C38.123 25.2037 37.7212 24.7747 37.7212 24.2425C37.7212 24.1629 37.7302 24.0851 37.7483 24.009C37.7809 23.8679 39.4534 23.8081 39.4969 23.9656C39.5222 24.0525 39.5349 24.1448 39.5349 24.2425Z"/>
</mask>
<path d="M39.5349 24.2425C39.5349 24.7747 39.1276 25.2037 38.628 25.2037C38.123 25.2037 37.7212 24.7747 37.7212 24.2425C37.7212 24.1629 37.7302 24.0851 37.7483 24.009C37.7809 23.8679 39.4534 23.8081 39.4969 23.9656C39.5222 24.0525 39.5349 24.1448 39.5349 24.2425Z" fill="#2B1628"/>
<path d="M37.7483 24.009L39.0454 24.3179L39.0475 24.3089L37.7483 24.009ZM39.4969 23.9656L38.2115 24.3202L38.2141 24.3296L38.2169 24.3389L39.4969 23.9656ZM38.2015 24.2425C38.2015 24.11 38.3216 23.8703 38.628 23.8703V26.537C39.9337 26.537 40.8682 25.4394 40.8682 24.2425H38.2015ZM38.628 23.8703C38.9341 23.8703 39.0545 24.1153 39.0545 24.2425H36.3879C36.3879 25.4341 37.312 26.537 38.628 26.537V23.8703ZM39.0545 24.2425C39.0545 24.2649 39.0519 24.2908 39.0454 24.3179L36.4513 23.7002C36.4086 23.8793 36.3879 24.0609 36.3879 24.2425H39.0545ZM39.0475 24.3089C38.9781 24.6098 38.8213 24.8129 38.7132 24.9244C38.605 25.0359 38.501 25.1026 38.4422 25.1367C38.3277 25.2032 38.2359 25.2307 38.2179 25.2362C38.1701 25.2507 38.1598 25.2487 38.2165 25.2407C38.3142 25.2268 38.4754 25.2136 38.6587 25.2081C38.8432 25.2025 39.0008 25.2062 39.0934 25.2143C39.1481 25.2191 39.1295 25.2213 39.0709 25.2058C39.0468 25.1995 38.9454 25.1726 38.8203 25.1027C38.755 25.0662 38.6486 24.999 38.5388 24.8878C38.4268 24.7741 38.2852 24.5873 38.2115 24.3202L40.7822 23.611C40.6345 23.0758 40.2309 22.8361 40.1205 22.7745C39.9661 22.6883 39.8243 22.6466 39.7503 22.6271C39.5918 22.5854 39.4351 22.5674 39.3265 22.5579C39.0922 22.5373 38.8215 22.5353 38.5783 22.5426C38.3341 22.55 38.0683 22.5683 37.8419 22.6004C37.7365 22.6154 37.5899 22.64 37.4442 22.6842C37.3772 22.7045 37.2461 22.7476 37.1036 22.8304C37.0298 22.8732 36.5834 23.1275 36.4492 23.7092L39.0475 24.3089ZM38.2169 24.3389C38.2041 24.2952 38.2015 24.2611 38.2015 24.2425H40.8682C40.8682 24.0285 40.8403 23.8098 40.7769 23.5923L38.2169 24.3389Z" fill="black" fill-opacity="0.08" mask="url(#path-45-inside-9_576_5941)"/>
<path d="M38.1611 24.3296C38.1611 24.0581 38.3675 23.8354 38.6281 23.8354C38.8833 23.8354 39.0951 24.0581 39.0951 24.3296C39.0951 24.6011 38.8833 24.8237 38.6281 24.8237C38.3675 24.8237 38.1611 24.6011 38.1611 24.3296Z" fill="#2B1628"/>
<path d="M38.8278 24.3296C38.8278 24.3639 38.8144 24.4035 38.7828 24.4372C38.7499 24.4722 38.6945 24.5021 38.6281 24.5021C38.5565 24.5021 38.5028 24.4703 38.4733 24.4391C38.4439 24.4081 38.4285 24.3688 38.4285 24.3296C38.4285 24.2904 38.4439 24.2511 38.4733 24.2201C38.5028 24.1889 38.5565 24.1571 38.6281 24.1571C38.6945 24.1571 38.7499 24.187 38.7828 24.222C38.8144 24.2557 38.8278 24.2953 38.8278 24.3296Z" stroke="black" stroke-opacity="0.08" stroke-width="1.33333"/>
<path d="M38.8398 24.2858C38.8398 24.1772 38.9213 24.0903 39.0245 24.0903C39.1222 24.0903 39.2091 24.1772 39.2091 24.2858C39.2091 24.3944 39.1222 24.4813 39.0245 24.4813C38.9213 24.4813 38.8398 24.3944 38.8398 24.2858Z" fill="white"/>
<path d="M38.8398 24.2858C38.8398 24.1772 38.9213 24.0903 39.0245 24.0903C39.1222 24.0903 39.2091 24.1772 39.2091 24.2858C39.2091 24.3944 39.1222 24.4813 39.0245 24.4813C38.9213 24.4813 38.8398 24.3944 38.8398 24.2858Z" stroke="black" stroke-opacity="0.08" stroke-width="1.33333"/>
<mask id="path-51-inside-10_576_5941" fill="white">
<path d="M40.632 24.8892C40.3224 25.1227 39.7523 25.3507 38.9377 25.3507C38.1884 25.3507 37.3141 25.1824 36.5811 25.1498C37.3793 25.3562 38.3622 25.72 39.2255 25.682C39.9858 25.644 40.355 25.4485 40.7786 25.0955C40.7514 25.0195 40.632 24.8892 40.632 24.8892Z"/>
</mask>
<path d="M40.632 24.8892C40.3224 25.1227 39.7523 25.3507 38.9377 25.3507C38.1884 25.3507 37.3141 25.1824 36.5811 25.1498C37.3793 25.3562 38.3622 25.72 39.2255 25.682C39.9858 25.644 40.355 25.4485 40.7786 25.0955C40.7514 25.0195 40.632 24.8892 40.632 24.8892Z" fill="#592739"/>
<path d="M40.632 24.8892L41.6148 23.9882L40.7962 23.0951L39.829 23.8247L40.632 24.8892ZM36.5811 25.1498L36.6403 23.8178L36.2474 26.4407L36.5811 25.1498ZM39.2255 25.682L39.2842 27.014L39.2921 27.0136L39.2255 25.682ZM40.7786 25.0955L41.6321 26.1198L42.3473 25.5238L42.0342 24.6471L40.7786 25.0955ZM39.829 23.8247C39.7903 23.8539 39.5162 24.0174 38.9377 24.0174V26.6841C39.9883 26.6841 40.8546 26.3914 41.4349 25.9536L39.829 23.8247ZM38.9377 24.0174C38.6483 24.0174 38.3119 23.9843 37.9047 23.9378C37.5273 23.8946 37.0655 23.8367 36.6403 23.8178L36.5219 26.4818C36.8297 26.4955 37.1715 26.538 37.6019 26.5872C38.0024 26.633 38.4779 26.6841 38.9377 26.6841V24.0174ZM36.2474 26.4407C36.4253 26.4867 36.615 26.5419 36.8418 26.607C37.0602 26.6696 37.306 26.7394 37.5591 26.8019C38.0535 26.9241 38.6615 27.0414 39.2842 27.014L39.1669 24.3499C38.9262 24.3605 38.6111 24.315 38.1986 24.2131C37.9983 24.1636 37.7948 24.1061 37.5774 24.0438C37.3684 23.9838 37.1359 23.9161 36.9148 23.8589L36.2474 26.4407ZM39.2921 27.0136C39.7764 26.9894 40.2149 26.911 40.6307 26.7419C41.0478 26.5723 41.3658 26.3417 41.6321 26.1198L39.925 24.0712C39.7678 24.2022 39.6894 24.2459 39.6259 24.2718C39.5611 24.2981 39.4349 24.3365 39.159 24.3503L39.2921 27.0136ZM42.0342 24.6471C41.937 24.3749 41.7626 24.1643 41.7412 24.1371C41.7087 24.0961 41.6794 24.0614 41.6584 24.0372C41.6477 24.0248 41.6383 24.0143 41.631 24.0061C41.6274 24.002 41.6241 23.9984 41.6214 23.9954C41.6201 23.9939 41.6188 23.9926 41.6177 23.9914C41.6172 23.9908 41.6167 23.9902 41.6162 23.9897C41.6159 23.9894 41.6157 23.9892 41.6155 23.9889C41.6154 23.9888 41.6153 23.9887 41.6152 23.9885C41.6151 23.9885 41.615 23.9884 41.615 23.9884C41.6149 23.9883 41.6148 23.9882 40.632 24.8892C39.6491 25.7901 39.649 25.79 39.6489 25.7899C39.6489 25.7899 39.6488 25.7898 39.6488 25.7898C39.6487 25.7897 39.6486 25.7896 39.6485 25.7895C39.6483 25.7892 39.6481 25.789 39.6479 25.7888C39.6475 25.7884 39.6472 25.7881 39.6469 25.7877C39.6462 25.787 39.6457 25.7864 39.6452 25.7859C39.6442 25.7848 39.6436 25.7841 39.6433 25.7837C39.6426 25.783 39.6428 25.7832 39.6437 25.7842C39.646 25.7869 39.6482 25.7895 39.649 25.7906C39.6514 25.7936 39.6431 25.7835 39.6291 25.7622C39.6248 25.7556 39.5693 25.6739 39.5229 25.544L42.0342 24.6471Z" fill="black" fill-opacity="0.08" mask="url(#path-51-inside-10_576_5941)"/>
<mask id="path-53-inside-11_576_5941" fill="white">
<path d="M41.0501 24.8451C40.9849 24.9157 40.9089 25.0189 40.7677 25.1057C40.3876 24.5247 39.9043 24.0143 38.8074 24.0143C37.868 24.0143 36.6951 24.7202 36.4453 25.0406C36.9666 24.3781 37.8191 23.8079 38.6771 23.7428C39.6708 23.6667 40.5397 23.9165 41.0501 24.8451Z"/>
</mask>
<path d="M41.0501 24.8451C40.9849 24.9157 40.9089 25.0189 40.7677 25.1057C40.3876 24.5247 39.9043 24.0143 38.8074 24.0143C37.868 24.0143 36.6951 24.7202 36.4453 25.0406C36.9666 24.3781 37.8191 23.8079 38.6771 23.7428C39.6708 23.6667 40.5397 23.9165 41.0501 24.8451Z" fill="#2B1628"/>
<path d="M41.0501 24.8451L42.0298 25.7495L42.681 25.0441L42.2185 24.2028L41.0501 24.8451ZM40.7677 25.1057L39.6519 25.8357L40.362 26.921L41.4665 26.2413L40.7677 25.1057ZM36.4453 25.0406L35.3938 24.2208L37.4931 25.8651L36.4453 25.0406ZM38.6771 23.7428L38.7781 25.0723L38.7788 25.0722L38.6771 23.7428ZM40.0704 23.9407C40.0519 23.9607 40.0357 23.979 40.0248 23.9914C40.0192 23.9977 40.0137 24.004 40.0096 24.0086C40.0052 24.0137 40.0018 24.0175 39.9987 24.0211C39.9859 24.0356 39.9846 24.0366 39.9875 24.0336C39.9914 24.0297 40.0013 24.02 40.016 24.0079C40.0311 23.9956 40.0489 23.9825 40.0689 23.9702L41.4665 26.2413C41.8103 26.0297 42.057 25.72 42.0298 25.7495L40.0704 23.9407ZM41.8835 24.3758C41.6551 24.0266 41.3188 23.5754 40.7874 23.227C40.2349 22.8649 39.5775 22.6809 38.8074 22.6809V25.3476C39.1342 25.3476 39.2669 25.4189 39.3254 25.4572C39.4048 25.5093 39.5003 25.6039 39.6519 25.8357L41.8835 24.3758ZM38.8074 22.6809C38.0475 22.6809 37.307 22.9522 36.7811 23.21C36.5033 23.3461 36.2449 23.4983 36.0258 23.6508C35.8338 23.7845 35.5814 23.9802 35.3938 24.2208L37.4968 25.8604C37.4342 25.9408 37.422 25.9281 37.5495 25.8393C37.6499 25.7694 37.7903 25.685 37.9545 25.6046C38.3123 25.4293 38.628 25.3476 38.8074 25.3476V22.6809ZM37.4931 25.8651C37.8531 25.4077 38.3916 25.1016 38.7781 25.0723L38.5761 22.4133C37.2467 22.5142 36.0801 23.3485 35.3975 24.2161L37.4931 25.8651ZM38.7788 25.0722C39.1471 25.044 39.3841 25.0863 39.5316 25.1478C39.6509 25.1976 39.7681 25.2808 39.8817 25.4874L42.2185 24.2028C41.8216 23.4808 41.2492 22.9749 40.5581 22.6866C39.8951 22.4101 39.2009 22.3655 38.5754 22.4133L38.7788 25.0722Z" fill="black" fill-opacity="0.08" mask="url(#path-53-inside-11_576_5941)"/>
<mask id="path-55-inside-12_576_5941" fill="white">
<path d="M35.8857 22.8416C36.5211 22.6026 40.2842 22.6244 40.7946 22.8144C41.3539 23.0208 41.7503 23.1891 42.3259 23.5421C42.2173 22.9339 41.658 22.3257 40.8598 21.8913C40.3113 21.5926 36.9012 21.1311 36.3093 21.7935C35.8477 22.3203 35.7663 22.8796 35.8857 22.8416Z"/>
</mask>
<path d="M35.8857 22.8416C36.5211 22.6026 40.2842 22.6244 40.7946 22.8144C41.3539 23.0208 41.7503 23.1891 42.3259 23.5421C42.2173 22.9339 41.658 22.3257 40.8598 21.8913C40.3113 21.5926 36.9012 21.1311 36.3093 21.7935C35.8477 22.3203 35.7663 22.8796 35.8857 22.8416Z" fill="#2B1628"/>
<path d="M35.8857 22.8416L36.29 24.1121L36.3228 24.1017L36.3551 24.0896L35.8857 22.8416ZM40.7946 22.8144L40.3293 24.0639L40.3331 24.0653L40.7946 22.8144ZM42.3259 23.5421L41.6289 24.6787L44.1605 26.2311L43.6385 23.3077L42.3259 23.5421ZM40.8598 21.8913L40.2221 23.0623L40.2224 23.0624L40.8598 21.8913ZM36.3093 21.7935L35.3149 20.9052L35.3065 20.9148L36.3093 21.7935ZM36.3551 24.0896C36.2819 24.1171 36.2804 24.1061 36.4339 24.0857C36.5574 24.0693 36.7255 24.0537 36.9335 24.0404C37.3477 24.0141 37.8642 24.0008 38.3878 24.0004C38.911 24.0001 39.4224 24.0128 39.8249 24.036C40.0274 24.0477 40.189 24.0612 40.3047 24.0751C40.4627 24.094 40.4317 24.102 40.3294 24.0639L41.2599 21.5649C41.0299 21.4793 40.7696 21.445 40.6217 21.4273C40.4314 21.4045 40.2103 21.3871 39.9783 21.3737C39.5118 21.3469 38.947 21.3334 38.3862 21.3338C37.8258 21.3341 37.2506 21.3483 36.7645 21.3791C36.5224 21.3945 36.2883 21.4149 36.0824 21.4423C35.9065 21.4657 35.6484 21.5063 35.4164 21.5936L36.3551 24.0896ZM40.3331 24.0653C40.8407 24.2526 41.1511 24.3857 41.6289 24.6787L43.0229 22.4054C42.3495 21.9925 41.8672 21.7889 41.2561 21.5635L40.3331 24.0653ZM43.6385 23.3077C43.426 22.1176 42.4466 21.2369 41.4971 20.7201L40.2224 23.0624C40.5125 23.2203 40.7242 23.3916 40.8587 23.5416C40.9977 23.6966 41.0144 23.7824 41.0133 23.7764L43.6385 23.3077ZM41.4974 20.7203C41.2849 20.6046 41.0453 20.5322 40.8806 20.4875C40.6884 20.4352 40.4701 20.3876 40.2425 20.3456C39.7866 20.2615 39.2408 20.1903 38.6943 20.1519C38.1554 20.1141 37.5689 20.1046 37.0472 20.162C36.7873 20.1905 36.5029 20.2398 36.2316 20.3301C35.9806 20.4135 35.6112 20.5737 35.315 20.9052L37.3036 22.6819C37.1554 22.8478 37.022 22.8775 37.073 22.8605C37.1036 22.8503 37.187 22.8293 37.3385 22.8127C37.6399 22.7796 38.0512 22.78 38.5074 22.812C38.9559 22.8436 39.4025 22.9023 39.7587 22.9681C39.9372 23.001 40.0799 23.0333 40.1815 23.0609C40.3106 23.0959 40.2976 23.1033 40.2221 23.0623L41.4974 20.7203ZM35.3065 20.9148C34.9531 21.3181 34.726 21.753 34.6076 22.1297C34.5543 22.2994 34.4946 22.5458 34.5041 22.8149C34.5077 22.9159 34.5239 23.2366 34.7352 23.5594C34.858 23.747 35.0731 23.9718 35.4084 24.0943C35.7472 24.218 36.0635 24.1842 36.29 24.1121L35.4815 21.571C35.6931 21.5037 35.996 21.47 36.323 21.5894C36.6467 21.7076 36.8517 21.9238 36.9662 22.0987C37.1609 22.3961 37.1675 22.6752 37.1691 22.7209C37.1747 22.8794 37.1418 22.9602 37.1517 22.929C37.1595 22.9039 37.2039 22.7957 37.3121 22.6723L35.3065 20.9148Z" fill="black" fill-opacity="0.08" mask="url(#path-55-inside-12_576_5941)"/>
<path d="M32.2585 22.8416C31.6232 22.6026 27.8601 22.6244 27.3497 22.8144C26.7904 23.0208 26.394 23.1891 25.8184 23.5421C25.927 22.9339 26.4863 22.3257 27.2845 21.8913C27.8329 21.5926 31.2431 21.1311 31.8295 21.7935C32.2965 22.3203 32.378 22.8796 32.2585 22.8416Z" fill="#2B1628"/>
<path d="M27.2938 22.6645C27.1343 22.7725 26.9995 22.8834 26.8881 22.993C27.0336 22.9329 27.1845 22.8753 27.3497 22.8144M27.2938 22.6645L31.63 22.7356C30.3486 22.6163 27.7662 22.6593 27.3497 22.8144M27.2938 22.6645L27.3497 22.8144M27.2938 22.6645L27.3497 22.8144" stroke="black" stroke-opacity="0.08" stroke-width="1.33333"/>
<mask id="path-59-inside-13_576_5941" fill="white">
<path d="M31.7424 25.1213C31.2374 23.7312 30.0645 23.2642 29.2446 23.2642C28.2291 23.2642 27.2517 23.7692 27.1865 24.8986C27.8599 24.3882 30.9062 23.9918 31.7424 25.1213Z"/>
</mask>
<path d="M31.7424 25.1213C31.2374 23.7312 30.0645 23.2642 29.2446 23.2642C28.2291 23.2642 27.2517 23.7692 27.1865 24.8986C27.8599 24.3882 30.9062 23.9918 31.7424 25.1213Z" fill="#592739"/>
<path d="M31.7424 25.1213L30.6708 25.9147L32.9956 24.666L31.7424 25.1213ZM27.1865 24.8986L25.8554 24.8218L25.689 27.707L27.992 25.9612L27.1865 24.8986ZM32.9956 24.666C32.2657 22.6566 30.5205 21.9308 29.2446 21.9308V24.5975C29.6085 24.5975 30.2092 24.8057 30.4892 25.5765L32.9956 24.666ZM29.2446 21.9308C28.5362 21.9308 27.7493 22.1041 27.091 22.568C26.3918 23.0608 25.9123 23.8362 25.8554 24.8218L28.5176 24.9754C28.5229 24.8837 28.5434 24.8408 28.5532 24.8234C28.5639 24.8044 28.5835 24.7786 28.6273 24.7477C28.728 24.6767 28.9375 24.5975 29.2446 24.5975V21.9308ZM27.992 25.9612C27.9252 26.0118 28.0092 25.9409 28.3663 25.8581C28.6691 25.7878 29.0483 25.7368 29.4339 25.728C29.8255 25.719 30.1681 25.7549 30.4191 25.8239C30.6887 25.898 30.7113 25.9693 30.6708 25.9147L32.814 24.3279C32.3554 23.7085 31.6837 23.4059 31.1258 23.2525C30.5494 23.0941 29.9316 23.0492 29.3729 23.062C28.8082 23.0749 28.2473 23.1481 27.7634 23.2604C27.3338 23.3602 26.7846 23.5302 26.381 23.8361L27.992 25.9612Z" fill="black" fill-opacity="0.08" mask="url(#path-59-inside-13_576_5941)"/>
<path d="M31.6772 25.0405C31.5686 24.9101 30.8518 24.0793 29.3259 23.9924C28.1475 23.9273 27.572 24.7472 27.3765 24.9753C27.9412 25.3065 29.1467 25.4369 30.1676 25.3065C31.1016 25.1925 31.5197 25.1382 31.6772 25.1436C31.7966 25.1545 31.7586 25.1382 31.6772 25.0405Z" fill="#FCE7BE"/>
<path d="M29.2886 24.6581C29.3884 24.6638 29.4838 24.6732 29.5749 24.6858C29.3633 24.6934 29.1496 24.6899 28.9427 24.6759C29.0482 24.6582 29.1631 24.6512 29.2886 24.6581Z" stroke="black" stroke-opacity="0.08" stroke-width="1.33333"/>
<mask id="path-63-inside-14_576_5941" fill="white">
<path d="M28.5605 24.2415C28.5605 24.7737 28.9678 25.2026 29.4674 25.2026C29.9615 25.2026 30.3688 24.7737 30.3688 24.2415C30.3688 24.1619 30.3597 24.0858 30.3416 24.0134C30.3091 23.8723 28.642 23.8125 28.5986 23.97C28.5732 24.0569 28.5605 24.1474 28.5605 24.2415Z"/>
</mask>
<path d="M28.5605 24.2415C28.5605 24.7737 28.9678 25.2026 29.4674 25.2026C29.9615 25.2026 30.3688 24.7737 30.3688 24.2415C30.3688 24.1619 30.3597 24.0858 30.3416 24.0134C30.3091 23.8723 28.642 23.8125 28.5986 23.97C28.5732 24.0569 28.5605 24.1474 28.5605 24.2415Z" fill="#2B1628"/>
<path d="M30.3416 24.0134L29.0425 24.3133L29.0452 24.3251L29.0481 24.3368L30.3416 24.0134ZM28.5986 23.97L29.8786 24.3433L29.8813 24.334L29.8839 24.3246L28.5986 23.97ZM27.2272 24.2415C27.2272 25.4384 28.1618 26.536 29.4674 26.536V23.8693C29.7739 23.8693 29.8939 24.1089 29.8939 24.2415H27.2272ZM29.4674 26.536C30.7726 26.536 31.7021 25.4331 31.7021 24.2415H29.0355C29.0355 24.1143 29.1505 23.8693 29.4674 23.8693V26.536ZM31.7021 24.2415C31.7021 24.0601 31.6814 23.8751 31.6352 23.6901L29.0481 24.3368C29.0381 24.2966 29.0355 24.2636 29.0355 24.2415H31.7021ZM31.6408 23.7136C31.5069 23.1334 31.0625 22.879 30.9879 22.8356C30.8453 22.7526 30.7141 22.7093 30.6471 22.6889C30.5013 22.6446 30.3548 22.6199 30.2495 22.6049C30.0234 22.5727 29.7582 22.5544 29.5145 22.547C29.2719 22.5397 29.0017 22.5417 28.7677 22.5623C28.6593 22.5718 28.5026 22.5899 28.3439 22.6318C28.2698 22.6514 28.1279 22.6931 27.9735 22.7796C27.8624 22.8418 27.4605 23.0816 27.3132 23.6154L29.8839 24.3246C29.8104 24.5908 29.6696 24.7773 29.5576 24.8911C29.4481 25.0024 29.3418 25.0697 29.2764 25.1063C29.1511 25.1765 29.0496 25.2035 29.0252 25.2099C28.9662 25.2255 28.9472 25.2235 29.0016 25.2187C29.0934 25.2106 29.2501 25.2069 29.4338 25.2124C29.6164 25.218 29.7768 25.2312 29.8738 25.245C29.9301 25.253 29.9194 25.2549 29.8712 25.2402C29.853 25.2347 29.761 25.207 29.6465 25.1403C29.5876 25.106 29.4836 25.0391 29.3757 24.9276C29.2676 24.8159 29.1117 24.6133 29.0425 24.3133L31.6408 23.7136ZM27.3186 23.5967C27.2564 23.8096 27.2272 24.0261 27.2272 24.2415H29.8939C29.8939 24.2686 29.89 24.3041 29.8786 24.3433L27.3186 23.5967Z" fill="black" fill-opacity="0.08" mask="url(#path-63-inside-14_576_5941)"/>
<path d="M29.929 24.334C29.929 24.0571 29.7227 23.8398 29.4675 23.8398C29.2068 23.8398 29.0005 24.0571 29.0005 24.334C29.0005 24.6055 29.2068 24.8227 29.4675 24.8227C29.7227 24.8227 29.929 24.6055 29.929 24.334Z" fill="#2B1628"/>
<path d="M29.4675 24.5065C29.3996 24.5065 29.3425 24.4762 29.308 24.4394C29.274 24.4032 29.2624 24.363 29.2624 24.334C29.2624 24.2726 29.3202 24.156 29.4675 24.156C29.6044 24.156 29.6672 24.2673 29.6672 24.334C29.6672 24.3632 29.6553 24.4044 29.6204 24.4414C29.5846 24.4792 29.5288 24.5065 29.4675 24.5065Z" stroke="black" stroke-opacity="0.08" stroke-width="1.33333"/>
<path d="M30.0753 24.2902C30.0753 24.1816 29.9939 24.0947 29.8907 24.0947C29.7875 24.0947 29.7061 24.1816 29.7061 24.2902C29.7061 24.3988 29.7875 24.4857 29.8907 24.4857C29.9939 24.4857 30.0753 24.3988 30.0753 24.2902Z" fill="white"/>
<path d="M30.0753 24.2902C30.0753 24.1816 29.9939 24.0947 29.8907 24.0947C29.7875 24.0947 29.7061 24.1816 29.7061 24.2902C29.7061 24.3988 29.7875 24.4857 29.8907 24.4857C29.9939 24.4857 30.0753 24.3988 30.0753 24.2902Z" stroke="black" stroke-opacity="0.08" stroke-width="1.33333"/>
<mask id="path-69-inside-15_576_5941" fill="white">
<path d="M27.4854 24.8877C27.8004 25.1212 28.3705 25.3493 29.1851 25.3493C29.9344 25.3493 30.8087 25.1809 31.5418 25.1483C30.7381 25.3547 29.7607 25.7185 28.8973 25.6805C28.137 25.6425 27.7678 25.447 27.3442 25.094C27.3714 25.018 27.4854 24.8877 27.4854 24.8877Z"/>
</mask>
<path d="M27.4854 24.8877C27.8004 25.1212 28.3705 25.3493 29.1851 25.3493C29.9344 25.3493 30.8087 25.1809 31.5418 25.1483C30.7381 25.3547 29.7607 25.7185 28.8973 25.6805C28.137 25.6425 27.7678 25.447 27.3442 25.094C27.3714 25.018 27.4854 24.8877 27.4854 24.8877Z" fill="#592739"/>
<path d="M27.4854 24.8877L28.2795 23.8166L27.2917 23.0843L26.482 24.0097L27.4854 24.8877ZM31.5418 25.1483L31.8733 26.4398L31.4826 23.8163L31.5418 25.1483ZM28.8973 25.6805L28.8307 27.0122L28.8386 27.0125L28.8973 25.6805ZM27.3442 25.094L26.0886 24.6456L25.7755 25.5223L26.4907 26.1183L27.3442 25.094ZM26.6913 25.9588C27.2708 26.3884 28.1312 26.6826 29.1851 26.6826V24.0159C28.6099 24.0159 28.3299 23.854 28.2795 23.8166L26.6913 25.9588ZM29.1851 26.6826C29.6449 26.6826 30.1204 26.6315 30.5209 26.5857C30.9513 26.5365 31.2931 26.494 31.601 26.4804L31.4826 23.8163C31.0573 23.8352 30.5955 23.8932 30.2181 23.9363C29.8109 23.9828 29.4745 24.0159 29.1851 24.0159V26.6826ZM31.2102 23.8569C30.9868 23.9142 30.7534 23.982 30.5435 24.0422C30.3253 24.1047 30.1219 24.1622 29.9217 24.2117C29.5099 24.3136 29.1963 24.359 28.9559 24.3485L28.8386 27.0125C29.4616 27.04 30.0685 26.9225 30.5621 26.8004C30.8147 26.7379 31.0602 26.6681 31.2783 26.6056C31.5047 26.5407 31.6948 26.4856 31.8733 26.4398L31.2102 23.8569ZM28.9638 24.3488C28.6879 24.335 28.5617 24.2967 28.4969 24.2703C28.4334 24.2445 28.355 24.2008 28.1978 24.0697L26.4907 26.1183C26.757 26.3403 27.0751 26.5708 27.4921 26.7404C27.9079 26.9096 28.3464 26.988 28.8307 27.0122L28.9638 24.3488ZM28.5999 25.5425C28.5573 25.6619 28.508 25.7372 28.5042 25.7431C28.4919 25.7625 28.4849 25.7713 28.4876 25.7678C28.4888 25.7662 28.4912 25.7631 28.4936 25.7603C28.4945 25.7592 28.4948 25.7588 28.4942 25.7595C28.4939 25.7599 28.4934 25.7605 28.4925 25.7615C28.4921 25.762 28.4915 25.7626 28.4909 25.7633C28.4906 25.7637 28.4903 25.764 28.49 25.7644C28.4898 25.7646 28.4896 25.7648 28.4894 25.765C28.4893 25.7652 28.4892 25.7653 28.4891 25.7654C28.4891 25.7654 28.489 25.7655 28.489 25.7655C28.4889 25.7656 28.4889 25.7657 27.4854 24.8877C26.482 24.0097 26.4819 24.0098 26.4818 24.0099C26.4818 24.0099 26.4817 24.01 26.4817 24.01C26.4816 24.0102 26.4815 24.0103 26.4814 24.0104C26.4812 24.0106 26.4809 24.0109 26.4807 24.0111C26.4803 24.0117 26.4798 24.0122 26.4793 24.0128C26.4782 24.014 26.4771 24.0153 26.4758 24.0168C26.4732 24.0198 26.4702 24.0233 26.4667 24.0274C26.4598 24.0355 26.451 24.0459 26.4408 24.0582C26.4209 24.0822 26.3931 24.1164 26.3625 24.1569C26.3396 24.187 26.1802 24.389 26.0886 24.6456L28.5999 25.5425Z" fill="black" fill-opacity="0.08" mask="url(#path-69-inside-15_576_5941)"/>
<mask id="path-71-inside-16_576_5941" fill="white">
<path d="M27.0781 24.8389C27.1324 24.9203 27.203 24.9963 27.3551 25.1049C27.7352 24.5239 28.2185 24.0135 29.3154 24.0135C30.2548 24.0135 31.4277 24.7194 31.6775 25.0398C31.1562 24.3773 30.3036 23.8071 29.4457 23.742C28.452 23.666 27.5886 23.9103 27.0781 24.8389Z"/>
</mask>
<path d="M27.0781 24.8389C27.1324 24.9203 27.203 24.9963 27.3551 25.1049C27.7352 24.5239 28.2185 24.0135 29.3154 24.0135C30.2548 24.0135 31.4277 24.7194 31.6775 25.0398C31.1562 24.3773 30.3036 23.8071 29.4457 23.742C28.452 23.666 27.5886 23.9103 27.0781 24.8389Z" fill="#2B1628"/>
<path d="M27.0781 24.8389L25.9097 24.1966L25.52 24.9054L25.9687 25.5785L27.0781 24.8389ZM27.3551 25.1049L26.5801 26.1899L27.7104 26.9973L28.4708 25.8349L27.3551 25.1049ZM31.6775 25.0398L30.6296 25.8643L32.729 24.22L31.6775 25.0398ZM29.4457 23.742L29.344 25.0714L29.3447 25.0715L29.4457 23.742ZM25.9687 25.5785C26.1351 25.8281 26.3342 26.0143 26.5801 26.1899L28.1301 24.02C28.0927 23.9933 28.0951 23.9917 28.1153 24.0115C28.1261 24.0222 28.1395 24.0365 28.1539 24.054C28.1683 24.0716 28.1797 24.0875 28.1875 24.0993L25.9687 25.5785ZM28.4708 25.8349C28.6225 25.6031 28.718 25.5085 28.7974 25.4564C28.8559 25.4181 28.9885 25.3468 29.3154 25.3468V22.6802C28.5453 22.6802 27.8879 22.8641 27.3354 23.2262C26.804 23.5746 26.4677 24.0258 26.2393 24.375L28.4708 25.8349ZM29.3154 25.3468C29.4948 25.3468 29.8105 25.4285 30.1683 25.6038C30.3325 25.6843 30.4728 25.7686 30.5733 25.8385C30.7008 25.9273 30.6886 25.94 30.626 25.8596L32.729 24.22C32.5414 23.9794 32.2889 23.7837 32.097 23.65C31.8779 23.4975 31.6194 23.3453 31.3417 23.2092C30.8158 22.9515 30.0753 22.6802 29.3154 22.6802V25.3468ZM32.7253 24.2153C32.0426 23.3477 30.8761 22.5134 29.5467 22.4125L29.3447 25.0715C29.7311 25.1008 30.2697 25.4069 30.6296 25.8643L32.7253 24.2153ZM29.5474 22.4125C28.925 22.3649 28.232 22.4072 27.5695 22.6823C26.8776 22.9695 26.3063 23.4751 25.9097 24.1966L28.2466 25.4812C28.3604 25.2741 28.476 25.1933 28.5919 25.1452C28.737 25.0849 28.9726 25.043 29.344 25.0714L29.5474 22.4125Z" fill="black" fill-opacity="0.08" mask="url(#path-71-inside-16_576_5941)"/>
<mask id="path-73-inside-17_576_5941" fill="white">
<path d="M34.0881 35.7922C34.7886 35.7976 35.2991 35.803 35.7715 35.7107C35.5706 35.9768 34.8755 36.5796 34.0773 36.5796C33.279 36.5796 32.5677 35.9388 32.4048 35.6401C33.2247 35.803 33.5288 35.7868 34.0881 35.7922Z"/>
</mask>
<path d="M34.0881 35.7922C34.7886 35.7976 35.2991 35.803 35.7715 35.7107C35.5706 35.9768 34.8755 36.5796 34.0773 36.5796C33.279 36.5796 32.5677 35.9388 32.4048 35.6401C33.2247 35.803 33.5288 35.7868 34.0881 35.7922Z" fill="#592739"/>
<path d="M34.0881 35.7922L34.0752 37.1255L34.0778 37.1255L34.0881 35.7922ZM35.7715 35.7107L36.8355 36.5142L38.9348 33.7341L35.5158 34.4021L35.7715 35.7107ZM32.4048 35.6401L32.6646 34.3324L29.8698 33.7771L31.2343 36.2786L32.4048 35.6401ZM34.0778 37.1255C34.7342 37.1306 35.3948 37.1429 36.0272 37.0193L35.5158 34.4021C35.2033 34.4632 34.843 34.4647 34.0985 34.4589L34.0778 37.1255ZM34.7074 34.9073C34.7236 34.8859 34.708 34.9094 34.6495 34.9613C34.5965 35.0082 34.5275 35.0614 34.4491 35.1096C34.2786 35.2147 34.1481 35.2462 34.0773 35.2462V37.9129C34.8046 37.9129 35.4208 37.6431 35.8476 37.3802C36.2676 37.1215 36.622 36.7969 36.8355 36.5142L34.7074 34.9073ZM34.0773 35.2462C34.0252 35.2462 33.9027 35.2187 33.7395 35.1105C33.6657 35.0616 33.6054 35.0101 33.5654 34.9701C33.5458 34.9505 33.5362 34.9388 33.535 34.9372C33.5313 34.9326 33.5494 34.9542 33.5753 35.0017L31.2343 36.2786C31.4541 36.6817 31.8585 37.063 32.2661 37.3332C32.6988 37.62 33.3311 37.9129 34.0773 37.9129V35.2462ZM32.145 36.9479C33.0957 37.1368 33.5065 37.1199 34.0752 37.1255L34.1011 34.4589C33.5512 34.4536 33.3537 34.4693 32.6646 34.3324L32.145 36.9479Z" fill="black" fill-opacity="0.08" mask="url(#path-73-inside-17_576_5941)"/>
<path d="M37.5361 34.3585C37.2103 34.326 34.7776 33.9513 34.1477 33.9459C33.5233 33.9404 30.8245 34.3368 30.667 34.3531C30.7919 34.3531 31.1611 35.3414 32.535 35.6781C32.9368 35.7758 33.4364 35.7921 34.088 35.7921C34.7559 35.803 35.3206 35.8193 35.7333 35.7215C37.0963 35.3957 37.4112 34.3585 37.5361 34.3585Z" fill="#632F39"/>
<path d="M36.1594 34.8427C36.0032 34.9354 35.8129 35.017 35.5791 35.0729C35.2753 35.1447 34.8303 35.1375 34.1443 35.1263C34.1293 35.126 34.1141 35.1258 34.0988 35.1255L34.0988 35.1254H34.088C33.4282 35.1254 33.006 35.1065 32.6931 35.0304C32.4786 34.9778 32.2974 34.9062 32.1437 34.8253C32.2017 34.8177 32.26 34.81 32.3182 34.8024C33.1145 34.6989 33.8877 34.6103 34.1419 34.6125L34.142 34.6125C34.4043 34.6148 35.1186 34.7015 35.8666 34.8027C35.9643 34.8159 36.0624 34.8293 36.1594 34.8427Z" stroke="black" stroke-opacity="0.08" stroke-width="1.33333"/>
<path d="M35.7822 32.8813C34.8374 32.599 34.4953 32.9085 34.1532 32.9085C33.8056 32.9085 33.4147 32.5447 32.5675 32.8325C31.3566 33.2452 30.9765 34.2117 30.667 34.3529C30.9059 34.4289 31.6444 34.3583 32.0082 34.3095C32.4372 34.2497 33.4635 34.1303 34.1586 34.2172C34.8373 34.1466 36.0157 34.266 36.4718 34.3258C36.8791 34.3746 37.2538 34.4181 37.5524 34.3529C37.2266 34.2606 36.9443 33.2397 35.7822 32.8813Z" fill="#3F1F2F"/>
<path d="M35.7558 33.5806C35.3612 33.5479 34.9048 33.5226 34.5034 33.5306C34.5345 33.5233 34.5624 33.5161 34.5864 33.5099C34.6076 33.5044 34.6271 33.4993 34.6455 33.4944C34.7251 33.4735 34.7828 33.4583 34.8539 33.4462C34.9969 33.4218 35.2142 33.4078 35.5884 33.5192C35.6472 33.5375 35.7029 33.558 35.7558 33.5806ZM33.7852 33.5228C33.3497 33.5104 32.8811 33.542 32.5029 33.5794C32.5893 33.5367 32.6821 33.4978 32.7823 33.4636C33.0773 33.3634 33.2614 33.3818 33.4029 33.4133C33.4701 33.4283 33.5236 33.4448 33.5961 33.4672C33.6231 33.4755 33.6526 33.4846 33.6864 33.4947C33.7144 33.5031 33.7477 33.513 33.7852 33.5228Z" stroke="black" stroke-opacity="0.08" stroke-width="1.33333"/>
<path d="M44.1497 24.3658C44.1497 24.3658 44.6765 19.9728 44.3941 17.6976C44.014 14.6404 43.5578 12.6801 42.2872 11.2954C41.212 10.1225 38.8716 8.01562 34.1582 8.01562C30.1942 8.01562 27.3705 9.65553 25.9696 11.3769C24.6066 13.0548 24.1885 16.0142 23.9224 18.6967C23.7541 20.3801 24.1287 24.2844 24.1287 24.2844H24.3622C24.3622 24.2844 23.9007 20.505 25.7089 18.2949C25.9913 17.9528 26.2954 15.7427 26.6592 15.4169C28.0276 14.206 30.6069 13.815 34.0279 13.815C37.4706 13.815 40.4029 14.2766 41.7768 15.5364C42.3143 16.0251 42.4012 18.0723 42.651 18.4578C43.8402 20.2986 43.9651 22.5576 43.9597 24.3604C44.0846 24.393 44.1497 24.3658 44.1497 24.3658Z" fill="#2B1628"/>
<path d="M43.7325 17.7799C43.7842 18.1962 43.8072 18.695 43.8103 19.2308C43.6483 18.8498 43.4547 18.476 43.2235 18.1155C43.2203 18.1071 43.2134 18.0881 43.2038 18.0552C43.1841 17.9875 43.1624 17.8947 43.1379 17.7744C43.1093 17.6339 43.0841 17.4947 43.0566 17.3422C43.0329 17.2109 43.0074 17.0697 42.9763 16.9092C42.9151 16.5929 42.8397 16.2451 42.7384 15.9367C42.646 15.6556 42.4972 15.2916 42.2273 15.045C41.4087 14.2943 40.1915 13.8321 38.8117 13.5501C37.4166 13.265 35.7741 13.1484 34.0279 13.1484C32.2978 13.1484 30.7482 13.2467 29.4429 13.5082C28.1438 13.7684 27.0264 14.2018 26.2174 14.9177L26.2174 14.9177L26.2144 14.9203C26.0667 15.0526 25.9761 15.2224 25.9229 15.3349C25.8622 15.4632 25.8093 15.6074 25.763 15.7496C25.6704 16.0342 25.5842 16.374 25.5062 16.6902C25.4916 16.7497 25.4772 16.8083 25.4631 16.8659C25.3995 17.1253 25.3411 17.3636 25.284 17.5647C25.2494 17.6868 25.2192 17.7806 25.1936 17.8473C25.184 17.8724 25.1768 17.8886 25.1725 17.8979C24.9436 18.1813 24.7485 18.4845 24.5823 18.7986C24.5834 18.7866 24.5846 18.7748 24.5857 18.7631L24.5858 18.7625C24.7184 17.4261 24.886 16.0537 25.1829 14.8156C25.4818 13.5694 25.8975 12.5231 26.4868 11.7976C27.7505 10.2449 30.3773 8.68229 34.1582 8.68229C38.6298 8.68229 40.8042 10.6643 41.7958 11.7459L41.796 11.7462C42.9057 12.9555 43.3506 14.7083 43.7325 17.7799Z" stroke="black" stroke-opacity="0.08" stroke-width="1.33333"/>
<path fill-rule="evenodd" clip-rule="evenodd" d="M44.1448 24.3661C43.9113 26.6522 43.3574 33.4454 42.5157 35.0418C41.7066 36.5786 37.6992 40.5969 36.1842 40.9661C35.7878 41.0639 34.5497 41.1508 34.1479 41.1508C33.6537 41.1508 32.2419 41.015 31.7695 40.863C30.4391 40.4286 26.752 36.622 25.9375 35.031C25.2315 33.6409 24.4224 26.5871 24.1618 24.3661C24.1546 24.3299 24.1491 24.2937 24.1455 24.2575C24.1998 24.2087 24.3519 24.1707 24.3627 24.2847C24.5419 26.0658 25.6117 29.3999 26.0189 30.2036C27.5502 33.2173 28.5168 34.1078 29.4671 34.3088C31.2047 32.1204 32.5242 31.8598 32.9695 31.8489C33.4256 31.838 33.7569 31.9412 34.1098 31.9412C34.4682 31.9412 34.7886 31.8869 35.2393 31.8761C35.69 31.8652 37.015 31.9521 38.8178 34.3033C39.9636 34.0427 41.0061 33.1521 42.3311 30.8009C42.8253 29.9321 43.8787 25.6422 43.9602 24.3607C43.971 24.1598 44.1448 24.2413 44.1448 24.3661ZM37.7481 34.3848C36.2548 32.1421 35.0981 32.6417 34.1587 32.6417C33.279 32.6417 32.2853 31.9901 30.4988 34.3305C31.3079 35.3405 32.8935 35.7912 33.7732 35.7749C33.9958 35.7695 34.2728 35.764 34.5768 35.7858C35.261 35.8346 37.0204 35.5197 37.7481 34.3848Z" fill="#2B1628"/>
<path d="M42.5157 35.0418C43.0051 34.1136 43.3972 31.4285 43.6856 28.894C43.5964 29.2174 43.5066 29.5259 43.4192 29.8065C43.252 30.3432 43.0753 30.8404 42.9113 31.1293L42.5157 35.0418ZM42.5157 35.0418C41.7066 36.5786 37.6992 40.5969 36.1842 40.9661L42.5157 35.0418ZM42.8968 29.8799C42.848 30.2708 42.7968 30.6575 42.7435 31.0332L42.3311 30.8009C42.5133 30.4805 42.7716 29.695 43.0291 28.7666C42.9872 29.1361 42.9431 29.5091 42.8968 29.8799ZM26.5314 34.7282C26.403 34.4747 26.2344 33.8643 26.0524 32.9591C25.9393 32.3959 25.827 31.7525 25.7185 31.0714C26.3673 32.2913 26.9322 33.1537 27.4613 33.7524C28.0805 34.4532 28.6783 34.8234 29.3292 34.961L29.7327 35.0463L29.9743 34.742L29.9785 34.7473C30.4803 35.3737 31.1934 35.7959 31.8673 36.0587C32.5414 36.3215 33.2443 36.4515 33.7855 36.4415L33.7855 36.4415L33.7894 36.4414C34.0104 36.436 34.2597 36.4315 34.5293 36.4507C34.9752 36.4826 35.677 36.3983 36.3653 36.1588C37.0518 35.9199 37.8321 35.4889 38.3093 34.7446L38.3124 34.7398L38.5489 35.0482L38.9657 34.9534C40.3101 34.6476 41.4204 33.6531 42.6673 31.5514C42.5946 32.0286 42.5182 32.4815 42.438 32.8948C42.263 33.7977 42.0847 34.4299 41.926 34.7309L41.9258 34.7313C41.7601 35.046 41.3991 35.5385 40.892 36.13C40.3943 36.7106 39.7851 37.353 39.1526 37.9613C38.5191 38.5704 37.8717 39.1363 37.2979 39.5681C36.6973 40.0203 36.259 40.2617 36.0263 40.3184L36.0246 40.3189C35.8866 40.3529 35.5314 40.396 35.113 40.4307C34.709 40.4642 34.3208 40.4841 34.1479 40.4841C33.938 40.4841 33.4904 40.4534 33.0245 40.4013C32.5441 40.3477 32.1391 40.2812 31.9752 40.2288C31.7716 40.1619 31.3768 39.9172 30.8317 39.4746C30.3102 39.0513 29.7175 38.5027 29.1343 37.9122C27.9477 36.7107 26.8884 35.4247 26.5314 34.7282ZM43.8995 24.8892C43.8994 24.8891 43.8994 24.8891 43.8993 24.8891L44.0916 24.9033C44.0251 24.909 43.9597 24.9038 43.8995 24.8892Z" stroke="black" stroke-opacity="0.08" stroke-width="1.33333"/>
</g>
</svg>
