<svg xmlns="http://www.w3.org/2000/svg" width="20" height="20" viewBox="0 0 20 20" fill="none">
<path d="M12.5 10C12.5 10.663 12.2366 11.2989 11.7678 11.7678C11.2989 12.2366 10.663 12.5 10 12.5C9.33696 12.5 8.70107 12.2366 8.23223 11.7678C7.76339 11.2989 7.5 10.663 7.5 10C7.5 9.33696 7.76339 8.70107 8.23223 8.23223C8.70107 7.76339 9.33696 7.5 10 7.5C10.663 7.5 11.2989 7.76339 11.7678 8.23223C12.2366 8.70107 12.5 9.33696 12.5 10Z" stroke="#586283" stroke-width="1.66667" stroke-linecap="round" stroke-linejoin="round"/>
<path d="M2.04688 9.99936C3.10854 6.61852 6.26771 4.16602 9.99854 4.16602C13.7302 4.16602 16.8885 6.61852 17.9502 9.99936C16.8885 13.3802 13.7302 15.8327 9.99854 15.8327C6.26771 15.8327 3.10854 13.3802 2.04688 9.99936Z" stroke="#586283" stroke-width="1.66667" stroke-linecap="round" stroke-linejoin="round"/>
</svg>