<svg xmlns="http://www.w3.org/2000/svg" width="32.942" height="25.098" viewBox="0 0 32.942 25.098">
  <g id="gmail" transform="translate(-3 -8)">
    <path id="Path_10578" data-name="Path 10578" d="M42.843,16.2l-3.922,2.157L35,22.082V34.867h5.49a2.353,2.353,0,0,0,2.353-2.353Z" transform="translate(-6.902 -1.769)" fill="#4caf50"/>
    <path id="Path_10579" data-name="Path 10579" d="M3,16.2l2.835,1.341,5.009,4.541V34.867H5.353A2.353,2.353,0,0,1,3,32.514Z" transform="translate(0 -1.769)" fill="#1e88e5"/>
    <path id="Path_10580" data-name="Path 10580" d="M30.039,11.2l-8.628,6.471L12.784,11.2,12,15.749,12.784,21l8.628,6.471L30.039,21l.784-5.255Z" transform="translate(-1.941 -0.69)" fill="#e53935"/>
    <path id="Path_10581" data-name="Path 10581" d="M3,11.371v3.06l7.843,5.882v-9.8L8.393,8.674A3.369,3.369,0,0,0,6.371,8h0A3.371,3.371,0,0,0,3,11.371Z" fill="#c62828"/>
    <path id="Path_10582" data-name="Path 10582" d="M42.843,11.371v3.06L35,20.314v-9.8l2.45-1.836A3.369,3.369,0,0,1,39.472,8h0A3.371,3.371,0,0,1,42.843,11.371Z" transform="translate(-6.902)" fill="#fbc02d"/>
  </g>
</svg>
