<svg id="outlook" xmlns="http://www.w3.org/2000/svg" width="31.942" height="31.942" viewBox="0 0 31.942 31.942">
  <path id="Path_10583" data-name="Path 10583" d="M28.562,2H11.4A1.4,1.4,0,0,0,10,3.4V4.995l9.672,2.995L29.964,4.995V3.4A1.4,1.4,0,0,0,28.562,2Z" transform="translate(-0.018 -0.004)" fill="#0364b8"/>
  <path id="Path_10584" data-name="Path 10584" d="M31.607,17.39a11.32,11.32,0,0,0,.349-1.4.665.665,0,0,0-.332-.575l-.013-.008,0,0L20.789,9.24a1.5,1.5,0,0,0-1.621,0L8.349,15.4l0,0-.012.007A.665.665,0,0,0,8,15.987a11.323,11.323,0,0,0,.349,1.4l11.471,8.39Z" transform="translate(-0.015 -0.016)" fill="#0a2767"/>
  <path id="Path_10585" data-name="Path 10585" d="M23.984,5H17L14.979,7.995,17,10.989l6.987,5.989h5.989V10.989Z" transform="translate(-0.027 -0.009)" fill="#28a8ea"/>
  <path id="Path_10586" data-name="Path 10586" d="M10,5h6.987v5.989H10Z" transform="translate(-0.018 -0.009)" fill="#0078d4"/>
  <path id="Path_10587" data-name="Path 10587" d="M24,5h5.989v5.989H24Z" transform="translate(-0.044 -0.009)" fill="#50d9ff"/>
  <path id="Path_10588" data-name="Path 10588" d="M23.974,16.989,16.987,11H10v5.989l6.987,5.989L27.8,24.743Z" transform="translate(-0.018 -0.02)" fill="#0364b8"/>
  <path id="Path_10589" data-name="Path 10589" d="M10.031,5H29.964" transform="translate(-0.018 -0.009)" fill="none"/>
  <path id="Path_10590" data-name="Path 10590" d="M17,11h6.987v5.989H17Z" transform="translate(-0.031 -0.02)" fill="#0078d4"/>
  <path id="Path_10591" data-name="Path 10591" d="M10,17h6.987v5.989H10Z" transform="translate(-0.018 -0.031)" fill="#064a8c"/>
  <path id="Path_10592" data-name="Path 10592" d="M24,17h5.989v5.989H24Z" transform="translate(-0.044 -0.031)" fill="#0078d4"/>
  <path id="Path_10593" data-name="Path 10593" d="M20.168,25.2,8.4,16.616l.494-.868s10.725,6.109,10.889,6.2a.527.527,0,0,0,.419-.012l10.913-6.219.5.867Z" transform="translate(-0.015 -0.029)" fill="#0a2767" opacity="0.5"/>
  <path id="Path_10594" data-name="Path 10594" d="M31.645,16.576l-.014.008,0,0L20.809,22.749a1.494,1.494,0,0,1-1.457.091l3.767,5.052,8.239,1.794v0a1.5,1.5,0,0,0,.619-1.212V16A.665.665,0,0,1,31.645,16.576Z" transform="translate(-0.035 -0.029)" fill="#1490df"/>
  <path id="Path_10595" data-name="Path 10595" d="M31.977,28.488v-.737l-9.965-5.678-1.2.686a1.494,1.494,0,0,1-1.457.091L23.119,27.9,31.358,29.7v0A1.5,1.5,0,0,0,31.977,28.488Z" transform="translate(-0.035 -0.04)" opacity="0.05"/>
  <path id="Path_10596" data-name="Path 10596" d="M31.927,28.872,21,22.65l-.195.11a1.494,1.494,0,0,1-1.457.092L23.119,27.9,31.358,29.7v0a1.5,1.5,0,0,0,.569-.828Z" transform="translate(-0.035 -0.041)" opacity="0.1"/>
  <path id="Path_10597" data-name="Path 10597" d="M8.349,16.589v-.01h-.01l-.03-.02A.649.649,0,0,1,8,16V28.477a1.5,1.5,0,0,0,1.5,1.5H30.459a1.5,1.5,0,0,0,.369-.05.636.636,0,0,0,.18-.06.142.142,0,0,0,.06-.02,1.046,1.046,0,0,0,.23-.13c.02-.01.03-.01.04-.03Z" transform="translate(-0.015 -0.029)" fill="#28a8ea"/>
  <path id="Path_10598" data-name="Path 10598" d="M17.982,24.635V8.331A1.335,1.335,0,0,0,16.651,7H10.026v7.442L8.349,15.4l0,0-.012.007A.665.665,0,0,0,8,15.984v9.982h8.651a1.335,1.335,0,0,0,1.331-1.331Z" transform="translate(-0.015 -0.013)" opacity="0.1"/>
  <path id="Path_10599" data-name="Path 10599" d="M16.984,25.635V9.331A1.335,1.335,0,0,0,15.653,8H10.026v6.444L8.349,15.4l0,0-.012.007A.665.665,0,0,0,8,15.985v10.98h7.653A1.335,1.335,0,0,0,16.984,25.635Z" transform="translate(-0.015 -0.015)" opacity="0.2"/>
  <path id="Path_10600" data-name="Path 10600" d="M16.984,23.638V9.331A1.335,1.335,0,0,0,15.653,8H10.026v6.444L8.349,15.4l0,0-.012.007A.665.665,0,0,0,8,15.985v8.984h7.653A1.335,1.335,0,0,0,16.984,23.638Z" transform="translate(-0.015 -0.015)" opacity="0.2"/>
  <path id="Path_10601" data-name="Path 10601" d="M15.985,23.638V9.331A1.335,1.335,0,0,0,14.655,8H10.026v6.444L8.349,15.4l0,0-.012.007A.665.665,0,0,0,8,15.985v8.984h6.655A1.335,1.335,0,0,0,15.985,23.638Z" transform="translate(-0.015 -0.015)" opacity="0.2"/>
  <path id="Path_10602" data-name="Path 10602" d="M1.331,8H14.64a1.331,1.331,0,0,1,1.331,1.331V22.64a1.331,1.331,0,0,1-1.331,1.331H1.331A1.331,1.331,0,0,1,0,22.64V9.331A1.331,1.331,0,0,1,1.331,8Z" transform="translate(0 -0.015)" fill="#0078d4"/>
  <path id="Path_10603" data-name="Path 10603" d="M3.866,13.463A4.173,4.173,0,0,1,5.5,11.653,4.956,4.956,0,0,1,8.11,11a4.609,4.609,0,0,1,2.409.619,4.132,4.132,0,0,1,1.6,1.73,5.587,5.587,0,0,1,.559,2.545,5.89,5.89,0,0,1-.576,2.661,4.231,4.231,0,0,1-1.642,1.791,4.791,4.791,0,0,1-2.5.636,4.72,4.72,0,0,1-2.463-.626,4.2,4.2,0,0,1-1.615-1.733,5.449,5.449,0,0,1-.566-2.514A6.044,6.044,0,0,1,3.866,13.463Zm1.747,4.25a2.711,2.711,0,0,0,.921,1.192,2.407,2.407,0,0,0,1.44.434,2.528,2.528,0,0,0,1.538-.448,2.6,2.6,0,0,0,.9-1.195,4.618,4.618,0,0,0,.285-1.662,5.054,5.054,0,0,0-.27-1.683,2.664,2.664,0,0,0-.864-1.238,2.383,2.383,0,0,0-1.524-.472,2.488,2.488,0,0,0-1.474.438,2.736,2.736,0,0,0-.942,1.2,4.767,4.767,0,0,0-.007,3.434Z" transform="translate(-0.006 -0.02)" fill="#fff"/>
  <path id="Path_10604" data-name="Path 10604" d="M0,0H31.942V31.942H0Z" fill="none"/>
</svg>
