
<svg width="58" height="58" viewBox="0 0 58 58" fill="none" xmlns="http://www.w3.org/2000/svg">
<g id="Action/account_circle">
<path id="Icon" fill-rule="evenodd" clip-rule="evenodd" d="M28.9974 9.66602C18.3254 9.66602 9.66406 18.3273 9.66406 28.9993C9.66406 39.6713 18.3254 48.3327 28.9974 48.3327C39.6694 48.3327 48.3307 39.6713 48.3307 28.9993C48.3307 18.3273 39.6694 9.66602 28.9974 9.66602ZM28.9974 15.466C32.2067 15.466 34.7974 18.0567 34.7974 21.266C34.7974 24.4753 32.2067 27.066 28.9974 27.066C25.7881 27.066 23.1974 24.4753 23.1974 21.266C23.1974 18.0567 25.7881 15.466 28.9974 15.466ZM28.9974 42.9193C24.1641 42.9193 19.8914 40.4447 17.3974 36.694C17.4554 32.8467 25.1307 30.7393 28.9974 30.7393C32.8447 30.7393 40.5394 32.8467 40.5974 36.694C38.1034 40.4447 33.8307 42.9193 28.9974 42.9193Z" fill="#C3CAD9"/>
</g>
</svg>