<?xml version="1.0" standalone="no"?>
<!DOCTYPE svg PUBLIC "-//W3C//DTD SVG 20010904//EN"
 "http://www.w3.org/TR/2001/REC-SVG-20010904/DTD/svg10.dtd">
<svg version="1.0" xmlns="http://www.w3.org/2000/svg"
 width="960.000000pt" height="960.000000pt" viewBox="0 0 960.000000 960.000000"
 preserveAspectRatio="xMidYMid meet">
<metadata>
Created by potrace 1.14, written by Peter Selinger 2001-2017
</metadata>
<g transform="translate(0.000000,960.000000) scale(0.100000,-0.100000)"
fill="#000000" stroke="none">
<path d="M4567 8984 c-1 -1 -14 -5 -27 -7 -42 -7 -81 -26 -157 -78 -40 -27
-77 -49 -83 -49 -5 0 -10 -4 -10 -8 0 -5 -16 -17 -35 -28 -19 -10 -35 -22 -35
-26 0 -5 -5 -8 -10 -8 -11 0 -176 -106 -198 -127 -7 -7 -20 -13 -28 -13 -8 0
-14 -5 -14 -10 0 -6 -16 -18 -35 -27 -19 -9 -35 -20 -35 -25 0 -4 -6 -8 -14
-8 -7 0 -19 -7 -26 -15 -7 -9 -28 -23 -46 -31 -19 -9 -34 -20 -34 -25 0 -5 -4
-9 -9 -9 -5 0 -139 -87 -297 -192 -159 -106 -294 -195 -299 -198 -11 -5 -183
-119 -200 -133 -5 -4 -46 -31 -90 -59 -43 -28 -85 -57 -93 -64 -7 -8 -19 -14
-27 -14 -7 0 -15 -4 -17 -8 -4 -10 -97 -72 -108 -72 -5 0 -14 -8 -19 -17 -6
-10 -11 -13 -11 -8 0 6 -3 6 -8 0 -4 -6 -38 -30 -77 -55 -38 -25 -72 -47 -75
-50 -9 -10 -60 -40 -63 -38 -2 2 -10 -4 -19 -12 -17 -16 -24 -21 -103 -72 -27
-18 -53 -37 -57 -43 -4 -5 -8 -7 -8 -3 0 4 -8 1 -17 -7 -33 -26 -276 -185
-284 -185 -5 0 -9 -4 -9 -9 0 -5 -9 -13 -20 -16 -11 -3 -26 -12 -32 -18 -7 -7
-78 -55 -158 -107 -80 -52 -151 -100 -158 -107 -6 -6 -21 -15 -32 -18 -11 -3
-20 -11 -20 -16 0 -5 -7 -9 -15 -9 -8 0 -15 -4 -15 -10 0 -5 -4 -10 -9 -10 -9
0 -281 -177 -291 -189 -3 -3 -21 -15 -40 -25 -19 -11 -37 -23 -40 -26 -3 -4
-30 -22 -60 -41 -30 -18 -57 -36 -60 -39 -3 -3 -30 -21 -60 -40 -30 -19 -57
-37 -60 -40 -3 -3 -36 -26 -75 -49 -38 -24 -72 -48 -73 -53 -2 -4 -9 -8 -15
-8 -21 -1 -129 -88 -153 -124 -67 -98 -52 -251 33 -326 41 -37 111 -90 118
-90 4 0 59 -36 124 -80 65 -44 123 -80 129 -80 6 0 12 -4 14 -8 4 -10 325
-225 351 -235 9 -3 17 -11 17 -17 0 -5 5 -10 11 -10 6 0 25 -11 43 -25 18 -14
38 -25 44 -25 7 0 12 -4 12 -10 0 -5 7 -10 15 -10 8 0 15 -3 15 -7 0 -5 23
-21 51 -38 28 -16 56 -34 63 -40 28 -24 76 -55 84 -55 5 0 17 -9 27 -20 10
-11 24 -20 32 -20 7 0 13 -4 13 -10 0 -5 7 -10 15 -10 8 0 15 -4 15 -10 0 -5
7 -10 15 -10 9 0 18 -7 21 -15 4 -8 11 -15 17 -15 10 0 84 -46 97 -60 3 -3 30
-21 60 -40 30 -19 57 -38 58 -42 2 -5 7 -8 12 -8 5 0 93 -56 196 -125 103 -69
190 -125 194 -125 4 0 15 -9 25 -20 10 -11 24 -20 32 -20 7 0 13 -4 13 -10 0
-5 7 -10 15 -10 8 0 15 -4 15 -10 0 -5 5 -10 10 -10 6 0 16 -5 23 -10 7 -6 50
-36 97 -67 47 -30 88 -60 91 -65 3 -5 9 -9 13 -8 8 1 210 -132 214 -142 2 -5
8 -8 14 -8 6 0 26 -11 44 -25 18 -14 37 -25 43 -25 6 0 11 -4 11 -8 0 -5 10
-14 23 -21 12 -6 34 -19 48 -29 14 -9 47 -30 73 -47 27 -16 54 -36 61 -42 8
-7 18 -13 23 -13 6 0 12 -3 14 -7 4 -10 83 -63 121 -82 15 -7 27 -17 27 -22 0
-5 5 -9 10 -9 12 0 73 -41 78 -52 2 -5 7 -8 12 -8 4 0 89 -54 188 -120 99 -66
185 -120 190 -120 6 0 12 -4 14 -9 3 -8 454 -311 463 -311 3 0 14 -8 25 -17
62 -53 189 -65 266 -25 30 16 325 207 434 282 8 6 110 73 225 150 116 77 217
144 225 149 35 24 455 301 565 373 66 43 129 86 140 94 11 9 30 21 43 27 12 5
22 14 22 19 0 4 6 8 13 8 7 0 23 9 34 19 12 11 24 17 27 14 3 -4 6 -1 6 5 0 6
9 14 20 17 11 3 26 12 32 19 7 6 76 53 153 104 77 50 147 96 155 102 8 5 51
34 95 63 44 28 82 55 83 59 2 5 8 8 12 8 8 0 99 57 110 69 3 4 17 12 33 20 15
8 27 18 27 23 0 4 5 8 12 8 6 0 26 11 44 25 18 14 37 25 43 25 6 0 11 4 11 8
0 5 12 15 28 23 15 7 37 20 48 29 79 56 401 267 418 273 9 4 16 11 16 17 0 5
4 10 10 10 5 0 125 77 267 171 142 95 303 201 358 238 55 36 102 69 103 73 2
5 8 8 13 8 27 0 134 92 157 135 23 43 25 53 28 123 2 74 -15 124 -59 174 -27
29 -326 238 -342 238 -2 0 -14 8 -25 18 -11 9 -35 26 -53 37 -46 28 -190 122
-202 132 -10 8 -81 55 -170 112 -22 14 -43 30 -47 36 -5 7 -8 7 -8 0 0 -5 -5
-2 -11 8 -5 9 -17 17 -24 17 -8 0 -15 5 -15 11 0 5 -4 8 -9 5 -5 -3 -11 1 -15
9 -3 8 -10 15 -15 15 -6 0 -67 38 -136 85 -69 47 -130 85 -135 85 -5 0 -13 6
-17 14 -4 7 -18 18 -31 25 -17 9 -551 361 -1137 750 -38 25 -71 49 -73 54 -2
4 -7 7 -12 7 -5 0 -98 60 -207 133 -109 72 -202 134 -208 137 -5 3 -51 33
-102 68 -51 34 -96 62 -102 62 -5 0 -11 7 -15 15 -3 8 -12 15 -20 15 -8 0 -21
6 -28 13 -7 7 -62 45 -123 85 -132 86 -141 92 -170 115 -13 9 -26 17 -30 17
-4 0 -20 11 -37 25 -16 14 -35 25 -43 25 -7 0 -15 7 -19 15 -3 8 -12 15 -21
15 -8 0 -15 5 -15 10 0 6 -5 10 -10 10 -6 0 -16 4 -23 10 -7 5 -48 34 -92 62
-44 29 -81 56 -83 61 -2 4 -8 7 -14 7 -6 0 -27 12 -47 27 -20 16 -38 28 -41
28 -3 1 -15 6 -28 14 -22 12 -118 31 -125 25z"/>
<path d="M325 4143 c7 -168 10 -225 20 -303 4 -30 9 -71 11 -90 6 -67 29 -209
48 -300 3 -14 11 -50 16 -80 6 -30 14 -62 17 -70 3 -8 7 -22 8 -30 4 -25 13
-63 24 -97 5 -18 7 -33 4 -33 -3 0 -1 -6 4 -12 9 -11 18 -39 28 -83 6 -24 48
-151 54 -160 3 -5 6 -16 7 -23 4 -22 105 -276 116 -289 6 -7 8 -13 5 -13 -7 0
200 -412 211 -420 4 -3 16 -21 26 -40 39 -72 255 -390 297 -438 14 -15 31 -36
39 -48 20 -28 99 -122 128 -151 13 -13 20 -23 17 -23 -3 0 75 -80 172 -179 98
-98 180 -177 182 -175 2 1 13 -7 25 -19 25 -25 75 -67 132 -112 20 -16 42 -34
48 -40 28 -26 126 -95 136 -95 5 0 10 -4 10 -8 0 -8 223 -162 234 -162 3 0 25
-13 49 -30 25 -16 50 -30 56 -30 6 0 11 -3 11 -7 0 -5 10 -13 23 -19 12 -6
101 -52 197 -101 96 -49 218 -106 270 -127 52 -21 109 -45 125 -52 32 -14 294
-103 323 -109 9 -2 60 -16 112 -30 52 -15 106 -29 120 -31 14 -3 33 -7 42 -10
20 -6 55 -14 83 -18 11 -2 36 -7 55 -11 19 -4 46 -9 60 -10 14 -2 36 -6 50 -9
14 -3 43 -7 65 -10 22 -3 55 -8 74 -10 18 -3 53 -7 77 -8 24 -2 44 -5 44 -8 0
-18 815 -18 815 0 0 0 23 3 50 5 122 11 184 19 235 30 14 3 45 8 70 11 25 3
53 7 62 10 20 6 54 13 88 19 96 16 442 114 540 152 8 4 17 7 20 7 3 1 10 4 15
7 12 7 68 21 74 19 2 -1 7 2 10 7 3 5 29 17 56 28 28 10 84 34 125 53 41 19
76 34 77 33 7 -2 285 146 376 201 108 65 258 161 286 183 9 8 61 48 117 89 55
42 113 87 128 101 15 14 29 25 32 25 2 0 12 8 23 18 10 9 56 51 102 92 202
182 382 378 541 589 32 42 61 81 66 86 10 12 93 133 107 156 5 9 30 49 55 89
25 39 58 95 74 123 16 29 34 55 40 59 6 4 8 8 4 8 -3 0 11 33 33 73 62 112
173 356 215 472 32 87 75 211 79 225 3 8 14 47 26 85 11 39 25 86 29 105 5 19
18 71 29 115 12 44 19 85 16 92 -2 7 0 15 4 18 5 2 12 26 16 52 5 27 9 53 11
58 1 6 5 28 8 50 4 22 11 65 16 95 5 30 12 84 15 120 4 36 9 81 12 100 7 53
13 162 17 293 l3 117 -858 0 -859 0 -1 -57 c0 -32 -2 -74 -4 -93 -2 -19 -6
-62 -9 -95 -5 -58 -13 -117 -22 -162 -2 -13 -6 -35 -9 -50 -3 -16 -8 -39 -11
-53 -3 -14 -8 -36 -10 -50 -3 -14 -10 -43 -16 -65 -6 -22 -12 -45 -14 -51 -1
-6 -18 -60 -39 -120 -60 -176 -156 -384 -240 -513 -25 -39 -45 -76 -45 -81 0
-6 -4 -10 -8 -10 -4 0 -16 -15 -27 -32 -10 -18 -21 -35 -24 -38 -3 -3 -26 -32
-51 -65 -24 -33 -49 -65 -55 -71 -5 -7 -35 -40 -66 -75 -76 -85 -133 -143
-208 -209 -34 -30 -68 -60 -74 -66 -7 -5 -48 -37 -92 -69 -44 -33 -82 -62 -85
-65 -3 -3 -14 -10 -25 -17 -11 -6 -56 -34 -100 -62 -75 -46 -315 -171 -330
-171 -4 0 -21 -6 -38 -14 -35 -15 -69 -29 -77 -30 -3 -1 -18 -6 -35 -13 -34
-13 -69 -24 -72 -24 -2 0 -21 -6 -43 -14 -22 -8 -40 -12 -40 -8 0 3 -6 1 -12
-4 -13 -10 -87 -30 -143 -38 -16 -2 -40 -7 -52 -10 -46 -11 -61 -13 -114 -20
-30 -4 -65 -9 -79 -11 -75 -11 -182 -16 -320 -14 -183 1 -256 6 -375 26 -16 3
-41 7 -55 9 -14 2 -36 6 -50 9 -14 3 -36 8 -50 11 -14 3 -34 7 -45 10 -11 2
-50 13 -87 23 -38 11 -68 17 -68 13 0 -3 -4 -1 -8 6 -4 6 -20 13 -37 16 -35 5
-283 105 -337 136 -21 11 -38 18 -38 14 0 -3 -8 1 -18 9 -9 8 -48 32 -87 53
-187 101 -382 251 -555 427 -113 116 -140 146 -194 218 -22 30 -44 57 -47 60
-9 8 -126 184 -150 227 -28 49 -135 256 -138 265 -1 4 -10 28 -21 54 -11 25
-20 50 -20 55 0 5 -4 17 -9 27 -9 15 -22 49 -26 62 -2 11 -27 86 -32 100 -3 8
-8 24 -10 35 -8 37 -11 50 -13 53 -2 1 -4 7 -5 12 -1 6 -4 12 -5 15 -1 3 -3
13 -4 23 -1 9 -6 33 -11 52 -4 19 -9 45 -11 57 -1 11 -4 29 -8 40 -3 10 -8 38
-11 63 -3 25 -9 59 -12 75 -2 17 -6 57 -8 90 -2 33 -4 62 -5 65 -1 3 -2 33 -2
68 l-1 62 -859 0 -859 0 6 -147z"/>
</g>
</svg>
